<?xml version="1.0" encoding="utf-8"?>
<!-- Generator: Adobe Illustrator 19.0.0, SVG Export Plug-In . SVG Version: 6.00 Build 0)  -->
<svg version="1.1" id="Layer_1" xmlns="http://www.w3.org/2000/svg" xmlns:xlink="http://www.w3.org/1999/xlink" x="0px" y="0px"
	 viewBox="0 0 380 270" style="enable-background:new 0 0 380 270;" xml:space="preserve">
<style type="text/css">
	.st0{fill:none;stroke:#FFFFFF;}
</style>
<image style="overflow:visible;" width="1920" height="1080" id="XMLID_1_" xlink:href="background-comingsoon-.png"  transform="matrix(0.1987 0 0 0.2503 -1 0)">
</image>
<g id="XMLID_3_">
	<path id="XMLID_4_" class="st0" d="M50.9,138c0,0.7-0.2,1.3-0.5,1.6c-0.3,0.3-0.9,0.5-1.6,0.5H37.4c-4.1,0-7.1-0.8-9-2.5
		c-1.9-1.6-2.9-4.1-2.9-7.5v-14.5c0-3.4,1-5.9,2.9-7.5c1.9-1.6,4.9-2.5,9-2.5h11.4c0.7,0,1.3,0.2,1.6,0.5c0.3,0.3,0.5,0.9,0.5,1.6
		v5.6c0,0.7-0.2,1.3-0.5,1.6c-0.3,0.3-0.9,0.5-1.6,0.5h-9.4c-0.8,0-1.4,0.1-1.8,0.4c-0.4,0.3-0.6,0.8-0.6,1.4v11.1
		c0,0.7,0.2,1.1,0.6,1.4c0.4,0.3,1,0.4,1.8,0.4h9.4c0.7,0,1.3,0.2,1.6,0.5c0.3,0.3,0.5,0.9,0.5,1.6V138z M48.8,139.7
		c0.6,0,1-0.1,1.3-0.4c0.3-0.3,0.4-0.7,0.4-1.3v-5.5c0-0.6-0.1-1-0.4-1.3c-0.3-0.3-0.7-0.4-1.3-0.4h-9.4c-1,0-1.7-0.2-2.1-0.5
		c-0.5-0.4-0.7-0.9-0.7-1.7v-11.1c0-0.8,0.2-1.4,0.7-1.7c0.5-0.4,1.2-0.6,2.1-0.6h9.4c0.6,0,1-0.1,1.3-0.4c0.3-0.3,0.4-0.7,0.4-1.3
		v-5.6c0-0.6-0.1-1-0.4-1.3c-0.3-0.3-0.7-0.4-1.3-0.4H37.4c-3.9,0-6.8,0.8-8.6,2.4c-1.9,1.6-2.8,4-2.8,7.2v14.5
		c0,3.2,0.9,5.6,2.8,7.2c1.9,1.6,4.8,2.3,8.6,2.3H48.8z M46.2,135v0.5h-7.8c-3,0-5-0.5-6-1.4c-1-0.9-1.5-2.5-1.5-4.6v-13
		c0-2.2,0.5-3.8,1.5-4.7c1-0.9,3-1.4,6-1.4h7.8v0.5h-7.8c-2.7,0-4.6,0.4-5.5,1.3c-1,0.9-1.4,2.3-1.4,4.4v13c0,2,0.5,3.4,1.4,4.3
		c0.9,0.8,2.8,1.3,5.6,1.3H46.2z"/>
	<path id="XMLID_8_" class="st0" d="M84.3,115v15.9c0,1.5-0.2,2.8-0.6,4c-0.4,1.2-1.2,2.3-2.3,3.1c-1.1,0.9-2.6,1.6-4.6,2
		c-1.9,0.5-4.4,0.7-7.5,0.7c-3,0-5.5-0.2-7.5-0.7c-1.9-0.5-3.5-1.2-4.6-2c-1.1-0.9-1.9-1.9-2.3-3.1c-0.4-1.2-0.6-2.6-0.6-4V115
		c0-1.5,0.2-2.8,0.6-4c0.4-1.2,1.2-2.3,2.3-3.2c1.1-0.9,2.6-1.6,4.6-2.1c1.9-0.5,4.4-0.7,7.5-0.7c3,0,5.5,0.2,7.5,0.7
		c1.9,0.5,3.5,1.2,4.6,2.1c1.1,0.9,1.9,1.9,2.3,3.2C84.1,112.2,84.3,113.5,84.3,115z M83.9,130.9V115c0-1.4-0.2-2.7-0.6-3.9
		c-0.4-1.2-1.2-2.2-2.2-3c-1.1-0.8-2.5-1.5-4.4-2c-1.9-0.5-4.3-0.7-7.2-0.7s-5.3,0.2-7.2,0.7c-1.9,0.5-3.4,1.1-4.4,2
		c-1.1,0.8-1.8,1.8-2.2,3c-0.4,1.2-0.6,2.5-0.6,3.9v15.9c0,1.4,0.2,2.7,0.6,3.9c0.4,1.2,1.2,2.2,2.2,3c1.1,0.8,2.6,1.5,4.4,1.9
		c1.9,0.5,4.3,0.7,7.2,0.7s5.3-0.2,7.2-0.7c1.9-0.5,3.4-1.1,4.4-1.9c1.1-0.8,1.8-1.8,2.2-3C83.7,133.6,83.9,132.3,83.9,130.9z
		 M78.8,129.8c0,1.9-0.7,3.4-2,4.5c-1.3,1.2-3.8,1.7-7.5,1.7s-6.1-0.6-7.4-1.7c-1.3-1.2-2-2.7-2-4.5V116c0-1.9,0.7-3.4,2-4.5
		c1.3-1.2,3.8-1.7,7.4-1.7s6.1,0.6,7.5,1.7c1.3,1.2,2,2.7,2,4.5V129.8z M60.4,129.8c0,1.7,0.6,3.1,1.9,4.2c1.2,1.1,3.6,1.6,7,1.6
		c3.4,0,5.8-0.5,7.1-1.6c1.3-1.1,1.9-2.5,1.9-4.2V116c0-1.7-0.6-3.1-1.9-4.2c-1.3-1.1-3.6-1.6-7.1-1.6c-3.4,0-5.8,0.5-7,1.6
		c-1.2,1.1-1.9,2.5-1.9,4.2V129.8z M65.5,129.2v-12.5c0-0.6,0.2-1.1,0.7-1.5c0.5-0.4,1.5-0.6,3.2-0.6c1.7,0,2.7,0.2,3.2,0.6
		c0.5,0.4,0.7,0.9,0.7,1.5v12.5c0,0.6-0.2,1.1-0.7,1.6c-0.5,0.4-1.5,0.6-3.2,0.6c-1.7,0-2.7-0.2-3.2-0.6S65.5,129.8,65.5,129.2z
		 M66,116.7v12.5c0,0.6,0.2,1,0.7,1.3c0.5,0.3,1.4,0.4,2.7,0.4c1.3,0,2.2-0.1,2.7-0.4c0.5-0.3,0.7-0.7,0.7-1.3v-12.5
		c0-0.5-0.2-0.9-0.7-1.2c-0.5-0.3-1.4-0.4-2.7-0.4c-1.3,0-2.2,0.1-2.7,0.4C66.2,115.7,66,116.1,66,116.7z"/>
	<path id="XMLID_15_" class="st0" d="M98.4,140.1h-6.9c-0.7,0-1.3-0.2-1.6-0.5c-0.3-0.3-0.5-0.9-0.5-1.6v-30.2
		c0-0.7,0.2-1.3,0.5-1.6c0.3-0.3,0.9-0.5,1.6-0.5H99c0.6,0,1.1,0.1,1.5,0.4c0.4,0.2,0.8,0.7,1.1,1.3l4.2,7.6
		c0.1,0.1,0.1,0.2,0.2,0.4c0,0.1,0.1,0.2,0.3,0.2h0.4c0.1,0,0.2-0.1,0.3-0.2c0-0.1,0.1-0.2,0.2-0.4l4.1-7.6c0.3-0.6,0.7-1,1.1-1.3
		c0.4-0.2,0.9-0.4,1.5-0.4h7.5c0.7,0,1.3,0.2,1.6,0.5c0.3,0.3,0.5,0.9,0.5,1.6V138c0,0.7-0.2,1.3-0.5,1.6c-0.3,0.3-0.9,0.5-1.6,0.5
		h-7.2c-0.8,0-1.3-0.2-1.7-0.5c-0.3-0.3-0.5-0.9-0.5-1.6v-14.5l-1.9,3.4c-0.3,0.6-0.7,1-1.2,1.3c-0.5,0.3-1,0.4-1.7,0.4h-1.9
		c-0.7,0-1.3-0.1-1.7-0.4c-0.5-0.3-0.9-0.7-1.2-1.3l-1.9-3.4V138c0,0.7-0.2,1.3-0.5,1.6C99.7,140,99.2,140.1,98.4,140.1z
		 M98.4,139.7c0.6,0,1-0.1,1.3-0.4c0.3-0.3,0.4-0.7,0.4-1.3v-16.4l2.7,5.1c0.3,0.5,0.6,0.9,1,1.1c0.4,0.2,0.9,0.3,1.5,0.3h1.9
		c0.6,0,1.1-0.1,1.5-0.3c0.4-0.2,0.7-0.6,1-1.1l2.7-5.1V138c0,0.6,0.1,1,0.4,1.3c0.3,0.3,0.7,0.4,1.3,0.4h7.2c0.6,0,1-0.1,1.3-0.4
		c0.3-0.3,0.4-0.7,0.4-1.3v-30.2c0-0.6-0.1-1-0.4-1.3c-0.3-0.3-0.7-0.4-1.3-0.4h-7.5c-0.5,0-0.9,0.1-1.2,0.3
		c-0.3,0.2-0.6,0.6-0.9,1.1l-4.1,7.6c-0.2,0.3-0.3,0.5-0.4,0.6c-0.1,0.1-0.3,0.2-0.4,0.2h-0.4c-0.2,0-0.3-0.1-0.4-0.2
		c-0.1-0.1-0.2-0.3-0.4-0.6l-4.2-7.6c-0.3-0.5-0.6-0.9-0.9-1.1c-0.3-0.2-0.7-0.3-1.2-0.3h-7.5c-0.6,0-1,0.1-1.3,0.4
		c-0.3,0.3-0.4,0.7-0.4,1.3V138c0,0.6,0.1,1,0.4,1.3c0.3,0.3,0.7,0.4,1.3,0.4H98.4z M106.2,121.7c0.6,0,1-0.1,1.2-0.4
		c0.2-0.2,0.6-0.8,1.2-1.6l5.7-8.7c0.2-0.3,0.4-0.5,0.6-0.6c0.2-0.1,0.5-0.2,0.7-0.2h0.8c0.4,0,0.8,0.1,1,0.3
		c0.2,0.2,0.3,0.6,0.3,1.1v23.7h-0.5v-23.7c0-0.2-0.1-0.5-0.2-0.7c-0.1-0.2-0.3-0.3-0.6-0.3h-0.7c-0.2,0-0.4,0-0.6,0.1
		c-0.2,0.1-0.3,0.2-0.5,0.6l-5.7,8.6c-0.6,0.8-1,1.4-1.3,1.7c-0.3,0.3-0.8,0.5-1.5,0.5c-0.7,0-1.2-0.2-1.5-0.5
		c-0.3-0.3-0.7-0.9-1.3-1.7l-5.7-8.6c-0.2-0.3-0.4-0.5-0.5-0.6c-0.2-0.1-0.4-0.1-0.6-0.1h-0.7c-0.3,0-0.5,0.1-0.6,0.3
		c-0.1,0.2-0.1,0.4-0.1,0.7v23.7h-0.5v-23.7c0-0.5,0.1-0.9,0.3-1.1c0.2-0.2,0.5-0.3,0.9-0.3h0.8c0.2,0,0.5,0.1,0.7,0.2
		c0.2,0.1,0.5,0.3,0.7,0.6l5.7,8.7c0.5,0.8,0.9,1.3,1.2,1.6C105.2,121.6,105.6,121.7,106.2,121.7z"/>
	<path id="XMLID_19_" class="st0" d="M130.3,140.1c-0.7,0-1.3-0.2-1.6-0.5c-0.3-0.3-0.5-0.9-0.5-1.6v-5.5c0-0.7,0.2-1.3,0.5-1.6
		c0.3-0.3,0.9-0.5,1.6-0.5h4.1v-14.7h-4.1c-0.7,0-1.3-0.2-1.6-0.5c-0.3-0.3-0.5-0.9-0.5-1.6v-5.6c0-0.7,0.2-1.3,0.5-1.6
		c0.3-0.3,0.9-0.5,1.6-0.5h19.8c0.7,0,1.3,0.2,1.6,0.5c0.3,0.3,0.5,0.9,0.5,1.6v5.6c0,0.7-0.2,1.3-0.5,1.6c-0.3,0.3-0.9,0.5-1.6,0.5
		h-4.1v14.7h4.1c0.7,0,1.3,0.2,1.6,0.5c0.3,0.3,0.5,0.9,0.5,1.6v5.5c0,0.7-0.2,1.3-0.5,1.6c-0.3,0.3-0.9,0.5-1.6,0.5H130.3z
		 M130.3,139.7h19.8c0.6,0,1-0.1,1.3-0.4c0.3-0.3,0.4-0.7,0.4-1.3v-5.5c0-0.6-0.1-1-0.4-1.3c-0.3-0.3-0.7-0.4-1.3-0.4h-4.5v-15.7
		h4.5c0.6,0,1-0.1,1.3-0.4c0.3-0.3,0.4-0.7,0.4-1.3v-5.6c0-0.6-0.1-1-0.4-1.3c-0.3-0.3-0.7-0.4-1.3-0.4h-19.8c-0.6,0-1,0.1-1.3,0.4
		c-0.3,0.3-0.4,0.7-0.4,1.3v5.6c0,0.6,0.1,1,0.4,1.3c0.3,0.3,0.7,0.4,1.3,0.4h4.6v15.7h-4.6c-0.6,0-1,0.1-1.3,0.4
		c-0.3,0.3-0.4,0.7-0.4,1.3v5.5c0,0.6,0.1,1,0.4,1.3C129.3,139.5,129.7,139.7,130.3,139.7z M147.6,135.5h-14.8V135h7.2v-24.2h-7.2
		v-0.5h14.8v0.5h-7.1V135h7.1V135.5z"/>
	<path id="XMLID_23_" class="st0" d="M166.2,140.1h-7c-0.7,0-1.3-0.2-1.6-0.5c-0.3-0.3-0.5-0.9-0.5-1.6v-30.2c0-0.7,0.2-1.3,0.5-1.6
		c0.3-0.3,0.9-0.5,1.6-0.5h4.8c0.7,0,1.3,0.1,1.7,0.3c0.5,0.2,0.9,0.6,1.4,1.1l8.2,9.4v-8.6c0-0.7,0.2-1.3,0.5-1.6
		c0.3-0.3,0.9-0.5,1.6-0.5h7c0.7,0,1.3,0.2,1.6,0.5c0.3,0.3,0.5,0.9,0.5,1.6V138c0,0.7-0.2,1.3-0.5,1.6c-0.3,0.3-0.9,0.5-1.6,0.5h-7
		c-0.7,0-1.3-0.2-1.6-0.5c-0.3-0.3-0.5-0.9-0.5-1.6v-5.5l-7-8.5V138c0,0.7-0.2,1.3-0.5,1.6C167.5,140,166.9,140.1,166.2,140.1z
		 M166.2,139.7c0.6,0,1-0.1,1.3-0.4c0.3-0.3,0.4-0.7,0.4-1.3v-15.4l8,9.6v5.7c0,0.6,0.1,1,0.4,1.3c0.3,0.3,0.7,0.4,1.3,0.4h7
		c0.6,0,1-0.1,1.3-0.4c0.3-0.3,0.4-0.7,0.4-1.3v-30.2c0-0.6-0.1-1-0.4-1.3c-0.3-0.3-0.7-0.4-1.3-0.4h-7c-0.6,0-1,0.1-1.3,0.4
		c-0.3,0.3-0.4,0.7-0.4,1.3v9.9l-9-10.3c-0.4-0.5-0.8-0.8-1.2-1c-0.4-0.2-0.9-0.3-1.5-0.3h-4.8c-0.6,0-1,0.1-1.3,0.4
		c-0.3,0.3-0.4,0.7-0.4,1.3V138c0,0.6,0.1,1,0.4,1.3c0.3,0.3,0.7,0.4,1.3,0.4H166.2z M163.7,110.7l17.1,19.3v-19.7h0.5v25.2h-0.5
		v-4.8l-17.6-19.8c0,0-0.1-0.1-0.1-0.1c0,0-0.1,0-0.1,0c0,0-0.1,0-0.1,0c0,0,0,0.1,0,0.1v24.5h-0.5v-24.6c0-0.2,0.1-0.3,0.2-0.4
		c0.1-0.1,0.2-0.1,0.4-0.1c0.1,0,0.2,0,0.3,0.1C163.4,110.4,163.5,110.5,163.7,110.7z"/>
	<path id="XMLID_27_" class="st0" d="M203.6,140.1c-4.1,0-7.1-0.8-9-2.5c-1.9-1.6-2.9-4.1-2.9-7.5v-14.5c0-3.4,1-5.9,2.9-7.5
		c1.9-1.6,4.9-2.5,9-2.5h11.6c0.7,0,1.3,0.2,1.6,0.5c0.3,0.3,0.5,0.9,0.5,1.6v5.6c0,0.7-0.2,1.3-0.5,1.6c-0.3,0.3-0.9,0.5-1.6,0.5
		h-9.7c-0.8,0-1.4,0.1-1.8,0.4c-0.4,0.3-0.6,0.8-0.6,1.4v11.1c0,0.6,0.1,1.1,0.4,1.4c0.3,0.3,0.7,0.4,1.3,0.4h4.1v-6.8
		c0-0.7,0.2-1.3,0.5-1.6c0.3-0.3,0.9-0.5,1.6-0.5h7.2c0.7,0,1.3,0.2,1.6,0.5c0.3,0.3,0.5,0.9,0.5,1.6V138c0,0.7-0.2,1.3-0.5,1.6
		c-0.3,0.3-0.9,0.5-1.6,0.5H203.6z M218.2,139.7c0.6,0,1-0.1,1.3-0.4c0.3-0.3,0.4-0.7,0.4-1.3v-14.4c0-0.6-0.1-1-0.4-1.3
		c-0.3-0.3-0.7-0.4-1.3-0.4H211c-0.6,0-1,0.1-1.3,0.4c-0.3,0.3-0.4,0.7-0.4,1.3v7.3h-4.5c-0.7,0-1.3-0.2-1.6-0.6
		c-0.4-0.4-0.5-0.9-0.5-1.7v-11.1c0-0.8,0.2-1.4,0.7-1.7c0.5-0.4,1.2-0.6,2.1-0.6h9.7c0.6,0,1-0.1,1.3-0.4c0.3-0.3,0.4-0.7,0.4-1.3
		v-5.6c0-0.6-0.1-1-0.4-1.3c-0.3-0.3-0.7-0.4-1.3-0.4h-11.6c-3.9,0-6.8,0.8-8.6,2.3c-1.9,1.6-2.8,3.9-2.8,7.2v14.5
		c0,3.2,0.9,5.6,2.8,7.2c1.9,1.6,4.8,2.3,8.6,2.3H218.2z M205.6,135.5c-1.7,0-3.1-0.1-4.2-0.3c-1.1-0.2-1.9-0.6-2.6-1
		c-0.6-0.5-1-1.1-1.3-1.9c-0.2-0.8-0.3-1.7-0.3-2.8v-13c0-2.2,0.5-3.8,1.5-4.7c1-0.9,3-1.4,6-1.4h8.1v0.5h-8.1
		c-2.7,0-4.6,0.4-5.5,1.3c-1,0.9-1.4,2.3-1.4,4.4v13c0,2,0.5,3.4,1.6,4.3c1.1,0.8,3.2,1.3,6.3,1.3h8.8v-8.9h0.5v9.4H205.6z"/>
	<path id="XMLID_31_" class="st0" d="M261.7,131.5c0,2.8-0.9,4.9-2.7,6.4c-1.8,1.5-4.3,2.2-7.4,2.2h-14.7c-0.7,0-1.3-0.2-1.6-0.5
		c-0.3-0.3-0.5-0.9-0.5-1.6v-5.5c0-0.7,0.2-1.3,0.5-1.6c0.3-0.3,0.9-0.5,1.6-0.5h12.5c0.2,0,0.4-0.1,0.6-0.3
		c0.1-0.2,0.2-0.4,0.2-0.6c0-0.3-0.1-0.6-0.2-0.8c-0.1-0.2-0.3-0.3-0.6-0.3l-7-1c-2.3-0.3-4.2-1.1-5.6-2.3c-1.4-1.2-2.1-3.2-2.1-5.9
		v-4.9c0-2.8,0.9-4.9,2.7-6.4c1.8-1.5,4.3-2.2,7.4-2.2h13c0.7,0,1.3,0.2,1.6,0.5c0.3,0.3,0.5,0.9,0.5,1.6v5.5c0,0.7-0.2,1.3-0.5,1.6
		c-0.3,0.3-0.9,0.5-1.6,0.5h-10.9c-0.2,0-0.4,0.1-0.6,0.3s-0.2,0.4-0.2,0.7c0,0.3,0.1,0.5,0.2,0.7c0.1,0.2,0.3,0.3,0.6,0.3l6.9,0.9
		c2.3,0.3,4.2,1.1,5.6,2.3c1.4,1.2,2.1,3.2,2.1,5.9V131.5z M251.6,139.7c3,0,5.3-0.7,7.1-2.1c1.7-1.4,2.6-3.4,2.6-6.1v-4.9
		c0-2.6-0.7-4.5-2-5.6c-1.3-1.1-3.1-1.8-5.3-2.1l-6.9-0.9c-0.4,0-0.7-0.2-0.9-0.5c-0.2-0.3-0.3-0.6-0.3-1c0-0.4,0.1-0.7,0.3-1
		c0.2-0.3,0.5-0.4,0.9-0.4h10.9c0.6,0,1-0.1,1.3-0.4c0.3-0.3,0.4-0.7,0.4-1.3v-5.5c0-0.6-0.1-1-0.4-1.3c-0.3-0.3-0.7-0.4-1.3-0.4
		h-13c-3,0-5.4,0.7-7.1,2.1c-1.7,1.4-2.6,3.4-2.6,6.1v4.9c0,2.6,0.7,4.5,2,5.6c1.3,1.1,3.1,1.8,5.2,2.1l7,1c0.4,0,0.7,0.2,0.9,0.4
		c0.2,0.2,0.3,0.6,0.3,1.2c0,0.4-0.1,0.7-0.3,1c-0.2,0.3-0.5,0.4-0.9,0.4h-12.5c-0.6,0-1,0.1-1.3,0.4c-0.3,0.3-0.4,0.7-0.4,1.3v5.5
		c0,0.6,0.1,1,0.4,1.3c0.3,0.3,0.7,0.4,1.3,0.4H251.6z M255.4,110.3v0.5h-10.3c-1.3,0-2.3,0.4-3.1,1.1c-0.8,0.7-1.2,1.6-1.2,2.7v3.8
		c0,1.1,0.2,1.8,0.7,2.3c0.4,0.4,1,0.7,1.7,0.8l9.8,2c0.9,0.2,1.7,0.6,2.3,1.2c0.6,0.6,0.9,1.7,0.9,3.4v2.7c0,1.4-0.5,2.5-1.4,3.4
		c-0.9,0.9-2.2,1.3-3.8,1.3h-11.6V135H251c1.4,0,2.6-0.4,3.4-1.2c0.9-0.8,1.3-1.8,1.3-3.1v-2.7c0-1.5-0.3-2.5-0.8-3
		c-0.5-0.5-1.2-0.9-2.1-1.1l-9.8-2c-0.8-0.2-1.5-0.5-2-1c-0.5-0.5-0.8-1.4-0.8-2.6v-3.8c0-1.2,0.4-2.3,1.3-3.1
		c0.9-0.8,2-1.2,3.4-1.2H255.4z"/>
	<path id="XMLID_35_" class="st0" d="M295.2,115v15.9c0,1.5-0.2,2.8-0.6,4c-0.4,1.2-1.2,2.3-2.3,3.1c-1.1,0.9-2.6,1.6-4.6,2
		c-1.9,0.5-4.4,0.7-7.5,0.7c-3,0-5.5-0.2-7.5-0.7c-1.9-0.5-3.5-1.2-4.6-2c-1.1-0.9-1.9-1.9-2.3-3.1c-0.4-1.2-0.6-2.6-0.6-4V115
		c0-1.5,0.2-2.8,0.6-4c0.4-1.2,1.2-2.3,2.3-3.2c1.1-0.9,2.6-1.6,4.6-2.1c1.9-0.5,4.4-0.7,7.5-0.7c3,0,5.5,0.2,7.5,0.7
		c1.9,0.5,3.5,1.2,4.6,2.1c1.1,0.9,1.9,1.9,2.3,3.2C295,112.2,295.2,113.5,295.2,115z M294.8,130.9V115c0-1.4-0.2-2.7-0.6-3.9
		c-0.4-1.2-1.2-2.2-2.2-3c-1.1-0.8-2.5-1.5-4.4-2c-1.9-0.5-4.3-0.7-7.2-0.7c-2.9,0-5.3,0.2-7.2,0.7c-1.9,0.5-3.4,1.1-4.4,2
		c-1.1,0.8-1.8,1.8-2.2,3c-0.4,1.2-0.6,2.5-0.6,3.9v15.9c0,1.4,0.2,2.7,0.6,3.9c0.4,1.2,1.2,2.2,2.2,3c1.1,0.8,2.6,1.5,4.4,1.9
		c1.9,0.5,4.3,0.7,7.2,0.7c2.9,0,5.3-0.2,7.2-0.7c1.9-0.5,3.4-1.1,4.4-1.9c1.1-0.8,1.8-1.8,2.2-3
		C294.6,133.6,294.8,132.3,294.8,130.9z M289.7,129.8c0,1.9-0.7,3.4-2,4.5c-1.3,1.2-3.8,1.7-7.5,1.7c-3.6,0-6.1-0.6-7.4-1.7
		c-1.3-1.2-2-2.7-2-4.5V116c0-1.9,0.7-3.4,2-4.5c1.3-1.2,3.8-1.7,7.4-1.7c3.6,0,6.1,0.6,7.5,1.7c1.3,1.2,2,2.7,2,4.5V129.8z
		 M271.3,129.8c0,1.7,0.6,3.1,1.9,4.2c1.2,1.1,3.6,1.6,7,1.6s5.8-0.5,7.1-1.6c1.3-1.1,1.9-2.5,1.9-4.2V116c0-1.7-0.6-3.1-1.9-4.2
		c-1.3-1.1-3.6-1.6-7.1-1.6s-5.8,0.5-7,1.6c-1.2,1.1-1.9,2.5-1.9,4.2V129.8z M276.4,129.2v-12.5c0-0.6,0.2-1.1,0.7-1.5
		c0.5-0.4,1.5-0.6,3.2-0.6c1.7,0,2.7,0.2,3.2,0.6c0.5,0.4,0.7,0.9,0.7,1.5v12.5c0,0.6-0.2,1.1-0.7,1.6c-0.5,0.4-1.5,0.6-3.2,0.6
		c-1.7,0-2.7-0.2-3.2-0.6C276.6,130.3,276.4,129.8,276.4,129.2z M276.9,116.7v12.5c0,0.6,0.2,1,0.7,1.3c0.5,0.3,1.4,0.4,2.7,0.4
		c1.3,0,2.2-0.1,2.7-0.4c0.5-0.3,0.7-0.7,0.7-1.3v-12.5c0-0.5-0.2-0.9-0.7-1.2c-0.5-0.3-1.4-0.4-2.7-0.4c-1.3,0-2.2,0.1-2.7,0.4
		C277.1,115.7,276.9,116.1,276.9,116.7z"/>
	<path id="XMLID_42_" class="st0" d="M329.6,115v15.9c0,1.5-0.2,2.8-0.6,4c-0.4,1.2-1.2,2.3-2.3,3.1c-1.1,0.9-2.6,1.6-4.6,2
		c-1.9,0.5-4.4,0.7-7.5,0.7c-3,0-5.5-0.2-7.5-0.7c-1.9-0.5-3.5-1.2-4.6-2c-1.1-0.9-1.9-1.9-2.3-3.1c-0.4-1.2-0.6-2.6-0.6-4V115
		c0-1.5,0.2-2.8,0.6-4c0.4-1.2,1.2-2.3,2.3-3.2c1.1-0.9,2.6-1.6,4.6-2.1c1.9-0.5,4.4-0.7,7.5-0.7c3,0,5.5,0.2,7.5,0.7
		c1.9,0.5,3.5,1.2,4.6,2.1c1.1,0.9,1.9,1.9,2.3,3.2C329.4,112.2,329.6,113.5,329.6,115z M329.1,130.9V115c0-1.4-0.2-2.7-0.6-3.9
		c-0.4-1.2-1.2-2.2-2.2-3c-1.1-0.8-2.5-1.5-4.4-2c-1.9-0.5-4.3-0.7-7.2-0.7c-2.9,0-5.3,0.2-7.2,0.7c-1.9,0.5-3.4,1.1-4.4,2
		c-1.1,0.8-1.8,1.8-2.2,3c-0.4,1.2-0.6,2.5-0.6,3.9v15.9c0,1.4,0.2,2.7,0.6,3.9c0.4,1.2,1.2,2.2,2.2,3c1.1,0.8,2.6,1.5,4.4,1.9
		c1.9,0.5,4.3,0.7,7.2,0.7c2.9,0,5.3-0.2,7.2-0.7c1.9-0.5,3.4-1.1,4.4-1.9c1.1-0.8,1.8-1.8,2.2-3
		C328.9,133.6,329.1,132.3,329.1,130.9z M324,129.8c0,1.9-0.7,3.4-2,4.5c-1.3,1.2-3.8,1.7-7.5,1.7c-3.6,0-6.1-0.6-7.4-1.7
		c-1.3-1.2-2-2.7-2-4.5V116c0-1.9,0.7-3.4,2-4.5c1.3-1.2,3.8-1.7,7.4-1.7c3.6,0,6.1,0.6,7.5,1.7c1.3,1.2,2,2.7,2,4.5V129.8z
		 M305.7,129.8c0,1.7,0.6,3.1,1.9,4.2c1.2,1.1,3.6,1.6,7,1.6c3.4,0,5.8-0.5,7.1-1.6c1.3-1.1,1.9-2.5,1.9-4.2V116
		c0-1.7-0.6-3.1-1.9-4.2c-1.3-1.1-3.6-1.6-7.1-1.6c-3.4,0-5.8,0.5-7,1.6c-1.2,1.1-1.9,2.5-1.9,4.2V129.8z M310.7,129.2v-12.5
		c0-0.6,0.2-1.1,0.7-1.5c0.5-0.4,1.5-0.6,3.2-0.6c1.7,0,2.7,0.2,3.2,0.6c0.5,0.4,0.7,0.9,0.7,1.5v12.5c0,0.6-0.2,1.1-0.7,1.6
		c-0.5,0.4-1.5,0.6-3.2,0.6c-1.7,0-2.7-0.2-3.2-0.6C311,130.3,310.7,129.8,310.7,129.2z M311.2,116.7v12.5c0,0.6,0.2,1,0.7,1.3
		c0.5,0.3,1.4,0.4,2.7,0.4c1.3,0,2.2-0.1,2.7-0.4c0.5-0.3,0.7-0.7,0.7-1.3v-12.5c0-0.5-0.2-0.9-0.7-1.2c-0.5-0.3-1.4-0.4-2.7-0.4
		c-1.3,0-2.2,0.1-2.7,0.4C311.5,115.7,311.2,116.1,311.2,116.7z"/>
	<path id="XMLID_49_" class="st0" d="M343.7,140.1h-7c-0.7,0-1.3-0.2-1.6-0.5c-0.3-0.3-0.5-0.9-0.5-1.6v-30.2c0-0.7,0.2-1.3,0.5-1.6
		c0.3-0.3,0.9-0.5,1.6-0.5h4.8c0.7,0,1.3,0.1,1.7,0.3c0.5,0.2,0.9,0.6,1.4,1.1l8.2,9.4v-8.6c0-0.7,0.2-1.3,0.5-1.6
		c0.3-0.3,0.9-0.5,1.6-0.5h7c0.7,0,1.3,0.2,1.6,0.5c0.3,0.3,0.5,0.9,0.5,1.6V138c0,0.7-0.2,1.3-0.5,1.6c-0.3,0.3-0.9,0.5-1.6,0.5h-7
		c-0.7,0-1.3-0.2-1.6-0.5c-0.3-0.3-0.5-0.9-0.5-1.6v-5.5l-7-8.5V138c0,0.7-0.2,1.3-0.5,1.6C345,140,344.4,140.1,343.7,140.1z
		 M343.7,139.7c0.6,0,1-0.1,1.3-0.4c0.3-0.3,0.4-0.7,0.4-1.3v-15.4l8,9.6v5.7c0,0.6,0.1,1,0.4,1.3c0.3,0.3,0.7,0.4,1.3,0.4h7
		c0.6,0,1-0.1,1.3-0.4c0.3-0.3,0.4-0.7,0.4-1.3v-30.2c0-0.6-0.1-1-0.4-1.3c-0.3-0.3-0.7-0.4-1.3-0.4h-7c-0.6,0-1,0.1-1.3,0.4
		c-0.3,0.3-0.4,0.7-0.4,1.3v9.9l-9-10.3c-0.4-0.5-0.8-0.8-1.2-1c-0.4-0.2-0.9-0.3-1.5-0.3h-4.8c-0.6,0-1,0.1-1.3,0.4
		c-0.3,0.3-0.4,0.7-0.4,1.3V138c0,0.6,0.1,1,0.4,1.3c0.3,0.3,0.7,0.4,1.3,0.4H343.7z M341.2,110.7l17.1,19.3v-19.7h0.5v25.2h-0.5
		v-4.8l-17.6-19.8c0,0-0.1-0.1-0.1-0.1c0,0-0.1,0-0.1,0c0,0-0.1,0-0.1,0c0,0,0,0.1,0,0.1v24.5h-0.5v-24.6c0-0.2,0.1-0.3,0.2-0.4
		c0.1-0.1,0.2-0.1,0.4-0.1c0.1,0,0.2,0,0.3,0.1C340.9,110.4,341,110.5,341.2,110.7z"/>
</g>
</svg>
