<?xml version="1.0" encoding="utf-8"?>
<!-- Generator: Adobe Illustrator 19.0.0, SVG Export Plug-In . SVG Version: 6.00 Build 0)  -->
<svg version="1.1" id="Layer_1" xmlns="http://www.w3.org/2000/svg" xmlns:xlink="http://www.w3.org/1999/xlink" x="0px" y="0px"
	 viewBox="0 0 1920 1080" style="enable-background:new 0 0 1920 1080;" xml:space="preserve">
<style type="text/css">
	.st0{fill:none;stroke:#FFFFFF;stroke-width:5;}
</style>
<g id="XMLID_2_">
	<image style="overflow:visible;" width="1920" height="1080" id="XMLID_1_" xlink:href="background-comingsoon-.png" >
	</image>
	<g id="XMLID_3_">
		<path id="XMLID_4_" class="st0" d="M349.5,538c0,3.2-0.7,5.5-2.2,6.9c-1.5,1.5-3.8,2.2-6.9,2.2h-48.3c-17.3,0-30.1-3.5-38.3-10.5
			c-8.3-7-12.4-17.6-12.4-31.9v-61.6c0-14.4,4.1-25.1,12.4-32.1c8.2-7,21-10.5,38.3-10.5h48.3c3.2,0,5.5,0.7,6.9,2.2
			c1.5,1.5,2.2,3.8,2.2,6.9v24c0,3.2-0.7,5.5-2.2,6.9c-1.5,1.5-3.8,2.2-6.9,2.2h-39.8c-3.3,0-5.8,0.6-7.5,1.9
			c-1.7,1.3-2.6,3.3-2.6,6v47.1c0,2.8,0.9,4.7,2.6,5.8c1.7,1.1,4.2,1.7,7.5,1.7h39.8c3.2,0,5.5,0.7,6.9,2.2c1.5,1.5,2.2,3.8,2.2,6.9
			V538z M340.4,545.1c2.5,0,4.3-0.6,5.4-1.7c1.1-1.1,1.7-2.9,1.7-5.4v-23.6c0-2.5-0.6-4.3-1.7-5.4c-1.1-1.1-2.9-1.7-5.4-1.7h-39.8
			c-4.1,0-7.1-0.8-9.1-2.3c-2-1.5-3-3.9-3-7.2v-47.1c0-3.3,1-5.8,3-7.4c2-1.6,5-2.5,9.1-2.5h39.8c2.5,0,4.3-0.6,5.4-1.7
			c1.1-1.1,1.7-2.9,1.7-5.4v-24c0-2.5-0.6-4.3-1.7-5.4c-1.1-1.1-2.9-1.7-5.4-1.7h-48.3c-16.5,0-28.7,3.3-36.7,10
			c-8,6.7-12,16.9-12,30.6v61.6c0,13.7,4,23.9,12,30.5c8,6.6,20.2,9.9,36.7,9.9H340.4z M329.5,525.3v2h-33.1
			c-12.8,0-21.3-2-25.4-5.9c-4.2-4-6.2-10.5-6.2-19.6v-55.4c0-9.4,2.1-16,6.3-20c4.2-4,12.7-5.9,25.3-5.9h33.1v2h-33.1
			c-11.6,0-19.5,1.8-23.6,5.4c-4.1,3.6-6.1,9.8-6.1,18.5v55.4c0,8.6,2,14.7,5.9,18.2s11.9,5.3,23.8,5.3H329.5z"/>
		<path id="XMLID_8_" class="st0" d="M491.7,440.2v67.5c0,6.2-0.9,11.9-2.6,17.1c-1.7,5.2-4.9,9.7-9.6,13.4
			c-4.7,3.7-11.2,6.6-19.4,8.7c-8.3,2.1-18.8,3.2-31.8,3.2c-12.9,0-23.5-1.1-31.8-3.2c-8.3-2.1-14.7-5-19.4-8.7
			c-4.7-3.7-7.9-8.1-9.7-13.4c-1.8-5.2-2.7-10.9-2.7-17.1v-67.5c0-6.2,0.9-11.9,2.7-17.1c1.8-5.2,5-9.7,9.7-13.5
			c4.7-3.8,11.2-6.7,19.4-8.8c8.2-2.1,18.8-3.2,31.8-3.2c12.9,0,23.5,1.1,31.8,3.2c8.2,2.1,14.7,5,19.4,8.8
			c4.7,3.8,7.9,8.3,9.6,13.5C490.8,428.2,491.7,433.9,491.7,440.2z M489.7,507.7v-67.5c0-6.1-0.9-11.6-2.7-16.5
			c-1.8-4.9-5-9.2-9.5-12.8c-4.6-3.6-10.8-6.3-18.8-8.3c-8-2-18.1-3-30.4-3s-22.4,1-30.5,3c-8.1,2-14.4,4.8-18.9,8.3
			c-4.6,3.6-7.7,7.8-9.5,12.8c-1.8,5-2.7,10.5-2.7,16.5v67.5c0,6.1,0.9,11.6,2.7,16.5c1.8,5,4.9,9.2,9.5,12.7
			c4.6,3.5,10.9,6.2,18.9,8.2c8.1,2,18.2,3,30.5,3s22.4-1,30.4-3c8-2,14.3-4.7,18.8-8.2c4.6-3.5,7.7-7.7,9.5-12.7
			C488.8,519.3,489.7,513.7,489.7,507.7z M468.1,503.1c0,7.9-2.8,14.4-8.5,19.3c-5.7,4.9-16.2,7.4-31.7,7.4s-25.9-2.5-31.5-7.4
			c-5.5-5-8.3-11.4-8.3-19.3v-58.4c0-7.9,2.8-14.4,8.3-19.3c5.5-5,16-7.4,31.5-7.4s26,2.5,31.7,7.4c5.7,4.9,8.5,11.4,8.5,19.3V503.1
			z M390.1,503.1c0,7.4,2.6,13.4,7.9,17.9c5.3,4.6,15.2,6.8,29.9,6.8s24.7-2.3,30.1-6.8c5.4-4.6,8.1-10.5,8.1-17.9v-58.4
			c0-7.4-2.7-13.4-8.1-17.9c-5.4-4.6-15.4-6.8-30.1-6.8s-24.6,2.3-29.9,6.8c-5.3,4.6-7.9,10.5-7.9,17.9V503.1z M411.7,500.5v-53.3
			c0-2.5,1-4.7,3-6.4c2-1.8,6.5-2.7,13.7-2.7s11.7,0.9,13.7,2.7c2,1.8,3,3.9,3,6.4v53.3c0,2.6-1,4.9-3,6.6s-6.5,2.7-13.7,2.7
			s-11.7-0.9-13.7-2.7S411.7,503.2,411.7,500.5z M413.7,447.3v53.3c0,2.4,1,4.2,3.1,5.4c2,1.3,5.9,1.9,11.6,1.9
			c5.7,0,9.5-0.6,11.6-1.9c2-1.3,3.1-3.1,3.1-5.4v-53.3c0-2.2-1-4-3.1-5.2c-2-1.3-5.9-1.9-11.6-1.9c-5.5,0-9.4,0.6-11.5,1.9
			C414.7,443.3,413.7,445,413.7,447.3z"/>
		<path id="XMLID_15_" class="st0" d="M551.5,547.1H522c-3.2,0-5.5-0.7-6.9-2.2c-1.5-1.5-2.2-3.8-2.2-6.9V409.7
			c0-3.2,0.7-5.5,2.2-6.9c1.5-1.5,3.8-2.2,6.9-2.2h31.9c2.5,0,4.6,0.5,6.2,1.6c1.6,1.1,3.2,2.8,4.7,5.3l17.8,32.3
			c0.3,0.5,0.5,1.1,0.7,1.6c0.2,0.5,0.6,0.8,1.1,0.8h1.8c0.5,0,0.9-0.3,1.1-0.8c0.2-0.5,0.4-1.1,0.7-1.6l17.6-32.3
			c1.5-2.5,3-4.3,4.7-5.3c1.6-1.1,3.7-1.6,6.2-1.6h32.1c3.2,0,5.5,0.7,6.9,2.2c1.5,1.5,2.2,3.8,2.2,6.9V538c0,3.2-0.7,5.5-2.2,6.9
			c-1.5,1.5-3.8,2.2-6.9,2.2H618c-3.3,0-5.6-0.7-7-2.2c-1.4-1.5-2.1-3.8-2.1-6.9v-61.8l-7.9,14.7c-1.3,2.5-3,4.4-5,5.5
			s-4.4,1.8-7.3,1.8h-7.9c-2.9,0-5.3-0.6-7.3-1.8s-3.6-3-5-5.5l-7.9-14.7V538c0,3.2-0.7,5.5-2.2,6.9
			C557,546.3,554.6,547.1,551.5,547.1z M551.5,545.1c2.5,0,4.3-0.6,5.4-1.7c1.1-1.1,1.7-2.9,1.7-5.4v-69.7l11.7,21.6
			c1.2,2.2,2.6,3.9,4.3,4.9c1.6,1,3.7,1.5,6.2,1.5h7.9c2.5,0,4.6-0.5,6.2-1.5c1.6-1,3.1-2.6,4.3-4.9l11.7-21.6V538
			c0,2.5,0.6,4.3,1.7,5.4c1.1,1.1,2.9,1.7,5.4,1.7h30.5c2.5,0,4.3-0.6,5.4-1.7c1.1-1.1,1.7-2.9,1.7-5.4V409.7c0-2.5-0.6-4.3-1.7-5.4
			c-1.1-1.1-2.9-1.7-5.4-1.7h-32.1c-2.1,0-3.9,0.5-5.2,1.4c-1.4,0.9-2.7,2.4-3.9,4.6l-17.6,32.3c-0.7,1.2-1.2,2-1.7,2.6
			c-0.5,0.5-1.1,0.8-1.9,0.8h-1.8c-0.8,0-1.4-0.3-1.9-0.8c-0.5-0.5-1-1.4-1.7-2.6L563,408.5c-1.2-2.1-2.5-3.6-3.9-4.6
			c-1.4-0.9-3.1-1.4-5.2-1.4H522c-2.5,0-4.3,0.6-5.4,1.7c-1.1,1.1-1.7,2.9-1.7,5.4V538c0,2.5,0.6,4.3,1.7,5.4
			c1.1,1.1,2.9,1.7,5.4,1.7H551.5z M584.5,468.9c2.4,0,4.1-0.5,5.1-1.6c1.1-1.1,2.7-3.3,5-6.7l24.2-36.8c0.8-1.3,1.7-2.2,2.7-2.7
			c1-0.5,2-0.7,3.1-0.7h3.4c1.8,0,3.2,0.5,4.1,1.5c0.9,1,1.3,2.5,1.3,4.7v100.8h-2V426.5c0-1.1-0.2-2-0.7-2.9
			c-0.5-0.9-1.4-1.3-2.7-1.3h-3c-0.9,0-1.7,0.1-2.4,0.4c-0.7,0.3-1.4,1.1-2.2,2.4l-24.2,36.4c-2.4,3.6-4.2,6-5.4,7.3
			c-1.3,1.3-3.3,2-6.2,2c-2.9,0-5-0.7-6.2-2c-1.3-1.3-3.1-3.8-5.4-7.3l-24.2-36.4c-0.8-1.3-1.6-2.1-2.3-2.4
			c-0.7-0.3-1.6-0.4-2.5-0.4h-3c-1.3,0-2.2,0.4-2.6,1.3c-0.4,0.9-0.6,1.8-0.6,2.9v100.8h-2V426.5c0-2.1,0.4-3.7,1.3-4.7
			c0.9-1,2.1-1.5,3.9-1.5h3.4c1.1,0,2.1,0.2,3.2,0.7c1.1,0.5,2,1.4,2.8,2.7l24.2,36.8c2.2,3.4,3.9,5.7,5,6.7
			C580.5,468.3,582.2,468.9,584.5,468.9z"/>
		<path id="XMLID_19_" class="st0" d="M686.9,547.1c-3.2,0-5.5-0.7-6.9-2.2c-1.5-1.5-2.2-3.8-2.2-6.9v-23.6c0-3.2,0.7-5.5,2.2-6.9
			c1.5-1.5,3.8-2.2,6.9-2.2h17.6v-62.6h-17.6c-3.2,0-5.5-0.7-6.9-2.2c-1.5-1.5-2.2-3.8-2.2-6.9v-24c0-3.2,0.7-5.5,2.2-6.9
			c1.5-1.5,3.8-2.2,6.9-2.2h84.3c3.2,0,5.5,0.7,6.9,2.2c1.5,1.5,2.2,3.8,2.2,6.9v24c0,3.2-0.7,5.5-2.2,6.9c-1.5,1.5-3.8,2.2-6.9,2.2
			H754v62.6h17.2c3.2,0,5.5,0.7,6.9,2.2c1.5,1.5,2.2,3.8,2.2,6.9V538c0,3.2-0.7,5.5-2.2,6.9c-1.5,1.5-3.8,2.2-6.9,2.2H686.9z
			 M686.9,545.1h84.3c2.5,0,4.3-0.6,5.4-1.7c1.1-1.1,1.7-2.9,1.7-5.4v-23.6c0-2.5-0.6-4.3-1.7-5.4c-1.1-1.1-2.9-1.7-5.4-1.7h-19.2
			v-66.5h19.2c2.5,0,4.3-0.6,5.4-1.7c1.1-1.1,1.7-2.9,1.7-5.4v-24c0-2.5-0.6-4.3-1.7-5.4c-1.1-1.1-2.9-1.7-5.4-1.7h-84.3
			c-2.5,0-4.3,0.6-5.4,1.7c-1.1,1.1-1.7,2.9-1.7,5.4v24c0,2.5,0.6,4.3,1.7,5.4c1.1,1.1,2.9,1.7,5.4,1.7h19.6v66.5h-19.6
			c-2.5,0-4.3,0.6-5.4,1.7c-1.1,1.1-1.7,2.9-1.7,5.4V538c0,2.5,0.6,4.3,1.7,5.4C682.6,544.5,684.4,545.1,686.9,545.1z M760.6,527.3
			h-63v-2h30.7v-103h-30.7v-2h63v2h-30.3v103h30.3V527.3z"/>
		<path id="XMLID_23_" class="st0" d="M839.6,547.1h-29.7c-3.2,0-5.5-0.7-6.9-2.2c-1.5-1.5-2.2-3.8-2.2-6.9V409.7
			c0-3.2,0.7-5.5,2.2-6.9c1.5-1.5,3.8-2.2,6.9-2.2h20.6c2.9,0,5.3,0.5,7.3,1.4c2,0.9,4,2.4,5.9,4.6l34.8,39.8v-36.6
			c0-3.2,0.7-5.5,2.2-6.9c1.5-1.5,3.8-2.2,6.9-2.2h29.7c3.2,0,5.5,0.7,6.9,2.2c1.5,1.5,2.2,3.8,2.2,6.9V538c0,3.2-0.7,5.5-2.2,6.9
			c-1.5,1.5-3.8,2.2-6.9,2.2h-29.7c-3.2,0-5.5-0.7-6.9-2.2c-1.5-1.5-2.2-3.8-2.2-6.9v-23.6l-29.9-36.2V538c0,3.2-0.7,5.5-2.2,6.9
			C845,546.3,842.7,547.1,839.6,547.1z M839.6,545.1c2.5,0,4.3-0.6,5.4-1.7c1.1-1.1,1.7-2.9,1.7-5.4v-65.3l33.9,41V538
			c0,2.5,0.6,4.3,1.7,5.4c1.1,1.1,2.9,1.7,5.4,1.7h29.7c2.5,0,4.3-0.6,5.4-1.7c1.1-1.1,1.7-2.9,1.7-5.4V409.7c0-2.5-0.6-4.3-1.7-5.4
			c-1.1-1.1-2.9-1.7-5.4-1.7h-29.7c-2.5,0-4.3,0.6-5.4,1.7c-1.1,1.1-1.7,2.9-1.7,5.4v42.2l-38.4-44c-1.7-2-3.5-3.4-5.2-4.2
			c-1.8-0.8-3.9-1.2-6.4-1.2h-20.6c-2.5,0-4.3,0.6-5.4,1.7c-1.1,1.1-1.7,2.9-1.7,5.4V538c0,2.5,0.6,4.3,1.7,5.4
			c1.1,1.1,2.9,1.7,5.4,1.7H839.6z M828.9,421.9l72.9,82v-83.6h2v106.9h-2v-20.4l-74.8-84c-0.1-0.1-0.3-0.3-0.5-0.4
			c-0.2-0.1-0.4-0.2-0.5-0.2c-0.1,0-0.2,0.1-0.3,0.2c-0.1,0.1-0.1,0.3-0.1,0.4v104.3h-2V422.5c0-0.8,0.3-1.4,0.8-1.8
			c0.5-0.4,1.1-0.6,1.6-0.6c0.5,0,1,0.1,1.4,0.4C827.7,420.8,828.2,421.3,828.9,421.9z"/>
		<path id="XMLID_27_" class="st0" d="M998.4,547.1c-17.3,0-30.1-3.5-38.3-10.5c-8.3-7-12.4-17.6-12.4-31.9v-61.8
			c0-14.3,4.1-24.9,12.4-31.9c8.2-7,21-10.5,38.3-10.5h49.5c3.2,0,5.5,0.7,6.9,2.2c1.5,1.5,2.2,3.8,2.2,6.9v24
			c0,3.2-0.7,5.5-2.2,6.9c-1.5,1.5-3.8,2.2-6.9,2.2h-41.2c-3.3,0-5.8,0.6-7.5,1.9c-1.7,1.3-2.6,3.3-2.6,6V498c0,2.6,0.6,4.6,1.7,5.8
			c1.1,1.3,2.9,1.9,5.4,1.9h17.2v-28.9c0-3.2,0.7-5.5,2.2-6.9c1.4-1.5,3.8-2.2,6.9-2.2h30.7c3.2,0,5.5,0.7,6.9,2.2
			c1.5,1.5,2.2,3.8,2.2,6.9V538c0,3.2-0.7,5.5-2.2,6.9c-1.5,1.5-3.8,2.2-6.9,2.2H998.4z M1060.7,545.1c2.5,0,4.3-0.6,5.4-1.7
			c1.1-1.1,1.7-2.9,1.7-5.4v-61.2c0-2.5-0.6-4.3-1.7-5.4c-1.1-1.1-2.9-1.7-5.4-1.7H1030c-2.5,0-4.3,0.6-5.4,1.7
			c-1.1,1.1-1.7,2.9-1.7,5.4v30.9h-19.2c-3,0-5.3-0.8-6.8-2.4c-1.5-1.6-2.3-4-2.3-7.3v-47.3c0-3.3,1-5.8,3-7.4c2-1.6,5-2.5,9.1-2.5
			h41.2c2.5,0,4.3-0.6,5.4-1.7c1.1-1.1,1.7-2.9,1.7-5.4v-24c0-2.5-0.6-4.3-1.7-5.4c-1.1-1.1-2.9-1.7-5.4-1.7h-49.5
			c-16.5,0-28.7,3.3-36.7,9.9c-8,6.6-12,16.8-12,30.5v61.8c0,13.7,4,23.9,12,30.5c8,6.6,20.2,9.9,36.7,9.9H1060.7z M1006.9,527.3
			c-7.3,0-13.2-0.5-17.8-1.4c-4.6-0.9-8.3-2.4-10.9-4.5c-2.6-2-4.5-4.7-5.4-7.9c-1-3.2-1.5-7.2-1.5-11.8v-55.4c0-9.4,2.1-16,6.3-20
			c4.2-4,12.7-5.9,25.3-5.9h34.3v2h-34.3c-11.6,0-19.5,1.8-23.6,5.4c-4.1,3.6-6.1,9.8-6.1,18.5v55.4c0,8.6,2.3,14.7,6.8,18.2
			c4.6,3.6,13.5,5.3,26.8,5.3h37.4v-37.8h2v39.8H1006.9z"/>
		<path id="XMLID_31_" class="st0" d="M1245.7,510.2c0,11.9-3.8,21-11.5,27.3c-7.7,6.3-18.2,9.5-31.5,9.5h-62.6
			c-3.2,0-5.5-0.7-6.9-2.2c-1.5-1.5-2.2-3.8-2.2-6.9v-23.2c0-3.2,0.7-5.5,2.2-6.9c1.5-1.5,3.8-2.2,6.9-2.2h53.3
			c1.1,0,1.8-0.4,2.4-1.2c0.5-0.8,0.8-1.6,0.8-2.6c0-1.5-0.3-2.6-0.8-3.4c-0.5-0.8-1.4-1.3-2.6-1.4l-29.7-4.2
			c-9.9-1.5-17.8-4.7-23.7-9.8c-5.9-5.1-8.8-13.4-8.8-25v-20.8c0-11.9,3.8-21,11.4-27.3c7.6-6.3,18.1-9.5,31.6-9.5h55.4
			c3.2,0,5.5,0.7,6.9,2.2c1.5,1.5,2.2,3.8,2.2,6.9v23.6c0,3.2-0.7,5.5-2.2,6.9c-1.5,1.5-3.8,2.2-6.9,2.2h-46.1
			c-1.1,0-1.9,0.4-2.5,1.2s-0.9,1.7-0.9,2.8c0,1.2,0.3,2.2,0.9,3s1.5,1.3,2.7,1.4l29.5,4c9.9,1.5,17.8,4.7,23.8,9.8
			c5.9,5.1,8.9,13.4,8.9,25V510.2z M1202.7,545.1c12.7,0,22.7-3,30-9c7.3-6,11-14.6,11-25.8v-20.8c0-11.1-2.8-19-8.5-23.8
			c-5.7-4.8-13.1-7.8-22.4-9.1l-29.5-4c-1.7-0.1-3-0.8-4-2c-0.9-1.2-1.4-2.6-1.4-4.4c0-1.7,0.5-3.1,1.4-4.3c0.9-1.1,2.2-1.7,4-1.7
			h46.1c2.5,0,4.3-0.6,5.4-1.7c1.1-1.1,1.7-2.9,1.7-5.4v-23.6c0-2.5-0.6-4.3-1.7-5.4c-1.1-1.1-2.9-1.7-5.4-1.7H1174
			c-12.8,0-22.8,3-30.1,9c-7.3,6-10.9,14.6-10.9,25.8v20.8c0,11.1,2.8,19,8.4,23.8c5.6,4.8,13,7.8,22.3,9.1l29.7,4.2
			c1.7,0.1,3,0.7,3.9,1.8c0.9,1.1,1.3,2.7,1.3,4.9c0,1.6-0.4,2.9-1.3,4.1c-0.9,1.1-2.1,1.7-3.9,1.7h-53.3c-2.5,0-4.3,0.6-5.4,1.7
			c-1.1,1.1-1.7,2.9-1.7,5.4V538c0,2.5,0.6,4.3,1.7,5.4c1.1,1.1,2.9,1.7,5.4,1.7H1202.7z M1218.7,420.4v2h-44
			c-5.5,0-10,1.5-13.3,4.6c-3.3,3-5,6.9-5,11.5v16.2c0,4.6,0.9,7.9,2.8,9.7c1.8,1.9,4.3,3,7.3,3.6l41.8,8.5c4,0.8,7.2,2.5,9.8,5.1
			c2.6,2.6,3.9,7.4,3.9,14.3v11.5c0,5.8-2,10.6-5.9,14.4c-4,3.8-9.3,5.6-16,5.6h-49.3v-2h49.3c6.1,0,10.9-1.7,14.6-5
			c3.6-3.4,5.4-7.7,5.4-13v-11.5c0-6.2-1.1-10.5-3.3-12.8c-2.2-2.3-5.1-3.9-8.8-4.7l-41.8-8.5c-3.4-0.7-6.2-2-8.4-4.1
			c-2.2-2-3.3-5.8-3.3-11.2v-16.2c0-5.3,1.8-9.6,5.5-13c3.7-3.4,8.6-5,14.7-5H1218.7z"/>
		<path id="XMLID_35_" class="st0" d="M1388,440.2v67.5c0,6.2-0.9,11.9-2.6,17.1c-1.7,5.2-4.9,9.7-9.6,13.4
			c-4.7,3.7-11.2,6.6-19.4,8.7c-8.3,2.1-18.8,3.2-31.8,3.2c-12.9,0-23.5-1.1-31.8-3.2c-8.3-2.1-14.7-5-19.4-8.7
			c-4.7-3.7-7.9-8.1-9.7-13.4c-1.8-5.2-2.7-10.9-2.7-17.1v-67.5c0-6.2,0.9-11.9,2.7-17.1c1.8-5.2,5-9.7,9.7-13.5
			c4.7-3.8,11.2-6.7,19.4-8.8c8.2-2.1,18.8-3.2,31.8-3.2c12.9,0,23.5,1.1,31.8,3.2c8.2,2.1,14.7,5,19.4,8.8
			c4.7,3.8,7.9,8.3,9.6,13.5C1387.2,428.2,1388,433.9,1388,440.2z M1386,507.7v-67.5c0-6.1-0.9-11.6-2.7-16.5
			c-1.8-4.9-4.9-9.2-9.5-12.8c-4.6-3.6-10.8-6.3-18.8-8.3c-8-2-18.1-3-30.4-3c-12.3,0-22.4,1-30.5,3c-8.1,2-14.4,4.8-18.9,8.3
			s-7.7,7.8-9.5,12.8c-1.8,5-2.7,10.5-2.7,16.5v67.5c0,6.1,0.9,11.6,2.7,16.5c1.8,5,5,9.2,9.5,12.7c4.6,3.5,10.9,6.2,18.9,8.2
			c8,2,18.2,3,30.5,3c12.3,0,22.4-1,30.4-3c8-2,14.3-4.7,18.8-8.2c4.6-3.5,7.7-7.7,9.5-12.7C1385.2,519.3,1386,513.7,1386,507.7z
			 M1364.5,503.1c0,7.9-2.8,14.4-8.5,19.3c-5.7,4.9-16.2,7.4-31.7,7.4s-25.9-2.5-31.5-7.4c-5.5-5-8.3-11.4-8.3-19.3v-58.4
			c0-7.9,2.8-14.4,8.3-19.3c5.5-5,16-7.4,31.5-7.4s26,2.5,31.7,7.4c5.7,4.9,8.5,11.4,8.5,19.3V503.1z M1286.4,503.1
			c0,7.4,2.6,13.4,7.9,17.9c5.3,4.6,15.2,6.8,29.9,6.8s24.7-2.3,30.1-6.8c5.4-4.6,8.1-10.5,8.1-17.9v-58.4c0-7.4-2.7-13.4-8.1-17.9
			c-5.4-4.6-15.4-6.8-30.1-6.8s-24.6,2.3-29.9,6.8c-5.3,4.6-7.9,10.5-7.9,17.9V503.1z M1308,500.5v-53.3c0-2.5,1-4.7,3-6.4
			c2-1.8,6.5-2.7,13.7-2.7c7.1,0,11.7,0.9,13.7,2.7c2,1.8,3,3.9,3,6.4v53.3c0,2.6-1,4.9-3,6.6c-2,1.8-6.5,2.7-13.7,2.7
			c-7.1,0-11.7-0.9-13.7-2.7C1309,505.4,1308,503.2,1308,500.5z M1310,447.3v53.3c0,2.4,1,4.2,3.1,5.4c2,1.3,5.9,1.9,11.6,1.9
			c5.7,0,9.5-0.6,11.6-1.9c2-1.3,3.1-3.1,3.1-5.4v-53.3c0-2.2-1-4-3.1-5.2c-2-1.3-5.9-1.9-11.6-1.9c-5.5,0-9.4,0.6-11.5,1.9
			C1311.1,443.3,1310,445,1310,447.3z"/>
		<path id="XMLID_42_" class="st0" d="M1534,440.2v67.5c0,6.2-0.9,11.9-2.6,17.1c-1.7,5.2-4.9,9.7-9.6,13.4
			c-4.7,3.7-11.2,6.6-19.4,8.7c-8.3,2.1-18.8,3.2-31.8,3.2c-12.9,0-23.5-1.1-31.8-3.2c-8.3-2.1-14.7-5-19.4-8.7
			c-4.7-3.7-7.9-8.1-9.7-13.4c-1.8-5.2-2.7-10.9-2.7-17.1v-67.5c0-6.2,0.9-11.9,2.7-17.1c1.8-5.2,5-9.7,9.7-13.5
			c4.7-3.8,11.2-6.7,19.4-8.8c8.2-2.1,18.8-3.2,31.8-3.2c12.9,0,23.5,1.1,31.8,3.2c8.2,2.1,14.7,5,19.4,8.8
			c4.7,3.8,7.9,8.3,9.6,13.5C1533.1,428.2,1534,433.9,1534,440.2z M1532,507.7v-67.5c0-6.1-0.9-11.6-2.7-16.5
			c-1.8-4.9-4.9-9.2-9.5-12.8c-4.6-3.6-10.8-6.3-18.8-8.3c-8-2-18.1-3-30.4-3c-12.3,0-22.4,1-30.5,3c-8.1,2-14.4,4.8-18.9,8.3
			s-7.7,7.8-9.5,12.8c-1.8,5-2.7,10.5-2.7,16.5v67.5c0,6.1,0.9,11.6,2.7,16.5c1.8,5,5,9.2,9.5,12.7c4.6,3.5,10.9,6.2,18.9,8.2
			c8,2,18.2,3,30.5,3c12.3,0,22.4-1,30.4-3c8-2,14.3-4.7,18.8-8.2c4.6-3.5,7.7-7.7,9.5-12.7C1531.1,519.3,1532,513.7,1532,507.7z
			 M1510.4,503.1c0,7.9-2.8,14.4-8.5,19.3c-5.7,4.9-16.2,7.4-31.7,7.4s-25.9-2.5-31.5-7.4c-5.5-5-8.3-11.4-8.3-19.3v-58.4
			c0-7.9,2.8-14.4,8.3-19.3c5.5-5,16-7.4,31.5-7.4s26,2.5,31.7,7.4c5.7,4.9,8.5,11.4,8.5,19.3V503.1z M1432.4,503.1
			c0,7.4,2.6,13.4,7.9,17.9c5.3,4.6,15.2,6.8,29.9,6.8s24.7-2.3,30.1-6.8c5.4-4.6,8.1-10.5,8.1-17.9v-58.4c0-7.4-2.7-13.4-8.1-17.9
			c-5.4-4.6-15.4-6.8-30.1-6.8s-24.6,2.3-29.9,6.8c-5.3,4.6-7.9,10.5-7.9,17.9V503.1z M1454,500.5v-53.3c0-2.5,1-4.7,3-6.4
			c2-1.8,6.5-2.7,13.7-2.7c7.1,0,11.7,0.9,13.7,2.7c2,1.8,3,3.9,3,6.4v53.3c0,2.6-1,4.9-3,6.6c-2,1.8-6.5,2.7-13.7,2.7
			c-7.1,0-11.7-0.9-13.7-2.7C1454.9,505.4,1454,503.2,1454,500.5z M1455.9,447.3v53.3c0,2.4,1,4.2,3.1,5.4c2,1.3,5.9,1.9,11.6,1.9
			c5.7,0,9.5-0.6,11.6-1.9c2-1.3,3.1-3.1,3.1-5.4v-53.3c0-2.2-1-4-3.1-5.2c-2-1.3-5.9-1.9-11.6-1.9c-5.5,0-9.4,0.6-11.5,1.9
			C1457,443.3,1455.9,445,1455.9,447.3z"/>
		<path id="XMLID_49_" class="st0" d="M1593.9,547.1h-29.7c-3.2,0-5.5-0.7-6.9-2.2c-1.5-1.5-2.2-3.8-2.2-6.9V409.7
			c0-3.2,0.7-5.5,2.2-6.9c1.5-1.5,3.8-2.2,6.9-2.2h20.6c2.9,0,5.3,0.5,7.3,1.4c2,0.9,4,2.4,5.9,4.6l34.8,39.8v-36.6
			c0-3.2,0.7-5.5,2.2-6.9c1.5-1.5,3.8-2.2,6.9-2.2h29.7c3.2,0,5.5,0.7,6.9,2.2c1.5,1.5,2.2,3.8,2.2,6.9V538c0,3.2-0.7,5.5-2.2,6.9
			c-1.5,1.5-3.8,2.2-6.9,2.2h-29.7c-3.2,0-5.5-0.7-6.9-2.2c-1.5-1.5-2.2-3.8-2.2-6.9v-23.6l-29.9-36.2V538c0,3.2-0.7,5.5-2.2,6.9
			C1599.4,546.3,1597.1,547.1,1593.9,547.1z M1593.9,545.1c2.5,0,4.3-0.6,5.4-1.7c1.1-1.1,1.7-2.9,1.7-5.4v-65.3l33.9,41V538
			c0,2.5,0.6,4.3,1.7,5.4c1.1,1.1,2.9,1.7,5.4,1.7h29.7c2.5,0,4.3-0.6,5.4-1.7c1.1-1.1,1.7-2.9,1.7-5.4V409.7c0-2.5-0.6-4.3-1.7-5.4
			c-1.1-1.1-2.9-1.7-5.4-1.7h-29.7c-2.5,0-4.3,0.6-5.4,1.7c-1.1,1.1-1.7,2.9-1.7,5.4v42.2l-38.4-44c-1.7-2-3.5-3.4-5.2-4.2
			c-1.8-0.8-3.9-1.2-6.4-1.2h-20.6c-2.5,0-4.3,0.6-5.4,1.7c-1.1,1.1-1.7,2.9-1.7,5.4V538c0,2.5,0.6,4.3,1.7,5.4
			c1.1,1.1,2.9,1.7,5.4,1.7H1593.9z M1583.3,421.9l72.9,82v-83.6h2v106.9h-2v-20.4l-74.8-84c-0.1-0.1-0.3-0.3-0.5-0.4
			c-0.2-0.1-0.4-0.2-0.5-0.2c-0.1,0-0.2,0.1-0.3,0.2c-0.1,0.1-0.1,0.3-0.1,0.4v104.3h-2V422.5c0-0.8,0.3-1.4,0.8-1.8
			c0.5-0.4,1.1-0.6,1.6-0.6c0.5,0,1,0.1,1.4,0.4C1582.1,420.8,1582.6,421.3,1583.3,421.9z"/>
	</g>
</g>
</svg>
