<?xml version="1.0" encoding="utf-8"?>
<!-- Generator: Adobe Illustrator 19.0.0, SVG Export Plug-In . SVG Version: 6.00 Build 0)  -->
<svg version="1.1" xmlns="http://www.w3.org/2000/svg" xmlns:xlink="http://www.w3.org/1999/xlink" x="0px" y="0px"
	 viewBox="0 0 1920 1080" style="enable-background:new 0 0 1920 1080;" xml:space="preserve">
<style type="text/css">
	.st0{fill:#FFFFFF;}
</style>
<g id="Layer_1">
	<image style="overflow:visible;" width="1920" height="1080" id="XMLID_1_" xlink:href="background-comingsoon-.png" >
	</image>
</g>
<g id="TEXT">
	<g id="XMLID_3_">
		<g id="XMLID_4_">
			<path id="XMLID_133_" class="st0" d="M250,385.8h-49.4c-17.7,0-30.7,3.6-39.1,10.7c-8.4,7.2-12.6,18.1-12.6,32.8v62.9
				c0,14.6,4.2,25.4,12.6,32.6c8.4,7.2,21.5,10.7,39.1,10.7H250c3.2,0,5.6-0.7,7.1-2.2c1.5-1.5,2.2-3.8,2.2-7.1v-24.1
				c0-3.2-0.7-5.6-2.2-7.1c-1.5-1.5-3.8-2.2-7.1-2.2h-40.7c-3.4,0-5.9-0.6-7.7-1.7c-1.8-1.1-2.6-3.1-2.6-6V437
				c0-2.8,0.9-4.9,2.6-6.2c1.8-1.3,4.3-1.9,7.7-1.9H250c3.2,0,5.6-0.7,7.1-2.2c1.5-1.5,2.2-3.8,2.2-7.1v-24.5c0-3.2-0.7-5.6-2.2-7.1
				C255.6,386.6,253.3,385.8,250,385.8L250,385.8z M200.7,533.5c-16.9,0-29.4-3.4-37.5-10.1c-8.2-6.7-12.2-17.1-12.2-31.2v-62.9
				c0-14,4.1-24.4,12.2-31.3c8.2-6.8,20.7-10.2,37.5-10.2H250c2.6,0,4.4,0.6,5.6,1.7c1.1,1.1,1.7,3,1.7,5.6v24.5
				c0,2.6-0.6,4.4-1.7,5.6c-1.1,1.1-3,1.7-5.6,1.7h-40.7c-4.2,0-7.3,0.8-9.3,2.5c-2,1.7-3,4.2-3,7.6v48.2c0,3.4,1,5.8,3,7.4
				c2,1.6,5.1,2.3,9.3,2.3H250c2.6,0,4.4,0.6,5.6,1.7c1.1,1.1,1.7,3,1.7,5.6v24.1c0,2.6-0.6,4.4-1.7,5.6c-1.1,1.1-3,1.7-5.6,1.7
				H200.7L200.7,533.5z M238.9,406.1h-33.8c-12.9,0-21.6,2-25.9,6.1c-4.3,4-6.5,10.9-6.5,20.4v56.7c0,9.3,2.1,16,6.4,20
				c4.2,4,12.9,6.1,26,6.1h33.8v-2h-33.8c-12.1,0-20.2-1.8-24.3-5.5c-4-3.6-6.1-9.8-6.1-18.6v-56.7c0-8.9,2.1-15.2,6.3-18.9
				c4.2-3.7,12.2-5.6,24.1-5.6h33.8V406.1L238.9,406.1z"/>
		</g>
		<g id="XMLID_8_">
			<path id="XMLID_159_" class="st0" d="M339.9,382.8c-13.2,0-24,1.1-32.5,3.2c-8.4,2.2-15,5.2-19.8,9c-4.8,3.8-8.1,8.4-9.9,13.8
				c-1.8,5.3-2.7,11.2-2.7,17.5v69c0,6.3,0.9,12.2,2.7,17.5c1.8,5.3,5.1,9.9,9.9,13.7c4.8,3.8,11.4,6.7,19.8,8.9
				c8.4,2.2,19.3,3.2,32.5,3.2c13.2,0,24-1.1,32.5-3.2c8.4-2.2,15-5.1,19.8-8.9c4.8-3.8,8.1-8.3,9.8-13.7c1.8-5.3,2.6-11.2,2.6-17.5
				v-69c0-6.3-0.9-12.2-2.6-17.5c-1.8-5.3-5-9.9-9.8-13.8c-4.8-3.8-11.4-6.8-19.8-9C363.9,383.9,353.1,382.8,339.9,382.8
				L339.9,382.8z M339.9,536.6c-12.5,0-22.9-1-31.2-3c-8.2-2-14.7-4.8-19.3-8.4c-4.7-3.6-7.9-7.9-9.7-12.9
				c-1.8-5.1-2.7-10.7-2.7-16.9v-69c0-6.2,0.9-11.8,2.7-16.9c1.8-5.1,5.1-9.4,9.7-13.1c4.7-3.6,11.1-6.5,19.3-8.5
				c8.2-2,18.6-3,31.2-3c12.5,0,22.9,1,31.1,3c8.2,2,14.6,4.9,19.2,8.5c4.7,3.6,7.9,8,9.7,13.1c1.8,5.1,2.7,10.7,2.7,16.9v69
				c0,6.2-0.9,11.8-2.7,16.9c-1.8,5.1-5.1,9.4-9.7,12.9c-4.7,3.6-11.1,6.4-19.2,8.4C362.8,535.5,352.4,536.6,339.9,536.6
				L339.9,536.6z M339.5,403.6c-15.8,0-26.5,2.5-32.2,7.6c-5.7,5.1-8.5,11.6-8.5,19.7v59.7c0,8.1,2.8,14.7,8.5,19.7
				c5.7,5.1,16.4,7.6,32.2,7.6c15.8,0,26.6-2.5,32.4-7.6c5.8-5.1,8.7-11.6,8.7-19.7v-59.7c0-8.1-2.9-14.7-8.7-19.7
				C366,406.2,355.3,403.6,339.5,403.6L339.5,403.6z M339.5,515.9c-15,0-25.2-2.3-30.6-7c-5.4-4.7-8.1-10.8-8.1-18.3v-59.7
				c0-7.6,2.7-13.7,8.1-18.3c5.4-4.7,15.6-7,30.6-7c15,0,25.2,2.3,30.8,7c5.5,4.7,8.3,10.8,8.3,18.3v59.7c0,7.6-2.8,13.7-8.3,18.3
				C364.7,513.6,354.4,515.9,339.5,515.9L339.5,515.9z M339.9,424.3c-7.3,0-11.9,0.9-14,2.7c-2,1.8-3,4-3,6.6V488c0,2.7,1,5,3,6.8
				c2,1.8,6.7,2.7,14,2.7c7.3,0,11.9-0.9,14-2.7c2-1.8,3-4.1,3-6.8v-54.4c0-2.6-1-4.8-3-6.6C351.8,425.2,347.2,424.3,339.9,424.3
				L339.9,424.3z M339.9,495.5c-5.8,0-9.7-0.6-11.8-1.9c-2.1-1.3-3.1-3.1-3.1-5.6v-54.4c0-2.3,1.1-4.1,3.2-5.4
				c2.2-1.3,6.1-1.9,11.7-1.9c5.8,0,9.7,0.6,11.8,1.9c2.1,1.3,3.1,3.1,3.1,5.4V488c0,2.4-1,4.3-3.1,5.6
				C349.6,494.9,345.7,495.5,339.9,495.5L339.9,495.5z"/>
		</g>
		<g id="XMLID_15_">
			<path id="XMLID_151_" class="st0" d="M489,382.8c-13.2,0-24,1.1-32.5,3.2c-8.4,2.2-15,5.2-19.8,9c-4.8,3.8-8.1,8.4-9.9,13.8
				c-1.8,5.3-2.7,11.2-2.7,17.5v69c0,6.3,0.9,12.2,2.7,17.5c1.8,5.3,5.1,9.9,9.9,13.7c4.8,3.8,11.4,6.7,19.8,8.9
				c8.4,2.2,19.3,3.2,32.5,3.2c13.2,0,24-1.1,32.5-3.2c8.4-2.2,15-5.1,19.8-8.9c4.8-3.8,8.1-8.3,9.8-13.7c1.8-5.3,2.6-11.2,2.6-17.5
				v-69c0-6.3-0.9-12.2-2.6-17.5c-1.8-5.3-5-9.9-9.8-13.8c-4.8-3.8-11.4-6.8-19.8-9C513,383.9,502.2,382.8,489,382.8L489,382.8z
				 M489,536.6c-12.5,0-22.9-1-31.2-3c-8.2-2-14.7-4.8-19.3-8.4c-4.7-3.6-7.9-7.9-9.7-12.9c-1.8-5.1-2.7-10.7-2.7-16.9v-69
				c0-6.2,0.9-11.8,2.7-16.9c1.8-5.1,5.1-9.4,9.7-13.1c4.7-3.6,11.1-6.5,19.3-8.5c8.2-2,18.6-3,31.2-3c12.5,0,22.9,1,31.1,3
				c8.2,2,14.6,4.9,19.2,8.5c4.7,3.6,7.9,8,9.7,13.1c1.8,5.1,2.7,10.7,2.7,16.9v69c0,6.2-0.9,11.8-2.7,16.9
				c-1.8,5.1-5.1,9.4-9.7,12.9c-4.7,3.6-11.1,6.4-19.2,8.4C511.9,535.5,501.5,536.6,489,536.6L489,536.6z M488.6,403.6
				c-15.8,0-26.5,2.5-32.2,7.6c-5.7,5.1-8.5,11.6-8.5,19.7v59.7c0,8.1,2.8,14.7,8.5,19.7c5.7,5.1,16.4,7.6,32.2,7.6
				c15.8,0,26.6-2.5,32.4-7.6c5.8-5.1,8.7-11.6,8.7-19.7v-59.7c0-8.1-2.9-14.7-8.7-19.7C515.2,406.2,504.4,403.6,488.6,403.6
				L488.6,403.6z M488.6,515.9c-15,0-25.2-2.3-30.6-7c-5.4-4.7-8.1-10.8-8.1-18.3v-59.7c0-7.6,2.7-13.7,8.1-18.3
				c5.4-4.7,15.6-7,30.6-7c15,0,25.2,2.3,30.8,7c5.5,4.7,8.3,10.8,8.3,18.3v59.7c0,7.6-2.8,13.7-8.3,18.3
				C513.8,513.6,503.6,515.9,488.6,515.9L488.6,515.9z M489,424.3c-7.3,0-11.9,0.9-14,2.7c-2,1.8-3,4-3,6.6V488c0,2.7,1,5,3,6.8
				c2,1.8,6.7,2.7,14,2.7c7.3,0,11.9-0.9,14-2.7c2-1.8,3-4.1,3-6.8v-54.4c0-2.6-1-4.8-3-6.6C500.9,425.2,496.3,424.3,489,424.3
				L489,424.3z M489,495.5c-5.8,0-9.7-0.6-11.8-1.9c-2.1-1.3-3.1-3.1-3.1-5.6v-54.4c0-2.3,1.1-4.1,3.2-5.4c2.2-1.3,6.1-1.9,11.7-1.9
				c5.8,0,9.7,0.6,11.8,1.9c2.1,1.3,3.1,3.1,3.1,5.4V488c0,2.4-1,4.3-3.1,5.6C498.7,494.9,494.8,495.5,489,495.5L489,495.5z"/>
		</g>
		<g id="XMLID_22_">
			<path id="XMLID_128_" class="st0" d="M714,385.8h-32.8c-2.6,0-4.7,0.5-6.4,1.6c-1.7,1.1-3.3,2.9-4.8,5.5l-18,33
				c-0.3,0.5-0.5,1.1-0.7,1.6c-0.2,0.5-0.6,0.8-1.1,0.8h-1.8c-0.5,0-0.9-0.3-1.1-0.8c-0.2-0.5-0.4-1.1-0.7-1.6l-18.2-33
				c-1.5-2.6-3.1-4.4-4.8-5.5c-1.7-1.1-3.8-1.6-6.4-1.6h-32.6c-3.2,0-5.6,0.7-7.1,2.2c-1.5,1.5-2.2,3.8-2.2,7.1v131.1
				c0,3.2,0.7,5.6,2.2,7.1c1.5,1.5,3.8,2.2,7.1,2.2h30.1c3.2,0,5.6-0.7,7.1-2.2c1.5-1.5,2.2-3.8,2.2-7.1v-63.1l8.1,15
				c1.3,2.6,3,4.5,5.1,5.7c2,1.2,4.5,1.8,7.5,1.8h8.1c3,0,5.5-0.6,7.5-1.8c2-1.2,3.7-3.1,5.1-5.7l8.1-15v63.1c0,3.2,0.7,5.6,2.1,7.1
				c1.4,1.5,3.8,2.2,7.2,2.2H714c3.2,0,5.6-0.7,7.1-2.2c1.5-1.5,2.2-3.8,2.2-7.1V395.1c0-3.2-0.7-5.6-2.2-7.1
				C719.6,386.6,717.2,385.8,714,385.8L714,385.8z M648.4,430.3h1.8c0.8,0,1.4-0.3,1.9-0.8c0.5-0.5,1-1.4,1.7-2.6l18-33
				c1.2-2.2,2.5-3.7,3.9-4.7c1.4-0.9,3.2-1.4,5.4-1.4H714c2.6,0,4.4,0.6,5.6,1.7c1.1,1.1,1.7,3,1.7,5.6v131.1c0,2.6-0.6,4.4-1.7,5.6
				c-1.1,1.1-3,1.7-5.6,1.7h-31.2c-2.6,0-4.4-0.6-5.6-1.7c-1.1-1.1-1.7-3-1.7-5.6V455l-11.9,22.1c-1.2,2.3-2.7,3.9-4.4,5
				c-1.7,1-3.8,1.5-6.4,1.5h-8.1c-2.6,0-4.7-0.5-6.4-1.5c-1.7-1-3.1-2.7-4.4-5L622.1,455v71.2c0,2.6-0.6,4.4-1.7,5.6
				c-1.1,1.1-3,1.7-5.6,1.7h-30.1c-2.6,0-4.4-0.6-5.6-1.7c-1.1-1.1-1.7-3-1.7-5.6V395.1c0-2.6,0.6-4.4,1.7-5.6
				c1.1-1.1,3-1.7,5.6-1.7h32.6c2.2,0,3.9,0.5,5.4,1.4c1.4,0.9,2.7,2.5,3.9,4.7l18.2,33c0.7,1.2,1.2,2.1,1.7,2.6
				C647,430.1,647.6,430.3,648.4,430.3L648.4,430.3z M692.9,406.1h-3.4c-1.1,0-2.1,0.2-3.1,0.7c-1,0.5-1.9,1.4-2.7,2.7l-24.7,37.6
				c-2.3,3.5-4,5.8-5.1,6.9c-1.1,1.1-2.8,1.6-5.3,1.6s-4.2-0.5-5.3-1.6c-1.1-1.1-2.8-3.4-5.1-6.9l-24.7-37.6
				c-0.8-1.3-1.8-2.3-2.8-2.7c-1.1-0.5-2.2-0.7-3.2-0.7h-3.4c-1.8,0-3.1,0.5-3.9,1.5c-0.9,1-1.3,2.6-1.3,4.8v103h2v-103
				c0-1.1,0.2-2.1,0.6-2.9c0.4-0.9,1.3-1.3,2.6-1.3h3c0.9,0,1.8,0.1,2.5,0.4c0.7,0.3,1.5,1.1,2.3,2.4l24.7,37.2
				c2.4,3.6,4.3,6.1,5.6,7.5c1.3,1.4,3.4,2,6.4,2c3,0,5.1-0.7,6.4-2c1.3-1.3,3.1-3.8,5.6-7.5l24.7-37.2c0.8-1.3,1.5-2.2,2.2-2.4
				c0.7-0.3,1.5-0.4,2.4-0.4h3c1.3,0,2.3,0.4,2.7,1.3c0.5,0.9,0.7,1.9,0.7,2.9v103h2v-103c0-2.2-0.4-3.7-1.3-4.8
				C696.2,406.6,694.8,406.1,692.9,406.1L692.9,406.1z"/>
		</g>
		<g id="XMLID_26_">
			<path id="XMLID_109_" class="st0" d="M839.4,385.8h-86.2c-3.2,0-5.6,0.7-7.1,2.2c-1.5,1.5-2.2,3.8-2.2,7.1v24.5
				c0,3.2,0.7,5.6,2.2,7.1c1.5,1.5,3.8,2.2,7.1,2.2h18v63.9h-18c-3.2,0-5.6,0.7-7.1,2.2c-1.5,1.5-2.2,3.8-2.2,7.1v24.1
				c0,3.2,0.7,5.6,2.2,7.1c1.5,1.5,3.8,2.2,7.1,2.2h86.2c3.2,0,5.6-0.7,7.1-2.2c1.5-1.5,2.2-3.8,2.2-7.1v-24.1
				c0-3.2-0.7-5.6-2.2-7.1c-1.5-1.5-3.8-2.2-7.1-2.2h-17.6v-63.9h17.6c3.2,0,5.6-0.7,7.1-2.2c1.5-1.5,2.2-3.8,2.2-7.1v-24.5
				c0-3.2-0.7-5.6-2.2-7.1C845,386.6,842.7,385.8,839.4,385.8L839.4,385.8z M753.2,426.9c-2.6,0-4.4-0.6-5.6-1.7
				c-1.1-1.1-1.7-3-1.7-5.6v-24.5c0-2.6,0.6-4.4,1.7-5.6c1.1-1.1,3-1.7,5.6-1.7h86.2c2.6,0,4.4,0.6,5.6,1.7c1.1,1.1,1.7,3,1.7,5.6
				v24.5c0,2.6-0.6,4.4-1.7,5.6c-1.1,1.1-3,1.7-5.6,1.7h-19.6v68h19.6c2.6,0,4.4,0.6,5.6,1.7c1.1,1.1,1.7,3,1.7,5.6v24.1
				c0,2.6-0.6,4.4-1.7,5.6c-1.1,1.1-3,1.7-5.6,1.7h-86.2c-2.6,0-4.4-0.6-5.6-1.7c-1.1-1.1-1.7-3-1.7-5.6v-24.1
				c0-2.6,0.6-4.4,1.7-5.6c1.1-1.1,3-1.7,5.6-1.7h20v-68H753.2L753.2,426.9z M828.5,406.1h-64.3v2h31.4v105.2h-31.4v2h64.3v-2h-31
				V408.1h31V406.1L828.5,406.1z"/>
		</g>
		<g id="XMLID_30_">
			<path id="XMLID_104_" class="st0" d="M988.7,385.8h-30.3c-3.2,0-5.6,0.7-7.1,2.2c-1.5,1.5-2.2,3.8-2.2,7.1v37.4l-35.6-40.7
				c-2-2.2-4-3.7-6.1-4.7c-2-0.9-4.5-1.4-7.5-1.4h-21c-3.2,0-5.6,0.7-7.1,2.2c-1.5,1.5-2.2,3.8-2.2,7.1v131.1c0,3.2,0.7,5.6,2.2,7.1
				c1.5,1.5,3.8,2.2,7.1,2.2h30.3c3.2,0,5.6-0.7,7.1-2.2c1.5-1.5,2.2-3.8,2.2-7.1v-61.1l30.6,37v24.1c0,3.2,0.7,5.6,2.2,7.1
				c1.5,1.5,3.8,2.2,7.1,2.2h30.3c3.2,0,5.6-0.7,7.1-2.2c1.5-1.5,2.2-3.8,2.2-7.1V395.1c0-3.2-0.7-5.6-2.2-7.1
				C994.3,386.6,992,385.8,988.7,385.8L988.7,385.8z M951.1,438.2v-43.1c0-2.6,0.6-4.4,1.7-5.6c1.1-1.1,3-1.7,5.6-1.7h30.3
				c2.6,0,4.4,0.6,5.6,1.7c1.1,1.1,1.7,3,1.7,5.6v131.1c0,2.6-0.6,4.4-1.7,5.6c-1.1,1.1-3,1.7-5.6,1.7h-30.3c-2.6,0-4.4-0.6-5.6-1.7
				c-1.1-1.1-1.7-3-1.7-5.6v-24.9l-34.6-41.9v66.8c0,2.6-0.6,4.4-1.7,5.6c-1.1,1.1-3,1.7-5.6,1.7h-30.3c-2.6,0-4.4-0.6-5.6-1.7
				c-1.1-1.1-1.7-3-1.7-5.6V395.1c0-2.6,0.6-4.4,1.7-5.6c1.1-1.1,3-1.7,5.6-1.7h21c2.6,0,4.8,0.4,6.6,1.2c1.8,0.8,3.6,2.2,5.4,4.2
				L951.1,438.2L951.1,438.2z M895.3,405.9c-0.5,0-1.1,0.2-1.6,0.6c-0.5,0.4-0.8,1-0.8,1.8v107h2V408.7c0-0.1,0-0.3,0.1-0.4
				c0.1-0.1,0.2-0.2,0.3-0.2c0.1,0,0.3,0.1,0.5,0.2c0.2,0.1,0.4,0.3,0.5,0.4l76.5,85.8v20.8h2V406.1h-2v85.4l-74.5-83.8
				c-0.7-0.7-1.2-1.1-1.6-1.4C896.3,406,895.8,405.9,895.3,405.9L895.3,405.9z"/>
		</g>
		<g id="XMLID_34_">
			<path id="XMLID_97_" class="st0" d="M1122.1,385.8h-50.6c-17.7,0-30.7,3.6-39.2,10.7c-8.4,7.2-12.6,18-12.6,32.6v63.1
				c0,14.6,4.2,25.4,12.6,32.6c8.4,7.2,21.5,10.7,39.2,10.7h63.7c3.2,0,5.6-0.7,7.1-2.2c1.5-1.5,2.2-3.8,2.2-7.1v-62.5
				c0-3.2-0.7-5.6-2.2-7.1c-1.5-1.5-3.8-2.2-7.1-2.2h-31.4c-3.2,0-5.6,0.7-7.1,2.2c-1.5,1.5-2.2,3.8-2.2,7.1v29.5h-17.6
				c-2.6,0-4.4-0.6-5.6-1.9c-1.1-1.3-1.7-3.3-1.7-6V437c0-2.8,0.9-4.9,2.6-6.2c1.8-1.3,4.3-1.9,7.7-1.9h42.1c3.2,0,5.6-0.7,7.1-2.2
				c1.5-1.5,2.2-3.8,2.2-7.1v-24.5c0-3.2-0.7-5.6-2.2-7.1C1127.7,386.6,1125.3,385.8,1122.1,385.8L1122.1,385.8z M1071.5,533.5
				c-16.9,0-29.4-3.4-37.5-10.1c-8.2-6.7-12.2-17.1-12.2-31.2v-63.1c0-14,4.1-24.4,12.2-31.2c8.2-6.7,20.7-10.1,37.5-10.1h50.6
				c2.6,0,4.4,0.6,5.6,1.7c1.1,1.1,1.7,3,1.7,5.6v24.5c0,2.6-0.6,4.4-1.7,5.6c-1.1,1.1-3,1.7-5.6,1.7H1080c-4.2,0-7.3,0.8-9.3,2.5
				c-2,1.7-3,4.2-3,7.6v48.4c0,3.4,0.8,5.9,2.3,7.5c1.5,1.6,3.9,2.4,7,2.4h19.6v-31.6c0-2.6,0.6-4.4,1.7-5.6c1.1-1.1,3-1.7,5.6-1.7
				h31.4c2.6,0,4.4,0.6,5.6,1.7c1.1,1.1,1.7,3,1.7,5.6v62.5c0,2.6-0.6,4.4-1.7,5.6c-1.1,1.1-3,1.7-5.6,1.7H1071.5L1071.5,533.5z
				 M1111.1,406.1h-35c-12.9,0-21.6,2-25.9,6.1c-4.3,4-6.5,10.9-6.5,20.4v56.7c0,4.7,0.5,8.7,1.5,12c1,3.3,2.9,6,5.6,8.1
				c2.7,2.1,6.4,3.6,11.1,4.6c4.7,0.9,10.8,1.4,18.2,1.4h40.3v-40.7h-2v38.6h-38.2c-13.6,0-22.8-1.8-27.4-5.5c-4.7-3.6-7-9.8-7-18.6
				v-56.7c0-8.9,2.1-15.2,6.3-18.9c4.2-3.7,12.2-5.6,24.1-5.6h35V406.1L1111.1,406.1z"/>
		</g>
		<g id="XMLID_38_">
			<path id="XMLID_92_" class="st0" d="M1307.6,385.8h-56.7c-13.8,0-24.5,3.2-32.3,9.7c-7.8,6.5-11.6,15.8-11.6,27.9v21.2
				c0,11.9,3,20.4,9,25.6c6,5.2,14.1,8.5,24.2,10l30.3,4.2c1.2,0.1,2.1,0.6,2.6,1.4c0.5,0.8,0.8,2,0.8,3.4c0,0.9-0.3,1.8-0.8,2.6
				c-0.5,0.8-1.3,1.2-2.4,1.2h-54.4c-3.2,0-5.6,0.7-7.1,2.2c-1.5,1.5-2.2,3.8-2.2,7.1v23.7c0,3.2,0.7,5.6,2.2,7.1
				c1.5,1.5,3.8,2.2,7.1,2.2h63.9c13.6,0,24.3-3.2,32.2-9.7c7.8-6.5,11.7-15.8,11.7-27.9v-21.2c0-11.9-3-20.4-9.1-25.6
				c-6.1-5.2-14.2-8.5-24.3-10l-30.1-4c-1.2-0.1-2.1-0.6-2.7-1.4c-0.6-0.8-0.9-1.8-0.9-3c0-1.1,0.3-2,0.9-2.8
				c0.6-0.8,1.4-1.2,2.5-1.2h47.1c3.2,0,5.6-0.7,7.1-2.2c1.5-1.5,2.2-3.8,2.2-7.1v-24.1c0-3.2-0.7-5.6-2.2-7.1
				C1313.2,386.6,1310.8,385.8,1307.6,385.8L1307.6,385.8z M1216.3,533.5c-2.6,0-4.4-0.6-5.6-1.7c-1.1-1.1-1.7-3-1.7-5.6v-23.7
				c0-2.6,0.6-4.4,1.7-5.6c1.1-1.1,3-1.7,5.6-1.7h54.4c1.8,0,3.1-0.6,3.9-1.7c0.9-1.1,1.3-2.5,1.3-4.1c0-2.3-0.4-4-1.3-5.1
				c-0.9-1.1-2.2-1.7-3.9-1.8l-30.3-4.2c-9.4-1.3-17-4.5-22.8-9.3c-5.7-4.9-8.6-12.9-8.6-24.3v-21.2c0-11.5,3.7-20.3,11.1-26.4
				c7.4-6.1,17.7-9.2,30.8-9.2h56.7c2.6,0,4.4,0.6,5.6,1.7c1.1,1.1,1.7,3,1.7,5.6v24.1c0,2.6-0.6,4.4-1.7,5.6
				c-1.1,1.1-3,1.7-5.6,1.7h-47.1c-1.8,0-3.1,0.6-4,1.7c-0.9,1.1-1.4,2.6-1.4,4.4c0,1.8,0.5,3.2,1.4,4.5c0.9,1.2,2.3,1.9,4,2l30.1,4
				c9.4,1.3,17.1,4.5,22.9,9.3c5.8,4.9,8.7,12.9,8.7,24.3v21.2c0,11.5-3.7,20.3-11.2,26.4c-7.5,6.1-17.7,9.2-30.7,9.2H1216.3
				L1216.3,533.5z M1296.7,406.1h-44.9c-6.2,0-11.2,1.7-15,5.2c-3.8,3.4-5.7,7.9-5.7,13.3v16.6c0,5.5,1.1,9.3,3.3,11.4
				c2.2,2.1,5.1,3.5,8.6,4.1l42.7,8.7c3.8,0.8,6.8,2.4,9,4.8c2.2,2.4,3.3,6.7,3.3,13v11.7c0,5.4-1.9,9.8-5.6,13.3
				c-3.7,3.4-8.7,5.2-14.9,5.2h-50.4v2h50.4c6.9,0,12.3-1.9,16.4-5.8c4-3.8,6.1-8.7,6.1-14.7v-11.7c0-7-1.3-11.9-3.9-14.6
				c-2.6-2.7-6-4.5-10-5.3l-42.7-8.7c-3.1-0.5-5.6-1.8-7.5-3.6c-1.9-1.9-2.8-5.2-2.8-9.9v-16.6c0-4.7,1.7-8.6,5.1-11.7
				c3.4-3.1,7.9-4.7,13.6-4.7h44.9V406.1L1296.7,406.1z"/>
		</g>
		<g id="XMLID_42_">
			<path id="XMLID_118_" class="st0" d="M1404.9,382.8c-13.2,0-24,1.1-32.5,3.2c-8.4,2.2-15,5.2-19.8,9c-4.8,3.8-8.1,8.4-9.9,13.8
				c-1.8,5.3-2.7,11.2-2.7,17.5v69c0,6.3,0.9,12.2,2.7,17.5c1.8,5.3,5.1,9.9,9.9,13.7c4.8,3.8,11.4,6.7,19.8,8.9
				c8.4,2.2,19.3,3.2,32.5,3.2c13.2,0,24-1.1,32.5-3.2c8.4-2.2,15-5.1,19.8-8.9c4.8-3.8,8.1-8.3,9.8-13.7c1.8-5.3,2.6-11.2,2.6-17.5
				v-69c0-6.3-0.9-12.2-2.6-17.5c-1.8-5.3-5-9.9-9.8-13.8c-4.8-3.8-11.4-6.8-19.8-9C1429,383.9,1418.1,382.8,1404.9,382.8
				L1404.9,382.8z M1404.9,536.6c-12.5,0-22.9-1-31.2-3c-8.2-2-14.7-4.8-19.3-8.4c-4.7-3.6-7.9-7.9-9.7-12.9
				c-1.8-5.1-2.7-10.7-2.7-16.9v-69c0-6.2,0.9-11.8,2.7-16.9c1.8-5.1,5.1-9.4,9.7-13.1c4.7-3.6,11.1-6.5,19.3-8.5
				c8.2-2,18.6-3,31.2-3c12.5,0,22.9,1,31.1,3c8.2,2,14.6,4.9,19.2,8.5c4.7,3.6,7.9,8,9.7,13.1c1.8,5.1,2.7,10.7,2.7,16.9v69
				c0,6.2-0.9,11.8-2.7,16.9c-1.8,5.1-5.1,9.4-9.7,12.9c-4.7,3.6-11.1,6.4-19.2,8.4C1427.8,535.5,1417.5,536.6,1404.9,536.6
				L1404.9,536.6z M1404.5,403.6c-15.8,0-26.5,2.5-32.2,7.6c-5.7,5.1-8.5,11.6-8.5,19.7v59.7c0,8.1,2.8,14.7,8.5,19.7
				c5.7,5.1,16.4,7.6,32.2,7.6s26.6-2.5,32.4-7.6c5.8-5.1,8.7-11.6,8.7-19.7v-59.7c0-8.1-2.9-14.7-8.7-19.7
				C1431.1,406.2,1420.3,403.6,1404.5,403.6L1404.5,403.6z M1404.5,515.9c-15,0-25.2-2.3-30.6-7c-5.4-4.7-8.1-10.8-8.1-18.3v-59.7
				c0-7.6,2.7-13.7,8.1-18.3c5.4-4.7,15.6-7,30.6-7c15,0,25.2,2.3,30.8,7c5.5,4.7,8.3,10.8,8.3,18.3v59.7c0,7.6-2.8,13.7-8.3,18.3
				C1429.7,513.6,1419.5,515.9,1404.5,515.9L1404.5,515.9z M1404.9,424.3c-7.3,0-11.9,0.9-14,2.7c-2,1.8-3,4-3,6.6V488
				c0,2.7,1,5,3,6.8c2,1.8,6.7,2.7,14,2.7c7.3,0,11.9-0.9,14-2.7c2-1.8,3-4.1,3-6.8v-54.4c0-2.6-1-4.8-3-6.6
				C1416.8,425.2,1412.2,424.3,1404.9,424.3L1404.9,424.3z M1404.9,495.5c-5.8,0-9.7-0.6-11.8-1.9c-2.1-1.3-3.1-3.1-3.1-5.6v-54.4
				c0-2.3,1.1-4.1,3.2-5.4c2.2-1.3,6.1-1.9,11.7-1.9c5.8,0,9.7,0.6,11.8,1.9c2.1,1.3,3.1,3.1,3.1,5.4V488c0,2.4-1,4.3-3.1,5.6
				C1414.7,494.9,1410.7,495.5,1404.9,495.5L1404.9,495.5z"/>
		</g>
		<g id="XMLID_49_">
			<path id="XMLID_110_" class="st0" d="M1554,382.8c-13.2,0-24,1.1-32.5,3.2c-8.4,2.2-15,5.2-19.8,9c-4.8,3.8-8.1,8.4-9.9,13.8
				c-1.8,5.3-2.7,11.2-2.7,17.5v69c0,6.3,0.9,12.2,2.7,17.5c1.8,5.3,5.1,9.9,9.9,13.7c4.8,3.8,11.4,6.7,19.8,8.9
				c8.4,2.2,19.3,3.2,32.5,3.2c13.2,0,24-1.1,32.5-3.2c8.4-2.2,15-5.1,19.8-8.9c4.8-3.8,8.1-8.3,9.8-13.7c1.8-5.3,2.6-11.2,2.6-17.5
				v-69c0-6.3-0.9-12.2-2.6-17.5c-1.8-5.3-5-9.9-9.8-13.8c-4.8-3.8-11.4-6.8-19.8-9C1578.1,383.9,1567.2,382.8,1554,382.8
				L1554,382.8z M1554,536.6c-12.5,0-22.9-1-31.2-3c-8.2-2-14.7-4.8-19.3-8.4c-4.7-3.6-7.9-7.9-9.7-12.9c-1.8-5.1-2.7-10.7-2.7-16.9
				v-69c0-6.2,0.9-11.8,2.7-16.9c1.8-5.1,5.1-9.4,9.7-13.1c4.7-3.6,11.1-6.5,19.3-8.5c8.2-2,18.6-3,31.2-3c12.5,0,22.9,1,31.1,3
				c8.2,2,14.6,4.9,19.2,8.5c4.7,3.6,7.9,8,9.7,13.1c1.8,5.1,2.7,10.7,2.7,16.9v69c0,6.2-0.9,11.8-2.7,16.9
				c-1.8,5.1-5.1,9.4-9.7,12.9c-4.7,3.6-11.1,6.4-19.2,8.4C1576.9,535.5,1566.6,536.6,1554,536.6L1554,536.6z M1553.6,403.6
				c-15.8,0-26.5,2.5-32.2,7.6c-5.7,5.1-8.5,11.6-8.5,19.7v59.7c0,8.1,2.8,14.7,8.5,19.7c5.7,5.1,16.4,7.6,32.2,7.6
				s26.6-2.5,32.4-7.6c5.8-5.1,8.7-11.6,8.7-19.7v-59.7c0-8.1-2.9-14.7-8.7-19.7C1580.2,406.2,1569.4,403.6,1553.6,403.6
				L1553.6,403.6z M1553.6,515.9c-15,0-25.2-2.3-30.6-7c-5.4-4.7-8.1-10.8-8.1-18.3v-59.7c0-7.6,2.7-13.7,8.1-18.3
				c5.4-4.7,15.6-7,30.6-7c15,0,25.2,2.3,30.8,7c5.5,4.7,8.3,10.8,8.3,18.3v59.7c0,7.6-2.8,13.7-8.3,18.3
				C1578.8,513.6,1568.6,515.9,1553.6,515.9L1553.6,515.9z M1554,424.3c-7.3,0-11.9,0.9-14,2.7c-2,1.8-3,4-3,6.6V488
				c0,2.7,1,5,3,6.8c2,1.8,6.7,2.7,14,2.7c7.3,0,11.9-0.9,14-2.7c2-1.8,3-4.1,3-6.8v-54.4c0-2.6-1-4.8-3-6.6
				C1566,425.2,1561.3,424.3,1554,424.3L1554,424.3z M1554,495.5c-5.8,0-9.7-0.6-11.8-1.9c-2.1-1.3-3.1-3.1-3.1-5.6v-54.4
				c0-2.3,1.1-4.1,3.2-5.4c2.2-1.3,6.1-1.9,11.7-1.9c5.8,0,9.7,0.6,11.8,1.9c2.1,1.3,3.1,3.1,3.1,5.4V488c0,2.4-1,4.3-3.1,5.6
				C1563.8,494.9,1559.8,495.5,1554,495.5L1554,495.5z"/>
		</g>
		<g id="XMLID_56_">
			<path id="XMLID_87_" class="st0" d="M1759.6,385.8h-30.3c-3.2,0-5.6,0.7-7.1,2.2c-1.5,1.5-2.2,3.8-2.2,7.1v37.4l-35.6-40.7
				c-2-2.2-4-3.7-6.1-4.7c-2-0.9-4.5-1.4-7.5-1.4h-21c-3.2,0-5.6,0.7-7.1,2.2c-1.5,1.5-2.2,3.8-2.2,7.1v131.1c0,3.2,0.7,5.6,2.2,7.1
				c1.5,1.5,3.8,2.2,7.1,2.2h30.3c3.2,0,5.6-0.7,7.1-2.2c1.5-1.5,2.2-3.8,2.2-7.1v-61.1l30.6,37v24.1c0,3.2,0.7,5.6,2.2,7.1
				c1.5,1.5,3.8,2.2,7.1,2.2h30.3c3.2,0,5.6-0.7,7.1-2.2c1.5-1.5,2.2-3.8,2.2-7.1V395.1c0-3.2-0.7-5.6-2.2-7.1
				C1765.2,386.6,1762.8,385.8,1759.6,385.8L1759.6,385.8z M1722,438.2v-43.1c0-2.6,0.6-4.4,1.7-5.6c1.1-1.1,3-1.7,5.6-1.7h30.3
				c2.6,0,4.4,0.6,5.6,1.7c1.1,1.1,1.7,3,1.7,5.6v131.1c0,2.6-0.6,4.4-1.7,5.6c-1.1,1.1-3,1.7-5.6,1.7h-30.3c-2.6,0-4.4-0.6-5.6-1.7
				c-1.1-1.1-1.7-3-1.7-5.6v-24.9l-34.6-41.9v66.8c0,2.6-0.6,4.4-1.7,5.6c-1.1,1.1-3,1.7-5.6,1.7h-30.3c-2.6,0-4.4-0.6-5.6-1.7
				c-1.1-1.1-1.7-3-1.7-5.6V395.1c0-2.6,0.6-4.4,1.7-5.6c1.1-1.1,3-1.7,5.6-1.7h21c2.6,0,4.8,0.4,6.6,1.2c1.8,0.8,3.6,2.2,5.4,4.2
				L1722,438.2L1722,438.2z M1666.1,405.9c-0.5,0-1.1,0.2-1.6,0.6c-0.5,0.4-0.8,1-0.8,1.8v107h2V408.7c0-0.1,0-0.3,0.1-0.4
				c0.1-0.1,0.2-0.2,0.3-0.2c0.1,0,0.3,0.1,0.5,0.2c0.2,0.1,0.4,0.3,0.5,0.4l76.5,85.8v20.8h2V406.1h-2v85.4l-74.5-83.8
				c-0.7-0.7-1.2-1.1-1.6-1.4C1667.1,406,1666.6,405.9,1666.1,405.9L1666.1,405.9z"/>
		</g>
	</g>
</g>
</svg>
