<?xml version="1.0" encoding="utf-8"?>
<!-- Generator: Adobe Illustrator 19.0.0, SVG Export Plug-In . SVG Version: 6.00 Build 0)  -->
<svg version="1.1" id="Layer_1" xmlns="http://www.w3.org/2000/svg" xmlns:xlink="http://www.w3.org/1999/xlink" x="0px" y="0px"
	 viewBox="0 0 380 270" style="enable-background:new 0 0 380 270;" xml:space="preserve">
<style type="text/css">
	.st0{fill:none;stroke:#F15A24;stroke-width:3;stroke-miterlimit:10;}
	.st1{fill:#F15A24;}
</style>
<g id="XMLID_10_">
	<g id="css">
		<g id="XMLID_58_">
			<g id="XMLID_74_">
				<g id="XMLID_75_">
					<g>
						<path class="st0" d="M192.8,201.1c-0.6,0-1.4-0.1-2-0.1c-0.2-0.1-0.5-0.2-0.7-0.2c-14.4-4.5-28.7-9-43.1-13.4
							c-0.8-0.3-1.3-0.6-1.3-1.5c0-1.2-0.2-2.4-0.3-3.6c-0.8-8.7-1.6-17.4-2.4-26.1c-0.8-8.7-1.6-17.5-2.4-26.2
							c-0.8-8.7-1.6-17.5-2.4-26.2c-0.8-8.9-1.6-17.8-2.5-26.7c-0.2-1.7-0.3-3.4-0.5-5.1c-0.1-0.8,0.6-1.5,1.4-1.5H247
							c0.8,0,1.4,0.7,1.4,1.5c-0.2,2.6-0.4,5.1-0.7,7.6c-1.1,12.4-2.3,24.8-3.4,37.2c-1,10.6-1.9,21.2-2.9,31.8
							c-1.1,12.5-2.3,25-3.4,37.5c-0.1,0.8-0.4,1.1-1.1,1.4c-11.4,3.5-22.9,7.1-34.3,10.7C199.3,199.1,196,200.1,192.8,201.1z
							 M160.6,145v1.1v0.1c0.6,7,1.2,13.9,1.8,20.8c0.1,0.9,0.7,1,1.3,1.1c9.1,2.5,18.1,4.9,27.2,7.4c0.6,0.2,1.3,0.2,2,0
							c9-2.4,18.1-4.9,27.1-7.4c0.9-0.2,1.2-0.7,1.2-1.6c0.5-6.3,1.1-12.6,1.6-18.9c0.7-8.1,1.4-16.2,2.1-24.3
							c0.6-7.3,1.3-14.5,1.9-21.8c0.2-1.9,0.3-3.9,0.5-5.9c0.1-0.8-0.6-1.5-1.4-1.5h-68.4c-0.8,0-1.4,0.7-1.4,1.5
							c0.3,3.8,0.6,7.6,1,11.3c0.1,0.7,0.7,1.3,1.4,1.3h51.7c0.8,0,1.4,0.7,1.4,1.5c-0.3,4-0.7,8-1.1,11.9c-0.1,0.7-0.7,1.3-1.4,1.3
							h-32.3c-0.8,0-1.4,0.7-1.4,1.5c0.3,3.9,0.6,7.8,1,11.7c0.1,0.7,0.7,1.3,1.4,1.3H209c0.1,0.2,0.1,0.3,0.1,0.4
							c-0.5,5.8-1,11.6-1.4,17.5c-0.1,0.8-0.5,1-1.2,1.2c-4.6,1.2-9.1,2.5-13.7,3.7c-0.7,0.2-1.4,0.2-2.1,0
							c-4.4-1.2-8.8-2.4-13.2-3.5c-1.3-0.3-1.9-0.9-1.8-2.3c0.1-0.8-0.1-1.7-0.2-2.5c-0.2-2-0.3-3.9-0.6-5.9
							c-0.1-0.7-0.7-1.2-1.4-1.2C169.3,145,165,145,160.6,145z"/>
					</g>
				</g>
			</g>
		</g>
	</g>
	<g id="XMLID_2_">
		<g id="XMLID_94_">
			<g id="XMLID_125_">
				<g id="XMLID_131_">
					<g>
						<path class="st0" d="M308.1,261.7c-1.3-0.5-2.6-1-3.9-1.3c-13.5-3.8-26.9-7.6-40.4-11.3c-1.2-0.3-1.6-0.9-1.7-2
							c-0.8-10-1.7-20.1-2.6-30.1c-0.9-10.1-1.8-20.2-2.7-30.3c-0.8-8.9-1.5-17.8-2.3-26.7s-1.6-17.8-2.4-26.6c0-0.1,0-0.3,0-0.4
							c0-0.8,0.6-1.4,1.4-1.4H364c0.8,0,1.4,0.7,1.4,1.5c-0.1,1.3-0.2,2.5-0.3,3.7c-0.9,10.6-1.9,21.2-2.8,31.8
							c-1,11.2-2.1,22.4-3,33.6c-0.8,8.9-1.5,17.9-2.3,26.8c-0.5,6-1.1,12-1.6,18c-0.1,1.2-0.6,1.8-1.8,2.1
							c-14.2,3.9-28.4,7.9-42.7,11.9c-0.6,0.2-1.2,0.5-1.9,0.7C308.8,261.7,308.4,261.7,308.1,261.7z"/>
					</g>
				</g>
				<g id="XMLID_126_">
					<g id="XMLID_129_">
						<g>
							<path class="st0" d="M292.4,153.7h6.6c0.8,0,1.4,0.6,1.4,1.4v45.5c0,18.6-8.1,24.3-18.9,24.3c-2.5,0-5.5-0.5-7.6-1.3
								c-0.6-0.2-1-0.9-0.9-1.5l0.8-4.7c0.1-0.8,1-1.3,1.8-1.1c1.5,0.5,3.3,0.9,5.2,0.9c7.2,0,11.5-3.6,11.5-17.4L292.4,153.7
								L292.4,153.7z"/>
						</g>
					</g>
					<g id="XMLID_127_">
						<g>
							<path class="st0" d="M312.2,214.6c0.2-0.9,1.3-1.3,2-0.8c3.5,2,8.1,3.6,12.8,3.6c8.2,0,13-4.9,13-12
								c0-6.6-3.3-10.3-11.7-13.9c-10.2-4.1-16.5-10-16.5-19.9c0-10.9,8-19,20.1-19c5.7,0,10,1.3,12.8,2.8c0.6,0.3,0.9,1,0.7,1.6
								l-1.4,4.7c-0.2,0.8-1.2,1.2-1.9,0.8c-2.3-1.2-5.9-2.5-10.3-2.5c-8.5,0-11.7,5.7-11.7,10.5c0,6.6,3.8,9.8,12.4,13.5
								c10.5,4.6,15.9,10.3,15.9,20.6c0,10.8-7.1,20.2-21.8,20.2c-5.5,0-11.6-1.7-15.1-3.9c-0.5-0.3-0.7-0.9-0.6-1.5L312.2,214.6z"
								/>
						</g>
					</g>
				</g>
			</g>
		</g>
	</g>
	<g id="XMLID_11_">
		<g id="XMLID_103_">
			<g id="XMLID_141_">
				<g id="XMLID_147_">
					<g id="XMLID_148_">
						<g>
							<path class="st1" d="M107.9,39.2c-0.3,2.4-0.5,5-0.7,7.6c-0.1,0.7-0.6,1.3-1.4,1.3c-12.9,0-26,0-38.7-0.1h-9.8h-0.7h-0.7
								h-0.8h-1.8c-0.8,0-1.4,0.7-1.4,1.5l0.2,1.8l0.7,8l0.6,6.5l0.1,1.4c0.1,0.7,0.7,1.3,1.4,1.3h1.4h49c0,0.3,0,0.6-0.1,1
								c-0.4,4.8-0.8,9.7-1.3,14.5l-0.6,6.5l-0.3,3.9c-0.4,4.1-0.7,8.4-1.1,12.6c-0.1,0.6-0.5,1.1-1,1.2c-4.3,1.2-8.5,2.3-12.7,3.5
								c-4.3,1.2-8.6,2.4-12.8,3.6c0,0-0.1,0-0.2,0s-0.2,0-0.2,0c-10-2.8-18.2-5.1-25.7-7.2c-0.5-0.2-0.9-0.6-1-1.2
								c-0.6-5.4-1-10.8-1.4-16.1l-0.1-0.7h1.1c0.8,0,1.7,0,2.5,0c0.9,0,1.7,0,2.6,0h1.2c0.7,0,1.3,0.6,1.4,1.3c0,0.3,0,0.7,0.1,1
								c0.1,1.6,0.3,3.2,0.4,4.8c0.2,3.2,2.2,4.4,3.9,4.9c2.3,0.6,4.7,1.2,7,1.9c2,0.5,4,1.1,6.1,1.6c0.6,0.2,1.3,0.2,1.9,0.2
								s1.2-0.1,1.8-0.2h0.1c2-0.5,4-1.1,5.8-1.6c2.3-0.6,4.8-1.3,7.1-1.9c2.5-0.6,4-2.3,4.2-4.9c0.2-2.7,0.4-5.3,0.7-8
								c0.1-1.3,0.2-2.7,0.3-4c0.1-1,0.2-2,0.2-3l0.1-1.6l0.2-1.7c0.1-0.8-0.6-1.5-1.4-1.5h-1.7h-0.8H91h-0.7h-10
								c-6.7,0-13.5,0-20.2,0h-13c-0.7,0-1.3-0.6-1.4-1.3c-0.3-3.9-0.6-7.8-1-11.6c-0.2-1.9-0.4-3.8-0.5-5.8
								c-0.6-6-1.1-11.9-1.6-17.9c-0.1-0.8,0.6-1.5,1.4-1.5C65.2,39.3,86.6,39.3,107.9,39.2 M109.3,36.2c-0.1,0-0.1,0-0.2,0
								c-22.7,0-45.4,0-68.1,0.1c-0.1,0-0.2,0-0.4,0c-0.7,0-1.3,0.6-1.4,1.3c0,0.4,0,0.7,0,1.1c0.6,6.8,1.2,13.5,1.8,20.3
								c0.6,6.5,1.2,13,1.7,19.5c0.1,1.6,0.7,2,2.2,2l0,0c5,0,10.1,0,15.2,0c10.1,0,20.2,0,30.2,0c0.2,0,0.4,0,0.7,0
								c0.4,0,0.9,0,1.4,0c-0.1,1.7-0.2,3.1-0.4,4.6c-0.3,4-0.7,8-1,12c-0.1,1.3-0.6,1.9-1.9,2.2c-4.4,1.1-8.7,2.4-13.1,3.5
								c-0.3,0.1-0.7,0.1-1.1,0.1s-0.8,0-1.2-0.1c-4.4-1.1-8.7-2.4-13.1-3.5c-1.2-0.3-1.5-0.9-1.6-2.1c-0.2-2.8-0.5-5.6-0.7-8.4
								c-0.1-1.1-0.5-1.5-1.5-1.5h-0.1c-1.3,0-2.5,0-3.8,0c-1.7,0-3.4,0-5.1,0c-0.5,0-1.1,0-1.6,0c-0.9,0-1.7,0-2.6,0
								c-0.1,0.5-0.1,0.8-0.1,1c0.6,7,1.2,13.9,1.9,20.9c0.1,0.5,0.8,1.3,1.3,1.4c9.1,2.6,18.3,5.2,27.4,7.7c0.3,0.1,0.7,0.1,1,0.1
								s0.7,0,1-0.1c9-2.5,18.1-5.1,27.1-7.6c1.1-0.3,1.4-0.8,1.5-1.9c0.5-6,1-12,1.6-18c0.6-7,1.2-14,1.9-21
								c0.1-0.9,0.1-1.8,0.2-2.7c0.1-0.8-0.6-1.5-1.4-1.5H57.7c-0.7,0-1.3-0.6-1.4-1.3c-0.3-3.9-0.7-7.7-1.1-11.7
								c-0.1-0.8,0.6-1.5,1.4-1.5l0,0c0.3,0,0.5,0,0.7,0c16.9,0,33.8,0,50.7,0.1l0,0c1.2,0,1.8-0.1,1.9-1.6c0.2-3.6,0.6-7.3,1-10.9
								v-0.1C111.3,36.3,111.4,36.2,109.3,36.2L109.3,36.2z"/>
						</g>
					</g>
				</g>
				<g id="XMLID_142_">
					<g id="XMLID_143_">
						<g>
							<path class="st1" d="M129.1,14.8c0,0.7-0.1,1.3-0.1,2c-0.8,10.8-1.5,21.3-2.3,32c-0.4,4.9-0.7,9.8-1.1,14.8
								c-0.5,6.3-1,12.7-1.4,19c-0.4,5.5-0.8,11.1-1.2,16.5c-0.2,3.5-0.5,7-0.7,10.5c-0.2,2.3-0.3,4.6-0.5,6.9
								c-0.3,3.1-0.5,6.4-0.7,9.5c-0.1,0.7-0.6,1.3-1.2,1.5c-12.7,3.8-25.6,7.6-38.2,11.4l-3.1,0.9c-0.6,0.2-1.1,0.4-1.6,0.6
								c-0.2-0.1-0.4-0.2-0.7-0.2c-0.9-0.3-1.9-0.7-2.9-0.9c-13.8-3.7-26.3-7-39.1-10.3c-0.7-0.2-1.2-0.8-1.3-1.5
								c-0.9-8.6-1.8-18.7-2.9-28.5c-0.5-5.1-1.1-10.1-1.6-15.2c-0.5-5-1.1-10.1-1.6-15.1c-0.5-4.5-0.9-9-1.4-13.4
								c-0.4-4.4-0.9-8.9-1.3-13.3c-0.6-5.4-1.1-10.8-1.7-16.2c-0.2-2.4-0.5-4.8-0.8-7.2c-0.1-1,0.7-2,1.7-2L64.7,16L129.1,14.8
								 M132.3,11.7c-37.5,0.6-74.8,1.2-112.2,1.7c-1,0-1.7,0.8-1.7,1.8l0,0v0.1c0.9,8.9,1.9,17.8,2.8,26.6
								c0.9,8.9,1.8,17.8,2.7,26.7c1,10.1,2.2,20.2,3.2,30.4c1,10.1,2,20.1,3,30.2c0.1,1.2,0.6,1.7,1.7,2
								c13.6,3.5,27.2,7.1,40.7,10.8c1.1,0.3,2.3,0.8,3.4,1.1c0.7,0,1.4-0.1,2.2-0.1c0.4-0.1,0.8-0.3,1.2-0.4
								c14.2-4.2,28.4-8.5,42.7-12.7c1.2-0.4,1.7-0.9,1.8-2.1c0.4-6,0.9-12.1,1.3-18.1c0.6-9,1.2-18,1.9-27
								c0.8-11.3,1.7-22.5,2.5-33.8c0.8-10.7,1.6-21.3,2.3-31.9c0-0.1,0-0.1,0-0.2C132.1,15.2,132.2,13.5,132.3,11.7L132.3,11.7z"/>
						</g>
					</g>
				</g>
			</g>
		</g>
	</g>
</g>
<g id="XMLID_13_">
	<path class="st1" d="M368.4,2c5.4,0,9.7,4.3,9.7,9.7l0,248.1c-0.1,4.5-3.8,8.2-8.3,8.2H10.3c-4.6,0-8.3-3.7-8.3-8.2V11.7
		C2,6.3,6.3,2,11.7,2H368.4 M368.4,0H11.7C5.2,0,0,5.2,0,11.7v248.1c0,5.6,4.6,10.2,10.3,10.2h359.5c5.6,0,10.2-4.6,10.3-10.2V11.7
		C380.1,5.2,374.9,0,368.4,0L368.4,0z"/>
</g>
</svg>
