<?xml version="1.0" encoding="utf-8"?>
<!-- Generator: Adobe Illustrator 19.0.0, SVG Export Plug-In . SVG Version: 6.00 Build 0)  -->
<svg version="1.1" id="Layer_1" xmlns="http://www.w3.org/2000/svg" xmlns:xlink="http://www.w3.org/1999/xlink" x="0px" y="0px"
	 viewBox="0 0 400 560" style="enable-background:new 0 0 400 560;" xml:space="preserve">
<g id="XMLID_58_">
	<path id="XMLID_106_" d="M225.9,91.8l-17.1-0.3c1.3-1.8,1.9-3.3,0.4-4.4l-0.8-0.3l-2.8,3.4l-0.3-0.2c0.7-0.8,1.3-1.9,2-2.8
		c0.9-1.1,2.1-2.6,2.8-3.9l0.9,0l-1.5,2.3c2.7,1.9,3.6,1.5,6.2-1.8c0.3-0.4,0.6-0.7,0.9-1.2c0.3-0.3,0.6-0.7,0.9-1.1c0,0,0,0,0,0
		c0.3-0.3,0.5-0.7,0.8-1.1c4.8-6.2,2.1-8.3,2.1-8.3c-0.8,1.6-2.9,3.4-4.3,4.3c-0.7,0.5-1.2,0.8-1.2,0.8l-2.2,3.4l-0.4,0
		c-0.3,0-0.6,0-0.9,0c-0.1,0-0.2,0-0.2,0l-0.4,0c-0.1-0.2-0.3-0.4-0.6-0.5c-1.5-0.8-1.2-1.6-3.1,0.5l-0.8,0
		c2.7-3.4,6.9-9.7,7.6-10.6c0.1-0.1,0.1-0.1,0.1-0.1c-1.9-1.5-4,0.2-4,0.2s-4.8,6.1-6.8,8.9c-0.4,0.6-0.6,1.1-0.6,1.6
		c0,0.1,0,0.3,0,0.4c0.1,0.6,0.5,0.9,0.9,1.2c0.5,0.3,1,0.5,1,0.5c0.1-0.1,0.2-0.2,0.4-0.3c0.2,0,0.5,0.1,0.7,0.1
		c-0.2,0.3-0.4,0.5-0.7,0.8l-1.9,0L203,83c-0.9-0.6-1.8-0.5-2.7,0c-1.9,1.1-3.9,4-6.5,6.4c-0.7,0.6-1.1,1.2-1.4,1.7l-45.8-0.8
		c-0.2-0.5-0.7-1.1-1.3-1.8c-2.5-2.5-4.4-5.5-6.3-6.7c-0.9-0.5-1.8-0.7-2.7-0.1l-0.1,0.1l-1.9,0c-0.9-1.2-1.6-2-2.1-2.6
		c-1.8-2.2-1.5-1.3-3.1-0.6c-0.3,0.1-0.4,0.3-0.6,0.5l-2,0l-2.1-3.5c0,0-0.5-0.3-1.2-0.9c-1.3-1-3.4-2.9-4.2-4.5c0,0-2.8,2,1.8,8.4
		c0.1,0.1,0.2,0.3,0.3,0.4l-2.3,0l-0.3,0l0,2.6l1.6,0l3,0.1c2.7,3.8,3.6,4.3,6.5,2.5l-1.4-2.4l0.9,0c0.7,1.4,1.8,2.9,2.7,4
		c0.7,0.9,1.3,2,1.9,2.8l-0.3,0.2l-2.6-3.5l-0.8,0.3c-1.5,1-1,2.5,0.3,4.4l-18.2-0.3c-8.6-0.1-15.6,5.9-15.8,13.6l-4.7,271.4
		c-0.1,7.7,6.7,14,15.3,14.1l29.4,0.5c-1.9,0.7-3.7,1.7-5.1,3c-2.4,2.3-4.3,5.2-3.8,8.4c0.6,3.1,3.1,5.3,5.7,6.2
		c2.6,1,6,0.3,7.1-1.7c0.4-0.5,0.7-1.1,0.9-1.6c1.1,2,3.3,3.5,5.8,3.9c-2.7,1.7-2.7,7.4,2.6,9.6c3.6,1.5,8.6,0.3,11.6-2.8
		c-1.4,2.6-3.6,5.2-7.3,6.7c0,0,9.1,5.3,9,12.8c0.1-7.4,9.4-12.4,9.4-12.4c-3.3-1.5-5.4-3.9-6.8-6.4c2.9,2.8,7.5,3.9,10.9,2.6
		c5.4-2.1,5.6-7.8,3-9.6c2.5-0.3,4.7-1.8,5.9-3.7c0.2,0.6,0.4,1.2,0.8,1.7c1,2,4.4,2.9,7,1.9c2.6-0.8,5.2-2.9,5.9-6
		c0.6-3.2-1.1-6.2-3.5-8.6c-1.3-1.3-3.1-2.4-5-3.2l30.4,0.5c8.6,0.1,15.7-5.9,15.8-13.6l4.7-271.4C241.4,98.2,234.5,91.9,225.9,91.8
		z M140.7,102.9c0-1.2,0.5-2.3,1.3-3.3c0.6,0.8,1.2,1.6,1.7,2.4c2.5,4.1,4.5,2.2,4.5,2.2c2.2-1.1,0.2-4.2-1.6-6.8c0.1,0,0.2,0,0.4,0
		c3.3,0,6.2,2.7,6.1,5.6c0,2.9-3,5.5-6.3,5.4c-0.4,0-0.8,0-1.2-0.1c0,0,0,0,0,0C142.8,107.9,140.6,105.5,140.7,102.9z M140.2,399.8
		c-0.4-0.5-1-1.1-1.9-1.4c-0.1-0.1-0.2-0.1-0.3-0.1c-0.5-0.2-1-0.3-1.5-0.4c-4.5-0.5-3,2.3-1,2.5c2,0.1,2.4,0.6,1.3,1
		c0,0,1.7,0,1.4,1.2c-0.3,0.9-1.5,3-4.5,2.6c-1.8-0.8-3.5-2.5-3.8-4.6c-0.3-2.1,1.2-4.4,3.2-6.3c4.1-3.8,11.7-3.9,17.4-0.3
		c-0.8-0.2-1.5-0.4-2.3-0.3C144.2,393.4,140.6,396.3,140.2,399.8z M142.2,401.6c-0.1-0.4-0.1-0.7-0.1-1.1c0-2.8,2.9-5.3,6-5.2
		c3.2,0,6,2.6,5.9,5.4c0,2.8-2.9,5.3-6,5.2C145.2,405.9,142.7,404,142.2,401.6z M159.2,412.4c-2.2,2.7-6.2,3.9-9,2.9
		c-0.5-0.2-0.9-0.4-1.3-0.6c0,0,0,0,0,0c-1.3-1-1.7-2.3-1.6-3.2c0.1-1.7,1.7-1.5,1.7-1.5c-0.6-0.7,0.2-0.9,1.6-0.2
		c1.4,0.7,3.1-0.5,1.8-2c-0.3-0.4-0.8-0.6-1.2-0.8c2.7-1.1,4.7-3.6,4.7-6.3c0.1-1.3-0.3-2.6-1.1-3.7c2,1.8,3.7,3.9,4.7,6
		c0.5,1.1,0.8,2.4,1,3.7C160.7,409,160.1,410.9,159.2,412.4z M163,403.8c-1.5-4.8-5.6-9.1-10.5-12c-1.4-0.9-3-1.6-4.6-2.2l30.7,0.5
		c-1.6,0.5-3.2,1.2-4.7,2C168.9,394.9,164.6,399,163,403.8z M174.9,415.9c-3.9,0.9-9.9-2.2-9.8-7.4c-0.2-3.9,2.4-7.9,6.1-11.1
		c-0.7,1.1-1.2,2.3-1.1,3.5c-0.1,2.7,1.7,5.2,4.3,6.4c-0.5,0.1-1.1,0.4-1.5,0.8c-1.3,1.4,0.3,2.7,1.8,2c1.4-0.6,2.3-0.4,1.7,0.3
		c0,0,1.6-0.2,1.6,1.6C178,413.2,177.3,415,174.9,415.9z M177.9,406.4c-3.2,0-6-2.6-5.9-5.4c0-2.8,2.9-5.3,6-5.2
		c3.2,0,6,2.6,5.9,5.4C184,404.1,181.1,406.6,177.9,406.4z M193.2,395.3c2,1.9,3.4,4.3,3,6.4c-0.3,2-2,3.6-3.7,4.4
		c-3.4,0.6-4.6-1.7-4.8-2.7c-0.3-1.2,1.4-1.1,1.4-1.1c-1.1-0.4-0.7-0.9,1.3-1c2,0,3.6-2.8-0.9-2.5c-1.8,0.1-2.9,0.8-3.6,1.6
		c-0.4-3.4-3.9-6.2-7.7-6.2c-0.8,0-1.5,0.1-2.3,0.2C181.7,390.9,189.2,391.3,193.2,395.3z M191.5,109.3c-3.3,0-6.2-2.7-6.1-5.6
		c0-2.9,3-5.5,6.3-5.4c0.1,0,0.3,0,0.4,0c-2,2.6-4,5.6-1.9,6.8c0,0,2,1.9,4.6-2.1c0.5-0.8,1.1-1.6,1.8-2.4c0.8,0.9,1.2,2.1,1.2,3.3
		C197.8,106.9,194.8,109.4,191.5,109.3z"/>
	<path id="XMLID_68_" d="M371.7,37c-5.2,6-11.9,5.9-11.9,5.9c8.2-3.1,9.8-13.6,5.6-16.8c-4.2-3.2-9.6-0.5-11.2,3.6
		c-1.7,4.2,4.7,6.1,4.7,6.1c-1.6,3.6-4.5,4.7-4.5,4.7l-4.9,1.2c-0.8-1.2-2.2-1.9-3.9-2c-1.3,0-2.6,0.5-3.4,1.2
		c-1.2-2.7-4.1-4.6-7.5-4.6c-4.1-0.1-7.5,2.5-8.2,6l-55.8-1L244,41c0.7-1.7,1.1-3.6-0.6-4.3c-2.3-1-4.2,1.6-5.8,4.2l-1.1,0
		c-0.9-0.4-1.8-0.3-2.5,0L186.9,40l-35.3-0.6l-33.2-0.6c-2.9-0.3-6.5-0.5-10.4-0.2l-1.3,0c-0.6-0.3-1.5-0.5-2.5,0l-1.1,0
		c-1.5-2.7-3.3-5.3-5.6-4.4c-1.6,0.6-1.4,2.5-0.7,4.3L11,36.9l-3.8-0.1l-0.1,3.4l-5,286.2l1.9,0l1.9,0l0.9-52.4
		c1.2,1.5,3.2,2.5,5.2,2.6c3.4,0.2,5.9-2.3,6.3-5.1c0-0.1,0.1-0.3,0.1-0.4c0-0.1,0-0.3,0-0.4c-0.2-1.7-1.1-3.1-2.5-4.1
		c4.1-0.4,7.2-3.7,7.6-7.3c0-0.1,0-0.2,0-0.3c0-0.1,0-0.2,0-0.3c-0.1-1.8-0.8-3.4-1.9-4.6c8.8,2.7,18.1,0.2,23.5-4.1
		c5.6-4.2,7.9-10,7.3-14.1c0-2.8-0.9-5.8-3.8-8.5c-4-3.7-8.9-4.3-12.9-3.5c2-1.5,3.3-3.7,3.6-6.1c0-0.1,0-0.2,0-0.3
		c0-0.1,0-0.2,0-0.3c-0.3-4.4-4-7.8-9-8.1c-1.6-0.1-3.1,0.3-4.4,0.9c1.2-1.5,2.2-3.1,3.2-4.7c5.1-8.4,6.5-17.6,5.7-25.4
		c-1-9.1-3.9-16.1-6.3-20.6c6.4,3.8,13.3,6.4,20.7,7.7c9.1,0.6,17.6-1.3,24.7-4.9c4.1-2,7.4-5.1,9.5-8.6c1.1-1.9,1.9-3.8,2.4-5.8
		c0.2-0.8,0.3-1.6,0.3-2.4c0.2-2.6,0.2-5.2-0.1-7.6c-0.2-1.5-0.5-3-1-4.4c-0.1-1.1-0.4-2.5-1-4c-1.8-4.3-6.6-9.4-18.8-10.2
		c-6.9-0.4-11.5,2.1-14.1,5.7c0-0.4,0-0.7,0-1.1c0.4-8.6-7.2-16.5-16.6-17.9c3.3-1.5,5.7-4.7,5.7-8.1c0.2-4.9-4.7-9.4-10.2-9.4
		c-2.3-0.1-4.5,0.6-6.3,1.8c0,0,0,0,0,0c8.8-13,21-22.9,32.6-29.9c16.6-9.9,31.7-14.2,40.1-16c0.3,1.2,1,2.7,2.4,4.6
		c4.6,6.4,5.1,7.7,8.6,5.4l-0.9-1.5l-4.2-7c0,0-1.4-0.9-2.7-2.2c0.2,0,0.4-0.1,0.6-0.1c1,0.9,2.4,1.7,3.5,1c0,0,1.5-0.2,1.3-1.8
		c0.4-0.1,0.7-0.1,1.1-0.2c1.8,2.8,4.1,6.2,5.5,8c0.4,0.5,0.7,0.8,0.9,1c0,0,3.3-0.8,1.4-3.6c-1-1.5-2.7-3.8-4.1-5.8
		c1.4-0.2,2.7-0.3,4-0.4l30.1,0.5c-0.5,0.3-1,0.7-1.5,1.1c-2,1.9-3.5,4.3-3.1,7c0.5,2.6,2.6,4.3,4.7,5.1c2.1,0.9,5,0.2,5.9-1.4
		c0.3-0.4,0.6-0.9,0.7-1.4c0.7-1.3,1-3.2-1.1-5.1c-4.1-3.8-5.5,2.7-2.2,3.8c0,0,0.2,1.1-0.9,0.7c0,0-0.5,1.9-2.5,1.4
		c-1.3-0.7-2.4-2-2.6-3.5c-0.3-1.7,0.9-3.7,2.7-5.2c1.8-1.7,4.4-2.5,7.1-2.4c2.5,0,5.2,0.8,7.5,2.3c3.2,1.9,5.9,4.6,7.2,7.4
		c0.4,0.9,0.7,1.9,0.8,3c0.2,1.8-0.3,3.5-1.1,4.7c-1.8,2.2-5.1,3.2-7.4,2.4c-0.6-0.2-1.1-0.5-1.6-0.9c-0.3-0.7,0.2-1.4,0.2-1.4
		c-1.6-0.6,0.6-1.3,0.6-1.3c-0.3-1.2,1.7,0,1.7,0c1.7,1.5,5.7-0.6,2.8-2.5c-1.3-0.8-2.5-1-3.6-1c-0.6-0.1-1.5-0.1-2.7,0.4
		c-2.6,1.1-2.8,6.2,1.8,8.2c3,1.2,7.1,0.2,9.6-2.3c-1.1,2.1-3,4.3-6,5.6c0,0,7.5,4.4,7.4,10.5c0.1-6.1,7.8-10.3,7.8-10.3
		c-2.8-1.2-4.5-3.3-5.6-5.3c2.4,2.3,6.2,3.2,9,2.2c4.6-1.8,4.6-6.9,2.1-8.1c-1.2-0.5-2.1-0.6-2.8-0.5c-0.9,0-2,0.2-3.2,0.9
		c-3,1.7,0.9,4.1,2.7,2.6c0,0,2-1.2,1.7,0c0,0,2.2,0.7,0.6,1.3c0,0,0.3,0.4,0.3,0.9c-0.5,0.6-1.2,1-2.1,1.3c-3.2,1-8.5-1.6-8.4-6
		c-0.2-4.4,3.6-8.8,8.6-11.6c2.3-1.4,5-2.1,7.5-2.1c2.7,0,5.3,1,7.1,2.7c1.7,1.6,2.8,3.6,2.5,5.3c-0.3,1.7-1.8,3.1-3.3,3.7
		c-1.1-0.3-1.4-1.5-1.4-1.5c-1.1,0.3-0.8-0.8-0.8-0.8c3.4-1.1,2.2-7.6-2-3.9c-1,0.9-1.5,1.7-1.7,2.5c-0.4,1-0.2,2.5,0.6,3.6
		c0.8,1.7,3.7,2.4,5.8,1.6c2.2-0.7,4.3-2.4,4.9-4.9c0.5-2.6-0.9-5.1-2.9-7.1c-0.4-0.4-0.9-0.8-1.4-1.2l25.5,0.4
		c2.3,0.7,5.5,1.5,9.2,2.6c-1.1,1.4-2.1,2.7-2.8,3.7c-2,2.8,1.3,3.7,1.3,3.7c0.3-0.2,0.6-0.6,1.1-1.1c1-1.2,2.5-3.2,3.9-5.1
		c1.2,0.4,2.9,1,4.9,1.8l-4.2,6.4l-0.7,1c3.4,2.4,4,1.1,8.8-5.1c0.1-0.1,0.2-0.3,0.3-0.4c5.1,2.4,11.4,6,18,11.2
		c4.6,3.7,9.2,8.1,13.7,13.1c2.3,2.6,4.6,5.5,6.8,8.4c6.1,8.7,12.6,18.4,20.7,26.8c0.3,0.3,0.5,0.5,0.8,0.8c3.8,3.9,8,7.6,12.8,10.6
		c5,3.2,11.2,5.5,17.3,5c6-0.6,11.5-3.1,15-7c2.2-2.5,3.6-5.3,4.2-8.2l0,0c2.6-8.1-3.6-15.8-5.5-17.6c-6.7-6.4-17.5-4.5-17.5-4.5
		s-0.3,0-0.9,0.1c1-1.4,1.6-3.1,1.5-4.8c0.2-3.7-2.5-7.3-6.2-8.9c5.8-1.8,10.6-5.7,12.2-10.9c1.1-5.3,0.2-10.7-2.5-14.8
		c0.7,0.2,1.5,0.3,2.3,0.3c3.4,0.1,6.4-1.7,7.7-4.3c0.8,0.8,2,1.3,3.4,1.4c1.4,0,2.6-0.5,3.5-1.3l5.3,1.5c0,0,2.9,1.2,4.4,4.8
		c0,0-6.4,1.8-4.9,6c1.5,4.2,6.8,7.1,11.1,4c4.3-3.1,3.1-13.6-5-17c0,0,6.6,0.2,11.6,6.3c0,0,8.7-7.6,28.5-7.2
		C380.2,44.9,371.7,37,371.7,37z M10.9,40.4l10.3,0.2c-2.5,0.9-4.8,2.3-6.6,4c-1.6,1.5-2.9,3.3-3.8,5.2L10.9,40.4z M21.8,45
		c3.5-0.1,6.1,2.7,6.2,5.7c-0.4,7.2-12.3,7-12.5-0.2c0-1.5,0.7-2.8,1.8-3.8C18.5,45.6,20.1,45,21.8,45z M10.5,62.3
		c1.7,3.6,4.8,6.7,8.8,8.5c-0.5-0.1-0.9-0.1-1.4-0.2c-3.2-0.2-5.9,1.3-7.5,3.5L10.5,62.3z M10.2,83.2c1.7,2.1,4.5,3.5,7.4,3.6
		c1.4,0.1,2.7-0.2,3.9-0.7c-0.5,0.7-1.1,1.5-1.6,2.3c-4.5,6.8-8.1,14.3-10.2,22.4L10.2,83.2z M26.1,106.6
		C20.2,108,15.2,112,12.8,117c1.2-6.7,3.6-13.2,6.8-19.2c0,0,0,0.1,0,0.1C19.4,101.6,22.2,105.2,26.1,106.6z M9.2,136.4
		c1.5,5.4,4.5,10.5,8.4,14.7c-0.8-0.3-1.8-0.5-2.8-0.5c-2.4-0.1-4.4,0.7-5.9,2.2L9.2,136.4z M20.2,158.1c-0.4,6.2-10.6,6.1-10.9-0.2
		c0-0.1,0-0.1,0-0.2c0-2.6,2.7-4.5,5.5-4.5C17.9,153.1,20.1,155.5,20.2,158.1z M7.4,243.4c1.6,3.4,4.4,6,7.6,7.9
		c-3.5-0.2-6.4,1.7-7.8,4.3L7.4,243.4z M6.9,268.3l0.1-5.7c0.8,1.3,2.1,2.4,3.5,3.2C9,266.1,7.8,267,6.9,268.3z M8.7,271.2
		c-0.2-3.9,6.7-3.8,6.9,0.1C15.3,275.2,8.9,275.1,8.7,271.2z M9,259c-0.1-2.9,2.9-5.1,6-5.1c3.3-0.1,5.7,2.6,5.8,5.3
		C20.3,266,9.2,265.8,9,259z M37.8,236.3c4.3-1.2,2.5,3,2.4,3.2c0.2-0.1,4.9-2.8,5.5,0.3c0.6,2.7-5.2,9.8-12.5,11.6
		c-13,0.5-16.6-9.9-17.3-12.5c0.3,0.7,1.1,1.5,3.3-2.3c3.1-5.2-0.4-1.7-3.2-10.3c-0.5-1.5-0.6-3-0.4-4.5l0,0c1.2-1.6,2.6-3.2,4-4.6
		c0.6-0.6,1.2-1.2,1.8-1.8c-0.2,0.6-0.3,1.3-0.4,2c-0.3,4.6,4.2,8.1,9,8.3c0.5,0,1,0,1.5,0c-1.9,1.1-3.1,2.7-3.1,4.2
		C28.4,234.8,33.3,237.5,37.8,236.3z M30.2,212.1c3.6-0.1,6.1,2.8,6.2,5.7c-0.5,7.2-12.4,7-12.6-0.2
		C23.7,214.4,26.9,212.1,30.2,212.1z M25.6,204.2c-1.8,3.2-4.1,6.2-6.8,9.1c-0.6,0.7-1.3,1.3-1.9,2c-3.5,3.8-6.6,8-8.7,12.6
		c-0.2,0.4-0.4,0.8-0.5,1.2l0.7-42.7c0.3,0.7,0.7,1.3,1.1,2c5,8.1,16.3,8,21,0.9C29.9,194.2,28.4,199.3,25.6,204.2z M30,177.8
		c-0.5,3.5-2.3,10.2-9.8,8.6c-10-2.2-1.2-6.5-1.2-6.5s-5.9-0.6-3.8-4.1c2.2-3.5,0.5-4.9-2-5.4c-1.1-0.2-3.1,1-4.7,3.3L8.8,163
		c1.5,1.4,3.7,2.2,5.9,2.4c4.2,0.2,7.5-2.8,8.3-6.3C25.1,162.7,28.4,169.1,30,177.8z M59.5,147.1c0,0,8.3,1.1,5.3-6.4
		c-3-7.5,2.2-6.2,4-6c0,0-5.6-5.9-0.7-7.5c4.7-1.5,22.4,10.1,11.2,27.2c-1.8,2.2-4.3,4.1-7.2,5.5c-6.4,3.2-14.7,4.8-22.5,4.2
		c-9.3-1.7-19.1-6.2-26.3-12.8c-1.5-1.9-3-3.5-4.3-4.6c-2.7-3.4-4.7-7.3-5.7-11.4c-0.5-2-0.9-4.1-1.1-6.2c0.3,0.9,0.7,1.7,1.2,2.5
		c3.3,5.8,10.1,10,17.5,9.9c7.3,0.3,14.1-3.5,17.6-8.9C48.1,139.4,52,146.4,59.5,147.1z M17.3,127.1c0-3.5,3.5-6.5,7.4-6.3
		c3.9,0,7.3,3.1,7.1,6.6c0,3.4-3.5,6.5-7.3,6.3c-2.5,0-4.9-1.3-6.1-3.2C17.6,129.5,17.2,128.3,17.3,127.1z M47.3,124.1
		c0.1,7.7-7.7,14.4-16.3,14c-2,0-3.9-0.3-5.6-1c5.5-0.3,10.3-4.7,10.2-9.7c0.2-5.3-5-10.1-10.9-10.1c-3.8-0.1-7.3,1.7-9.4,4.4
		c1-6.9,8.3-12.6,16.2-12.3C40.1,109.4,47.7,116.4,47.3,124.1z M30,92.2c3.5,0,6.5,2.8,6.4,5.9c0,3.1-3.1,5.8-6.6,5.7
		c-3.5,0-6.5-2.8-6.4-5.9C23.4,94.8,26.5,92.1,30,92.2z M11.5,78.6c0-0.1,0-0.1,0-0.2c0.1-3,3.1-5.2,6.4-5.3
		c3.5-0.1,6.1,2.7,6.1,5.7C23.5,86,11.7,85.8,11.5,78.6z M26.7,79.5c0-0.1,0-0.2,0-0.3c0-0.1,0-0.2,0-0.3c0-0.1,0-0.2,0-0.3
		c-0.2-2.8-1.7-5.1-4-6.5c1.6,0.4,3.2,0.7,4.9,0.7c2.2,0.1,4.4-0.2,6.4-0.8C31.5,74.4,29,76.8,26.7,79.5z M38.4,66.8
		c-2.8,2.2-6.6,3.5-10.7,3.6c-8.8,0-15.6-6.8-15.6-14.4c0-1.4,0.2-2.8,0.7-4c0.6,3.8,4.6,6.5,8.9,6.8c5,0.3,8.8-3.5,9.2-7.7
		c0-0.1,0-0.2,0-0.3c0-0.1,0-0.2,0-0.3c-0.2-3.9-3.2-7-7.4-7.8c1.5-0.4,3.1-0.6,4.7-0.6c8.8,0,15.6,6.8,15.6,14.4
		C43.7,60.6,41.6,64.3,38.4,66.8z M35,40.8L49.4,41c-2.9,1.2-5,3.9-5.4,6.8C42,44.7,38.8,42.2,35,40.8z M53.8,57.2
		c-2.9,1.8-5.9,3.7-8.9,5.9c1.1-2,1.7-4.2,1.8-6.5c0,0,0,0,0-0.1c0,0,0,0,0-0.1c0-0.8-0.1-1.7-0.2-2.5c1.7,1.5,4,2.5,6.5,2.6
		c0.7,0,1.4,0,2.1-0.1C54.6,56.7,54.2,56.9,53.8,57.2z M46.8,48.4c-0.1-3.1,3.1-5.4,6.3-5.5c3.5-0.1,6.1,2.7,6.2,5.7
		C58.9,55.8,47,55.6,46.8,48.4z M60,53.7c1.2-1.3,2-3,2.1-4.7c0-0.1,0-0.2,0-0.3c0-0.1,0-0.2,0-0.3c-0.2-3.3-2.3-6-5.4-7.2l33.7,0.6
		C82.7,43.8,71.9,47.3,60,53.7z M178,43.6c-4.1,2.3-7.6,5.7-9,9.6c-1.2-4-4.6-7.5-8.7-9.9c-0.2-0.1-0.4-0.2-0.6-0.4l18.9,0.3
		C178.4,43.4,178.2,43.5,178,43.6z M270.5,45.9c2.1,0,3.9,1.7,3.8,3.5c0,1.8-1.9,3.4-3.9,3.4c-0.5,0-1-0.1-1.5-0.3
		c-1.4-0.6-2.3-1.8-2.3-3.2C266.6,47.4,268.4,45.8,270.5,45.9z M264.6,44.8c-1.2,1.2-1.9,2.7-1.9,4.4c0,0.4,0,0.9,0.1,1.3
		c-7.8-3.1-14.3-5-18-6L264.6,44.8z M272.8,69.2c-3.3-3.5-6.8-6.7-10.2-9.5c-5.3-4.4-10.6-7.7-15.2-10.2c4.4,1.3,10.4,3.2,17.4,6
		c0.7,0.3,1.4,0.5,2.1,0.8c4,1.7,8.3,3.6,12.6,5.8C276,63.1,273.2,65.9,272.8,69.2z M277.8,73.5c-0.8-0.9-1.3-2-1.2-3.2
		c0-2.7,2.7-5.1,5.8-5c3,0,5.7,2.5,5.6,5.2c0,2.7-2.7,5.1-5.8,5C280.4,75.4,278.8,74.7,277.8,73.5z M300.9,106.1
		c-6.6-7.6-12-15.9-17.4-24c-0.8-1.1-1.7-2.3-2.5-3.4c0.4,0,0.7,0.1,1.1,0.1c5.1,0.2,9.7-3.8,9.7-8.3c0-0.6,0-1.1-0.1-1.6
		c5.7,3.5,11.9,7.3,19.5,8.4c0.2,0,0.4,0.1,0.6,0.1c-2.7,1.7-4.6,4.6-4.6,7.6c-0.2,5.1,4.8,9.8,10.6,9.8c0.2,0,0.4,0,0.6,0
		c-1.8,2-3.3,4.7-3.5,8.5c-1.3-1.9-3.7-3.2-6.3-3.2C304.7,100,301.2,102.8,300.9,106.1z M304.7,106.8c0-1.8,1.8-3.3,3.7-3.2
		c2,0,3.7,1.6,3.6,3.3c0,1.8-1.8,3.3-3.7,3.2C306.4,110.1,304.7,108.5,304.7,106.8z M328.3,101.1c0,0,1.8-5.1,7.4-2.1
		c5.6,3,10.9,13,2.3,19.1c-7.1,5-16.9,3.3-21.8,2.1c-2.9-1.9-5.7-4.2-8.3-6.7c0.1,0,0.2,0,0.4,0c3.2,0.1,6.1-1.8,7.2-4.4
		c1.7,4.4,6,3.9,7.8,2.7c2.3-1.6,3.9-5.1,2-8.5C323.4,100.1,326.8,99.4,328.3,101.1z M324.8,85.3c0,3.3-3.3,6.2-7,6
		c-3.7,0-6.9-3-6.8-6.3c0-3.3,3.3-6.2,7-6C321.7,79,324.9,82,324.8,85.3z M322.2,69.5c-5.9,4.1-13.8,3.4-18.6,2.3
		c-5.3-2.5-10.2-6.1-15.3-9c-0.2-0.1-0.3-0.2-0.5-0.3c-4.7-2.7-9.3-5.1-13.7-7.2c2.4-1.2,4.1-3.4,4.1-5.9c0.1-1.6-0.6-3.2-1.7-4.4
		l33.7,0.6c-1.2,0.4-2.6,1.1-4,2c0,0,0,0,0,0c-1.1,0.6-1.6,1.1-1.6,1.1c0,0,0,0,0.1,0c-2,1.7-3.6,4-4,7.2c-1.2,9.5,5.8,9.3,7.9,7.8
		c2.1-1.5,3.6-4.8,1.8-7.9c-1.8-3.1,1.4-3.8,2.9-2.1c0,0,1.7-4.7,6.9-1.9C325.3,54.5,330.3,63.8,322.2,69.5z"/>
	<path id="XMLID_66_" d="M233.2,51.5c-1.8-0.9-1.1-1.9-4,1.5c-0.5,0.6-1.1,1.3-1.9,2.2c-0.1,0.1-0.2,0.2-0.2,0.3
		c-4.7,5.7-2.5,6.8-2.5,6.8c1.7,0.9,2.9,0.2,3.8-0.9c0.7-0.8,1.3-1.9,2-2.8c0.7-0.8,1.5-1.9,2.2-3C233.8,53.8,234.5,52.1,233.2,51.5
		z"/>
	<path id="XMLID_65_" d="M222.2,69.5l-0.2,0.2c0,0,3.1,2.7,5.8-1.5c2.7-4.3,7.2-7.8,4.4-9.7l-0.8-0.3l-2.8,3.4L222.2,69.5z"/>
	<path id="XMLID_64_" d="M216.8,60.8c-3.8,3.5,0,5.4,0,5.4l0.1-0.1l9.7-11.1l0.1-0.1l-0.5-0.6C223.1,52.5,220.6,57.3,216.8,60.8z"/>
	<path id="XMLID_63_" d="M212.9,72.5c-0.6,1-0.7,1.7-0.6,2.2c-0.1,0.7,0.2,1.3,0.9,1.7c0,0,1.1,1.1,2.8-0.1c0.5-0.4,1.1-0.9,1.7-1.8
		c0,0,0,0,0,0c0.8-0.8,1.4-1.6,1.4-1.6s0.4-0.5,0.9-1.3c0,0,0,0,0,0c0.7-0.8,1.3-1.5,1.9-2.3c1.9-2.3,3-4.4,1-5.6
		c-2.3-1.3-3.5-0.1-4.7,1.8c-0.4,0.2-0.8,0.5-1.1,0.8c-1,1-1.9,2.4-2.7,3.8C213.8,71,213.3,71.8,212.9,72.5z"/>
	<path id="XMLID_62_" d="M134.8,81.4c0,0,2-0.5,2-2c0-0.4-0.2-1-0.6-1.6c-1.9-2.8-6.5-9.1-6.5-9.1s-2-1.8-4-0.4c0,0,4.5,7.2,7.3,11
		C133.7,80.3,134.4,81.1,134.8,81.4z"/>
	<path id="XMLID_61_" d="M114.2,52.4l-0.5,0.5l0.1,0.1l9.3,11.5l0.1,0.1c0,0,3.9-1.8,0.2-5.4C119.5,55.6,117.2,50.7,114.2,52.4z"/>
	<path id="XMLID_60_" d="M122.8,64.6c-0.4-0.4-0.7-0.7-1.1-0.9l0,0c-1.2-1.9-2.3-3.2-4.7-1.9c-2.1,1.1-1,3.2,0.8,5.6
		c0.6,0.8,1.2,1.6,1.8,2.3c0,0,0,0,0,0c0.4,0.8,0.8,1.4,0.8,1.4s0.5,0.8,1.3,1.7c0.6,0.9,1.1,1.5,1.6,1.9c1.7,1.3,2.8,0.2,2.8,0.2
		c0.7-0.4,1-0.9,1-1.7c0.1-0.5,0-1.2-0.5-2.3c-0.4-0.8-0.9-1.7-1.4-2.6C124.6,67,123.7,65.6,122.8,64.6z"/>
	<path id="XMLID_59_" d="M111.9,66.1c2.6,4.4,5.8,1.7,5.8,1.7l-0.2-0.2l-6.4-8.4l-2.5-3.3l-0.8,0.3C105,58.1,109.3,61.8,111.9,66.1z
		"/>
	<path id="XMLID_57_" d="M112.8,53.2c-0.6-0.8-1.2-1.5-1.6-2c-2.9-3.7-2.3-2.7-4.1-1.9c-1.2,0.6-0.7,2.1,0.2,3.7
		c0.7,1.2,1.7,2.5,2.4,3.5c0.6,0.9,1.2,1.9,1.8,2.7c1,1.3,2.1,2.1,3.9,1.2c0,0,2.2-1-2.3-6.9C113,53.4,112.9,53.3,112.8,53.2z"/>
</g>
</svg>
