<!--?xml version="1.0" encoding="utf-8"?-->
<!-- Generator: Adobe Illustrator 19.0.0, SVG Export Plug-In . SVG Version: 6.00 Build 0)  -->
<svg version="1.1" id="Layer_1" xmlns="http://www.w3.org/2000/svg" xmlns:xlink="http://www.w3.org/1999/xlink" x="0px" y="0px" viewBox="0 0 380 270" style="" xml:space="preserve" class="">
<style type="text/css">
	.st0{fill:#5495D6;stroke:#000000;stroke-width:3;stroke-miterlimit:10;}
	.st1{fill:#F15A24;stroke:#DB0707;stroke-miterlimit:10;}
	.st2{fill:#F15A24;}
</style>
<g id="XMLID_8_">
	<path id="XMLID_2_" class="st0 FVJHiFkV_0" d="M321.9,139.7L204.3,257.2c-3.7,3.7-9.7,3.7-13.4,0L73.4,139.7c-3.7-3.7-3.7-9.7,0-13.4L191,8.8
		c3.7-3.7,9.7-3.7,13.4,0l117.5,117.5C325.6,130,325.6,136,321.9,139.7z"></path>
	<path id="XMLID_6_" class="st1 FVJHiFkV_1" d="M283.5,109.2c-1.9-1.7-4.8-2.6-8.4-2.6c-3.5,0-7,0.5-10.3,1.7c-9.6,3.1-21.7,12.1-36.1,26.9
		l-7.6,8.1l-7.7,8.5l-7.4,8.5l-17,20.2l9.8-17.5c3.8-7.2,7-15,9.6-23.4l1.8-6c0.5-1.7,1-3.4,1.4-5c0.4-1.6,0.9-3.5,1.7-6.1
		s1.8-5.1,3.1-7.3l0.8-1.4c0-0.3,0-0.5,0-0.8s-0.1-0.4-0.4-0.4c-0.1,0-0.3,0-0.4,0.1l0,0c-0.3,0-0.5,0.1-0.7,0.3
		c-2.7,2.5-5.9,3.6-9.5,3.6c-1.6,0-3.6-0.5-6.1-1.4c1.8-2.2,3.6-4.6,5.5-6.9c2.5,0.5,5.2,0.8,8.2,0.8c6,0,11.9-1.3,17.5-3.9
		c5.5-2.6,10.1-5.9,13.5-10.1c3.5-4.3,5.2-8.7,5.2-13.3c0-6.1-3-11-9-14.6c2.7-1.7,5.1-2.9,7.3-3.3c0.9-0.1,1.4-0.3,1.7-0.4
		c0.1-0.1,0.3-0.4,0.3-0.7s-0.4-0.4-1-0.4c-2.2,0-5.6,1.3-10.2,3.8c-5.6-2.9-12.8-4.2-21.7-4.2s-17.5,1.7-26.1,5
		c-4.1,1.6-7.8,3.4-11.3,5.5s-6.5,4.6-9.1,7c-2.6,2.6-4.6,5.2-6,8.1s-2.1,5.8-1.9,8.6c0.1,2.9,1.2,5.2,3.1,7.2
		c1.8,1.7,3.8,2.6,6.1,2.6c6.1,0,11.8-1.8,16.8-5.6c2.4-1.7,4.4-3.6,6.1-6c1.8-2.2,3.3-4.6,4.6-7c1.2-2.5,2.1-5,2.7-7.3
		c0.7-2.5,0.9-4.4,0.8-5.8c0-1.4-0.1-2.2-0.1-2.5s-0.3-0.4-0.7-0.4s-0.7,0.7-0.7,1.9c-0.4,2.7-2.1,6.7-5.1,11.5
		c-1.4,2.4-3.1,4.7-5,6.9c-1.8,2.4-3.9,4.4-6,6.4c-2.1,1.8-4.3,3.4-6.7,4.6s-4.4,1.8-6.5,1.8s-3.8-0.7-5.2-1.8
		c-1.7-1.4-2.6-3.5-2.7-6.4c-0.1-5,2.2-10.1,7-15.2c5-5.2,11.2-9.4,19-12.7c8.5-3.5,17.3-5.2,26.4-5.2c9,0,15.7,1.3,20,3.9l-2.4,1.6
		c-6.1,4.2-12.4,9.5-18.7,16.2c-3.9,4.1-9,10.2-15.2,18.4l-0.8,1c-1.2-0.8-1.8-1.8-1.8-3s0.4-2.2,1.3-3.4c0.9-1,2.2-1.7,3.9-2.1
		c0.4-0.1,0.7-0.3,0.7-0.4c0-0.4-0.7-0.5-1.9-0.5c-1.3,0-2.6,0.5-4.1,1.6c-1.4,1.2-2.2,2.5-2.2,4.2c0,1.9,1,3.5,3.1,5l-4.9,6.8
		l-0.8-0.4c-1.7-0.8-3.4-1.6-5.1-2.2c-1.7-0.7-3.6-1.4-6-2.1s-5.6-1-10.2-1c-7.4,0-13.6,1.8-18.3,5.3s-7,8-7,13.3
		c0,5,1.7,8.7,5.1,11.6c0.3,0.3,0.5,0.4,0.8,0.7c1.9,2.2,5.3,3.3,10.3,3.3c0.7,0,1.3,0,1.9-0.1c2.2-0.1,4.2-0.7,6.1-1.4
		c7.8-2.9,16.6-9.8,26-20.7c0.7,0.1,1.3,0.3,1.8,0.4c1.4,0.3,2.6,0.4,3.5,0.4c1,0,2.1-0.1,3.3-0.4c3-0.7,5.5-1.6,7.4-2.7
		c-3.3,4.2-9.6,12-19.6,23.8l-15,17.9c-9.8,11-18.1,19-25.2,24.3c-3.3,2.5-6.1,4.2-8.5,5.2c-2.5,1-4.8,1.6-7.2,1.6s-4.2-0.5-5.6-1.6
		c-1.6-1.2-2.1-2.5-2.1-4.2v-0.4c0,0.4,1.3,0.5,2.4,0.5s1.7-0.3,2.4-0.8s0.9-1.2,0.9-1.9c0-1.7-1.2-2.6-3.4-2.6
		c-0.9,0-2.1,0.5-3.4,1.6c-0.9,0.7-1.3,1.7-1.3,3.1c0,2.2,0.9,3.9,2.7,5.3c0.9,0.7,2.1,1.3,3.5,1.7s3.1,0.7,5.3,0.7
		c2.1,0,4.6-0.7,7.3-1.9c7.6-3.5,18.1-12.7,31.7-27.4l6.7-7.4l10.7-12.5l15-18.5c-9.5,16.2-16.4,31.6-20.9,46.1l-2.4,7.7
		c-0.7,2.1-1.3,4.1-1.8,5.6c-1.4,3.9-2.7,6.5-4.6,8c-0.3,0.1,0,0.5,0,0.9s0,0.4,0,0.4s-0.4,0,0.1,0s1.6-0.8,3-2.5l14.7-17.5
		l10.8-12.8l13-14.6c11.8-12.8,21.6-21.9,29.8-27.6c4.2-2.9,8-5,11.5-6.3s6.8-1.9,9.8-1.9s5.3,0.8,6.9,2.5c1.6,1.6,2.4,3.9,2.4,6.9
		c0,4.2-2.1,8.4-6.1,12.8c-1.8,1.9-3.9,3.6-6.1,5.2c-2.2,1.6-4.2,2.6-5.6,3.1s-2.2,1-2.2,1.3s0.3,0.4,0.9,0.4c0.5,0,1.6-0.3,2.9-0.9
		c5.8-2.7,10.6-6.4,14.4-10.8c3.6-4.4,5.5-8.4,5.3-11.9C286.5,113.4,285.5,111,283.5,109.2z M215.2,95.2c3-4.2,6.7-8.9,11.1-14.2
		c4.4-5.2,8.7-9.4,12.8-12.4c2.9,2.4,4.3,5.6,4.3,9.5c0,6-1.7,11.3-5.1,16.2c-1.6,2.2-3.3,4.2-5.3,5.8c-1.9,1.7-4.2,3-6.3,4.2
		c-2.2,1-4.4,1.9-6.7,2.5c-2.2,0.5-4.4,0.8-6.5,0.8s-4.3-0.3-6.7-0.8L215.2,95.2z M190,118.3c-2.7,3.5-5.2,6.5-7.3,9
		c-0.5,0.5-1,1.2-1.6,1.7c0.3-1,0.4-2.1,0.4-3.1c0-2.2-0.5-4.1-1.7-5.5c-0.5-0.7-1.2-1.2-1.8-1.6c-0.7-0.4-1.4-0.5-2.2-0.5
		s-1.4,0.3-1.8,0.8c-0.5,0.5-0.7,1.2-0.7,1.8c0,0.7,0.3,1.3,0.8,1.7c0.5,0.5,1.2,0.7,1.9,0.7c0.8,0,1.4-0.4,2.1-1.2
		c1,1,1.6,2.4,1.6,3.9c0,2.4-0.5,4.3-1.7,6.3c-0.5,0.4-0.9,0.9-1.3,1.3c-1.8,1.6-3.4,2.7-5,3.6s-3,1.4-4.6,1.8
		c-1.4,0.3-3.3,0.5-5.5,0.5c-0.4,0-0.7,0-1,0c-1.6-0.3-3-0.7-4.3-1.3c-0.1-0.1-0.4-0.1-0.5-0.3c-1.6-1-2.5-2.4-2.5-4.1v-0.3
		c0,0.4,1.6,0.5,2.6,0.5s1.8-0.3,2.5-0.8s1-1.3,1-2.1s-0.3-1.4-0.9-1.8c-0.7-0.4-1.3-0.7-1.8-0.7c-1.4,0-2.5,0.4-3.5,1
		c-0.5,0.4-0.9,0.9-1.3,1.4c-0.4,0.7-0.5,1.4-0.5,2.4c0,0.1,0,0.3,0,0.3c-1.6-2.2-2.4-5-2.4-8c0-4.7,2.1-8.7,6.1-12
		c1.9-1.4,4.1-2.6,6.5-3.5c2.5-0.8,5.1-1.3,7.7-1.3c2.6,0,5.1,0.4,7.3,1c1.3,0.4,2.7,1,4.4,1.8s3.6,1.8,6,3.1
		c1.2,0.7,2.5,1.3,3.9,1.8L190,118.3z"></path>
</g>
<g>
	<path class="st2 FVJHiFkV_2" d="M370,2c4.4,0,8,3.6,8,8v250c0,4.4-3.6,8-8,8H10c-4.4,0-8-3.6-8-8V10c0-4.4,3.6-8,8-8H370 M370,0H10
		C4.5,0,0,4.5,0,10v250c0,5.5,4.5,10,10,10h360c5.5,0,10-4.5,10-10V10C380,4.5,375.5,0,370,0L370,0z"></path>
</g>
<style>.FVJHiFkV_0{stroke-dasharray:725 727;stroke-dashoffset:726;animation:FVJHiFkV_draw_0 7300ms ease-in-out 0ms infinite,FVJHiFkV_fade 7300ms linear 0ms infinite;}.FVJHiFkV_1{stroke-dasharray:1688 1690;stroke-dashoffset:1689;animation:FVJHiFkV_draw_1 7300ms ease-in-out 0ms infinite,FVJHiFkV_fade 7300ms linear 0ms infinite;}.FVJHiFkV_2{stroke-dasharray:2554 2556;stroke-dashoffset:2555;animation:FVJHiFkV_draw_2 7300ms ease-in-out 0ms infinite,FVJHiFkV_fade 7300ms linear 0ms infinite;}@keyframes FVJHiFkV_draw{100%{stroke-dashoffset:0;}}@keyframes FVJHiFkV_fade{0%{stroke-opacity:1;}94.52054794520548%{stroke-opacity:1;}100%{stroke-opacity:0;}}@keyframes FVJHiFkV_draw_0{6.8493150684931505%{stroke-dashoffset: 726}75.34246575342466%{ stroke-dashoffset: 0;}100%{ stroke-dashoffset: 0;}}@keyframes FVJHiFkV_draw_1{6.8493150684931505%{stroke-dashoffset: 1689}75.34246575342466%{ stroke-dashoffset: 0;}100%{ stroke-dashoffset: 0;}}@keyframes FVJHiFkV_draw_2{6.8493150684931505%{stroke-dashoffset: 2555}75.34246575342466%{ stroke-dashoffset: 0;}100%{ stroke-dashoffset: 0;}}</style></svg>
