<!--?xml version="1.0" encoding="utf-8"?-->
<!-- Generator: Adobe Illustrator 19.0.0, SVG Export Plug-In . SVG Version: 6.00 Build 0)  -->
<svg version="1.1" id="Layer_1" xmlns="http://www.w3.org/2000/svg" xmlns:xlink="http://www.w3.org/1999/xlink" x="0px" y="0px" viewBox="0 0 960 560" style="" xml:space="preserve">
<style type="text/css">
    
	.st0{fill:#5495D6;stroke:#000000;stroke-width:5;stroke-miterlimit:10;}
    
	.st1{fill:#F15A24;stroke:#DB0707;stroke-width:2;stroke-miterlimit:10;}
</style>
<path id="XMLID_1_" class="st0 VbDuJYMS_0" d="M738.1,294.4L489.4,543.1c-7.8,7.8-20.5,7.8-28.3,0L212.4,294.4c-7.8-7.8-7.8-20.5,0-28.3
	L461.1,17.4c7.8-7.8,20.5-7.8,28.3,0l248.7,248.7C745.9,274,745.9,286.6,738.1,294.4z"></path>
<path id="XMLID_6_" class="st1 VbDuJYMS_1" d="M656.9,229.8c-4.1-3.6-10.2-5.5-17.7-5.5s-14.9,1.1-21.8,3.6c-20.4,6.6-45.9,25.7-76.3,56.9
	l-16,17.1l-16.3,18l-15.7,18l-35.9,42.8l20.7-37c8-15.2,14.9-31.8,20.4-49.5l3.9-12.7c1.1-3.6,2.2-7.2,3-10.5
	c0.8-3.3,1.9-7.5,3.6-13c1.7-5.5,3.9-10.8,6.6-15.5l1.7-3c0-0.6,0-1.1,0-1.7c0-0.6-0.3-0.8-0.8-0.8c-0.3,0-0.6,0-0.8,0.3l0,0
	c-0.6,0-1.1,0.3-1.4,0.6c-5.8,5.2-12.4,7.7-20.2,7.7c-3.3,0-7.7-1.1-13-3c3.9-4.7,7.7-9.7,11.6-14.6c5.2,1.1,11.1,1.7,17.4,1.7
	c12.7,0,25.1-2.8,37-8.3c11.6-5.5,21.3-12.4,28.5-21.3c7.5-9.1,11.1-18.5,11.1-28.2c0-13-6.4-23.2-19.1-30.9
	c5.8-3.6,10.8-6.1,15.5-6.9c1.9-0.3,3-0.6,3.6-0.8c0.3-0.3,0.6-0.8,0.6-1.4s-0.8-0.8-2.2-0.8c-4.7,0-11.9,2.8-21.6,8
	c-11.9-6.1-27.1-8.8-45.9-8.8s-37,3.6-55.3,10.5c-8.6,3.3-16.6,7.2-24,11.6c-7.5,4.4-13.8,9.7-19.3,14.9
	c-5.5,5.5-9.7,11.1-12.7,17.1s-4.4,12.2-4.1,18.2c0.3,6.1,2.5,11.1,6.6,15.2c3.9,3.6,8,5.5,13,5.5c13,0,24.9-3.9,35.6-11.9
	c5-3.6,9.4-7.7,13-12.7c3.9-4.7,6.9-9.7,9.7-14.9c2.5-5.2,4.4-10.5,5.8-15.5c1.4-5.2,1.9-9.4,1.7-12.2c0-3-0.3-4.7-0.3-5.2
	c0-0.6-0.6-0.8-1.4-0.8c-0.8,0-1.4,1.4-1.4,4.1c-0.8,5.8-4.4,14.1-10.8,24.3c-3,5-6.6,9.9-10.5,14.6c-3.9,5-8.3,9.4-12.7,13.5
	c-4.4,3.9-9.1,7.2-14.1,9.7c-5,2.5-9.4,3.9-13.8,3.9s-8-1.4-11.1-3.9c-3.6-3-5.5-7.5-5.8-13.5c-0.3-10.5,4.7-21.3,14.9-32.1
	c10.5-11.1,23.8-19.9,40.3-26.8c18-7.5,36.7-11.1,55.8-11.1c19.1,0,33.2,2.8,42.3,8.3l-5,3.3c-13,8.8-26.2,20.2-39.5,34.3
	c-8.3,8.6-19.1,21.6-32.1,39l-1.7,2.2c-2.5-1.7-3.9-3.9-3.9-6.4c0-2.5,0.8-4.7,2.8-7.2c1.9-2.2,4.7-3.6,8.3-4.4
	c0.8-0.3,1.4-0.6,1.4-0.8c0-0.8-1.4-1.1-4.1-1.1c-2.8,0-5.5,1.1-8.6,3.3c-3,2.5-4.7,5.2-4.7,8.8c0,4.1,2.2,7.5,6.6,10.5L468,237
	l-1.7-0.8c-3.6-1.7-7.2-3.3-10.8-4.7c-3.6-1.4-7.7-3-12.7-4.4c-5-1.4-11.9-2.2-21.6-2.2c-15.7,0-28.7,3.9-38.7,11.3
	c-9.9,7.5-14.9,16.9-14.9,28.2c0,10.5,3.6,18.5,10.8,24.6c0.6,0.6,1.1,0.8,1.7,1.4c4.1,4.7,11.3,6.9,21.8,6.9c1.4,0,2.8,0,4.1-0.3
	c4.7-0.3,8.8-1.4,13-3c16.6-6.1,35.1-20.7,55-43.7c1.4,0.3,2.8,0.6,3.9,0.8c3,0.6,5.5,0.8,7.5,0.8c2.2,0,4.4-0.3,6.9-0.8
	c6.4-1.4,11.6-3.3,15.7-5.8c-6.9,8.8-20.4,25.4-41.4,50.3l-31.8,37.9c-20.7,23.2-38.4,40.3-53.3,51.4c-6.9,5.2-13,8.8-18,11.1
	c-5.2,2.2-10.2,3.3-15.2,3.3c-5,0-8.8-1.1-11.9-3.3c-3.3-2.5-4.4-5.2-4.4-8.8v-0.8c0,0.8,2.8,1.1,5,1.1c2.2,0,3.6-0.6,5-1.7
	c1.4-1.1,1.9-2.5,1.9-4.1c0-3.6-2.5-5.5-7.2-5.5c-1.9,0-4.4,1.1-7.2,3.3c-1.9,1.4-2.8,3.6-2.8,6.6c0,4.7,1.9,8.3,5.8,11.3
	c1.9,1.4,4.4,2.8,7.5,3.6c3,0.8,6.6,1.4,11.3,1.4c4.4,0,9.7-1.4,15.5-4.1c16-7.5,38.4-26.8,67.1-58l14.1-15.7l22.7-26.5l31.8-39.2
	c-20.2,34.3-34.8,66.9-44.2,97.5l-5,16.3c-1.4,4.4-2.8,8.6-3.9,11.9c-3,8.3-5.8,13.8-9.7,16.9c-0.6,0.3,0,1.1,0,1.9
	c0,0.8,0,0.8,0,0.8s-0.8,0,0.3,0s3.3-1.7,6.4-5.2l31.2-37l22.9-27.1l27.6-30.9c24.9-27.1,45.6-46.4,63-58.3
	c8.8-6.1,16.9-10.5,24.3-13.3s14.4-4.1,20.7-4.1c6.4,0,11.3,1.7,14.6,5.2c3.3,3.3,5,8.3,5,14.6c0,8.8-4.4,17.7-13,27.1
	c-3.9,4.1-8.3,7.7-13,11.1c-4.7,3.3-8.8,5.5-11.9,6.6c-3,1.1-4.7,2.2-4.7,2.8c0,0.6,0.6,0.8,1.9,0.8c1.1,0,3.3-0.6,6.1-1.9
	c12.2-5.8,22.4-13.5,30.4-22.9c7.7-9.4,11.6-17.7,11.3-25.1C663.3,238.7,661.1,233.7,656.9,229.8z M512.4,200.3
	c6.4-8.8,14.1-18.8,23.5-30.1c9.4-11.1,18.5-19.9,27.1-26.2c6.1,5,9.1,11.9,9.1,20.2c0,12.7-3.6,24-10.8,34.3
	c-3.3,4.7-6.9,8.8-11.3,12.2c-4.1,3.6-8.8,6.4-13.3,8.8c-4.7,2.2-9.4,4.1-14.1,5.2c-4.7,1.1-9.4,1.7-13.8,1.7s-9.1-0.6-14.1-1.7
	L512.4,200.3z M459.1,249.2c-5.8,7.5-11.1,13.8-15.5,19.1c-1.1,1.1-2.2,2.5-3.3,3.6c0.6-2.2,0.8-4.4,0.8-6.6c0-4.7-1.1-8.6-3.6-11.6
	c-1.1-1.4-2.5-2.5-3.9-3.3s-3-1.1-4.7-1.1c-1.7,0-3,0.6-3.9,1.7c-1.1,1.1-1.4,2.5-1.4,3.9c0,1.4,0.6,2.8,1.7,3.6
	c1.1,1.1,2.5,1.4,4.1,1.4s3-0.8,4.4-2.5c2.2,2.2,3.3,5,3.3,8.3c0,5-1.1,9.1-3.6,13.3c-1.1,0.8-1.9,1.9-2.8,2.8
	c-3.9,3.3-7.2,5.8-10.5,7.7c-3.3,1.9-6.4,3-9.7,3.9c-3,0.6-6.9,1.1-11.6,1.1c-0.8,0-1.4,0-2.2,0c-3.3-0.6-6.4-1.4-9.1-2.8
	c-0.3-0.3-0.8-0.3-1.1-0.6c-3.3-2.2-5.2-5-5.2-8.6v-0.6c0,0.8,3.3,1.1,5.5,1.1c2.2,0,3.9-0.6,5.2-1.7c1.4-1.1,2.2-2.8,2.2-4.4
	s-0.6-3-1.9-3.9c-1.4-0.8-2.8-1.4-3.9-1.4c-3,0-5.2,0.8-7.5,2.2c-1.1,0.8-1.9,1.9-2.8,3c-0.8,1.4-1.1,3-1.1,5c0,0.3,0,0.6,0,0.6
	c-3.3-4.7-5-10.5-5-16.9c0-9.9,4.4-18.5,13-25.4c4.1-3,8.6-5.5,13.8-7.5c5.2-1.7,10.8-2.8,16.3-2.8s10.8,0.8,15.5,2.2
	c2.8,0.8,5.8,2.2,9.4,3.9s7.7,3.9,12.7,6.6c2.5,1.4,5.2,2.8,8.3,3.9L459.1,249.2z"></path>
<style>.VbDuJYMS_0{stroke-dasharray:1533 1535;stroke-dashoffset:1534;animation:VbDuJYMS_draw 901ms ease-out 0ms forwards;}.VbDuJYMS_1{stroke-dasharray:3572 3574;stroke-dashoffset:3573;animation:VbDuJYMS_draw 2098ms ease-out 901ms forwards;}@keyframes VbDuJYMS_draw{100%{stroke-dashoffset:0;}}@keyframes VbDuJYMS_fade{0%{stroke-opacity:1;}94.44444444444444%{stroke-opacity:1;}100%{stroke-opacity:0;}}</style></svg>
