<!--?xml version="1.0" encoding="utf-8"?-->
<!-- Generator: Adobe Illustrator 19.0.0, SVG Export Plug-In . SVG Version: 6.00 Build 0)  -->
<svg version="1.1" id="Layer_1" xmlns="http://www.w3.org/2000/svg" xmlns:xlink="http://www.w3.org/1999/xlink" x="0px" y="0px" viewBox="253 -101.5 672 406.5" style="" xml:space="preserve">
<style type="text/css">
	.st0{fill:rgba(0,0,0,.5);stroke:#F15A24;stroke-width:2;stroke-miterlimit:10;}
	.st1{fill:rgba(0,0,0,.5);stroke:#F15A24;stroke-width:3;stroke-miterlimit:10;}
</style>
<g id="np">
	<path id="XMLID_12_" class="st0 JahbhNUR_0" d="M303.4,96.7c0.6,0.5,1.3,1.1,2,1.6c4.9,5.7,13.7,8.6,26.3,8.6c1.7,0,3.4-0.1,5.1-0.3
		c5.6-0.4,10.9-1.6,15.8-3.7c20.3-7.3,42.5-25.1,66.7-53.1c1.6,0.3,3.3,0.6,4.8,0.9c3.6,0.6,6.7,0.8,9.2,0.8s5.4-0.3,8.5-0.8
		c11.4-2.4,20-6.4,25.7-12.1c1.4-1.5,2-2.7,2-3.5c0-0.7-0.3-1-0.9-1c-0.6,0-1.2,0.2-1.7,0.6c-7.1,6.4-15.2,9.5-24.4,9.5
		c-4.2,0-9.3-1.2-15.6-3.6c4.6-5.6,9.2-11.6,14-17.9c6.4,1.4,13.5,2,21,2c15.4,0,30.5-3.3,45.1-10.1c14.2-6.7,25.7-15.2,34.4-25.8
		c9-11.1,13.5-22.4,13.5-34.1c0-15.8-7.7-28.3-23.2-37.5c6.9-4.5,13.2-7.3,18.8-8.3c2.4-0.4,3.8-0.8,4.2-1.1c0.5-0.4,0.6-1,0.6-1.7
		c-0.1-0.8-1-1.1-2.8-1.1c-5.8,0-14.5,3.3-26.1,9.7c-14.4-7-33-10.5-55.7-10.5c-22.7,0-45,4.2-67,12.7c-10.4,3.9-20.1,8.7-29.1,14.2
		c-9,5.5-16.8,11.6-23.3,18.2c-6.6,6.6-11.7,13.5-15.4,21c-3.6,7.4-5.4,14.8-5.1,22c0.2,7.3,2.9,13.4,8,18.3
		c4.6,4.4,9.8,6.7,15.7,6.7c15.7,0,30.2-4.8,43.2-14.5c6-4.4,11.3-9.5,15.9-15.3c4.7-5.8,8.6-11.8,11.7-18.1s5.4-12.6,7-18.9
		c1.5-6.4,2.3-11.3,2.2-14.8c-0.1-3.5-0.2-5.7-0.3-6.4s-0.6-1.1-1.5-1.1s-1.5,1.7-1.8,4.9c-0.8,7.1-5.2,17-13.1,29.7
		c-3.6,6-7.9,12-12.8,17.9c-4.8,6-10,11.4-15.5,16.3c-5.5,4.8-11.2,8.8-17.1,11.9c-5.9,3.1-11.5,4.6-16.8,4.6s-9.8-1.5-13.4-4.6
		c-4.4-3.8-6.7-9.2-6.9-16.4c-0.4-12.8,5.6-25.7,18-38.9c12.6-13.5,28.8-24.3,48.9-32.4c21.9-9,44.5-13.5,67.7-13.5
		c23.2,0,40.3,3.4,51.5,10.2l-5.9,3.9c-15.7,10.7-31.7,24.6-48.1,41.5c-10.2,10.4-23.2,26.2-38.9,47.5l-2,2.7
		c-3.2-2.1-4.8-4.7-4.8-7.6s1.1-5.8,3.4-8.6c2.3-2.7,5.7-4.5,10.1-5.3c1.1-0.3,1.7-0.7,1.7-1.1c0-1-1.7-1.4-5.1-1.4
		s-6.8,1.4-10.3,4.2c-3.8,3-5.6,6.5-5.6,10.7c0,4.9,2.7,9.2,8.1,12.7l-12.9,17.3l-1.9-0.8c-4.3-2.1-8.6-4.1-12.9-5.8
		c-4.3-1.7-9.5-3.6-15.4-5.3c-5.9-1.7-14.6-2.6-26-2.6c-19.2,0-34.7,4.6-46.9,13.9c-12,9.2-18,20.5-18,34.1
		C290.5,79.5,294.8,89.4,303.4,96.7z M465.3-11.1c7.6-10.7,17.1-22.9,28.5-36.5c11.4-13.5,22.4-24.1,33-31.9
		c7.4,6.1,11.1,14.3,11.1,24.5c0,15.4-4.3,29.4-12.9,41.6c-3.9,5.7-8.5,10.6-13.7,14.8c-5.2,4.2-10.6,7.8-16.2,10.6
		c-5.6,2.8-11.4,5-17.2,6.4s-11.4,2.2-16.9,2.2c-5.4,0-11.2-0.6-17.3-1.9L465.3-11.1z M310.9,36.6c4.9-3.9,10.5-6.8,17-9
		c6.4-2.2,13-3.3,20-3.3s13.2,0.9,18.8,2.7c3.3,1.1,7.2,2.6,11.4,4.5c4.2,2,9.4,4.7,15.4,8.2c3.1,1.8,6.4,3.4,9.9,4.8l-2.8,3.8
		c-7,9.2-13.3,16.9-18.9,23.3c-1.3,1.5-2.6,3-3.9,4.3c0.6-2.6,1-5.3,1-8.2c0-5.8-1.4-10.4-4.3-14.2c-1.4-1.7-2.9-3-4.5-3.9
		c-1.7-0.9-3.6-1.4-5.5-1.4c-1.9,0-3.6,0.7-4.8,2c-1.2,1.4-1.8,2.9-1.8,4.7c0,1.8,0.8,3.3,2.2,4.5c1.4,1.2,3.1,1.8,5.1,1.8
		c1.9,0,3.8-1,5.5-3c2.6,2.8,3.9,6.1,3.9,9.9c0,5.9-1.5,11.2-4.4,16c-1.2,1.1-2.3,2.2-3.5,3.2c-4.5,4-8.9,7.2-12.8,9.5
		c-4,2.3-7.9,3.8-11.6,4.6c-3.8,0.8-8.4,1.2-14.1,1.2c-0.9,0-1.8-0.1-2.7-0.2c-3.9-0.6-7.6-1.7-10.9-3.3c-0.3-0.2-0.5-0.4-0.8-0.5
		c-4.1-2.7-6.1-6.2-6.1-10.5v-0.8c1.5,1,3.6,1.4,6.2,1.4s4.6-0.8,6.2-2.2c1.7-1.4,2.4-3.3,2.4-5.3c0-2.1-0.8-3.7-2.5-4.8
		c-1.7-1.1-3.3-1.6-4.7-1.6c-3.6,0-6.5,0.9-8.9,2.7c-1.4,1-2.4,2.2-3.3,3.8c-0.8,1.5-1.3,3.6-1.3,6c0,0.3,0,0.5,0,0.8
		c-4.1-5.8-6.2-12.6-6.2-20.7C295.1,55.5,300.3,45.1,310.9,36.6z"></path>
	<path id="XMLID_14_" class="st0 JahbhNUR_1" d="M661,15.1c-5.1-4.5-12.3-6.7-21.5-6.7c-9.2,0.1-18,1.4-26.4,4.2c-25,8.1-55.9,31.1-92.6,69.2
		L501,102.5l-19.9,22l-19.2,22l-43.7,51.9l25.1-45.1c9.7-18.5,17.9-38.6,24.8-60.1l4.6-15.3c1.4-4.5,2.5-8.7,3.6-12.6
		c1-3.9,2.4-9.2,4.3-15.8c1.9-6.7,4.6-12.9,8.2-18.8l2-3.8c0.4-0.8,0.6-1.5,0.6-2.2s-0.4-1-1.1-1s-2,1.1-3.8,3.2
		c-4.2,6.1-22.6,28.8-55.3,68l-40,45.8c-25.2,28.2-46.8,49-64.7,62.3c-8.3,6.3-15.7,10.7-21.9,13.4c-6.3,2.7-12.4,4-18.6,4
		c-6.1,0-11.1-1.4-14.8-4c-3.7-2.7-5.6-6.1-5.6-10.4v-0.8c1.5,1,3.8,1.4,6.4,1.4s4.7-0.8,6.3-2.2c1.7-1.4,2.5-3.1,2.5-5.1
		c0-4.4-3-6.7-8.8-6.7c-2.5,0-5.4,1.3-8.6,3.9c-2.3,1.7-3.4,4.5-3.4,8.3c0,5.6,2.3,10.1,7,13.7c2.4,1.8,5.4,3.3,9.1,4.2
		c3.6,1,8.2,1.5,13.6,1.5c5.4,0,11.7-1.7,18.8-4.9c19.5-9,46.6-32.5,81.4-70.6l17.2-19.2l27.7-32.2l38.6-47.7
		c-24.4,41.6-42.3,81.1-53.7,118.3l-6.1,19.9c-1.7,5.5-3.3,10.3-4.8,14.4c-3.8,10.1-7.7,16.9-12.3,20.4c-0.6,0.5-0.7,1.2-0.7,2.3
		s0,1.6,0,1.6s0.4,0,1.9,0s4.1-2.3,7.9-6.7l37.9-45.1l27.9-32.9l33.6-37.6c29.8-32.5,55.2-56.1,76.2-70.6
		c10.7-7.4,20.5-12.8,29.5-16.1c9-3.3,17.4-5.1,25.1-5.1c7.7,0,13.6,2.1,17.7,6.3c4.1,4.2,6.1,10.1,6.1,17.6
		c0,10.6-5.2,21.5-15.7,32.7c-4.7,4.9-10,9.3-15.8,13.2c-5.8,3.9-10.6,6.7-14.3,8.2s-5.5,2.6-5.5,3.3c0,0.8,0.8,1.1,2.3,1.1
		s3.9-0.8,7.4-2.4c14.8-7.1,27.1-16.4,36.9-27.9c9.4-11.3,14-21.4,13.9-30.6C668.8,25.9,666.2,19.6,661,15.1z"></path>
</g>
<path id="design" class="st1 JahbhNUR_2" d="M886.9,111.4v51.5l-37.6-51.5h-19.5v46.1h-39.6v20.3h16.7c-6,7.4-12.9,10.2-20.7,10.2
	c-3.4,0-6.4-0.6-9.2-1.9s-5.2-3.1-7.1-5.5c-2-2.4-3.5-5.2-4.6-8.5c-1.1-3.3-1.6-6.9-1.6-11c0-4,0.6-7.6,1.6-11
	c1.1-3.3,2.6-6.2,4.6-8.6c1.9-2.4,4.2-4.3,6.9-5.6c2.7-1.4,5.6-2,8.8-2c4.3,0,8.5,1.2,12.2,3.7c3.9,2.5,6.8,5.7,8.7,9.8l20.1-16.1
	c-1.7-3.5-4-6.5-6.7-9.3c-2.8-2.8-5.9-5.2-9.3-7.1c-3.5-1.9-7.2-3.5-11.3-4.5s-8.3-1.5-12.7-1.5c-7.1,0-13.7,1.3-19.8,4
	c-6.2,2.7-11.3,6.3-15.8,10.9c-2.1,2.2-3.9,4.6-5.7,7.2v-18.7H712v83.1c-1.6-0.6-3.2-1.3-4.9-1.9c-3.1-1.2-6.4-2.1-9.9-2.9
	s-6.8-1.1-10.5-1.1c-4.1,0-7.9,0.6-11.6,1.6v-1.4h-43.2v-17.5h35.9v-23.9h-35.9v-15.7h42.4v-25.8h-69.2v32.5
	c-2.2-6.4-5.5-12.1-9.7-16.9c-4.3-4.9-9.8-8.6-16.3-11.4c-6.4-2.9-14-4.1-22.5-4.1h-40.2v108.8h40c7.8,0,14.9-1.3,21.4-3.9
	c6.4-2.6,11.9-6.3,16.4-11.1s8-10.5,10.5-17.2c0.1-0.2,0.1-0.4,0.2-0.6v32.6H651c-0.7,2.8-1.1,6.4-1.1,10c0,4,0.5,7.4,1.5,10.4
	c0.9,3,2.5,5.7,4.5,8.1s4.6,4.5,7.7,6.4s6.8,3.6,11.2,5.2c2.9,1.1,5.7,2,8.4,2.9c2.6,0.8,5,1.6,7,2.4c2,0.8,3.6,1.7,4.8,2.8
	c1.1,1,1.7,2.3,1.7,3.9c0,1.4-0.6,2.6-1.7,3.4c-1.2,0.8-3.2,1.3-6.2,1.3c-3.9,0-7.7-0.6-11.4-1.9c-3.7-1.2-7.1-2.6-10-4.1
	c-3.5-1.7-6.9-3.7-10-5.9l-11.6,25.8c2.9,1.9,6.2,3.6,9.6,5.2c3.4,1.6,7.1,2.9,10.8,4c3.7,1.1,7.4,1.9,11.3,2.6
	c3.8,0.6,7.4,0.9,11.1,0.9c4.5,0,9-0.6,13.5-1.7c4.4-1.2,8.5-3,12-5.6s6.4-6.1,8.6-10.5c2.1-4.3,3.2-9.8,3.2-16.2
	c0-5.1-0.7-9.3-2.1-12.8c-1.4-3.5-3.4-6.5-6-9c-2.6-2.5-5.7-4.6-9.3-6.4c-3.7-1.9-7.7-3.5-12.2-5c-2.9-1-5.5-1.9-7.7-2.6
	c-2.3-0.7-4.2-1.5-5.7-2.2c-1.6-0.7-2.8-1.6-3.6-2.5s-1.2-2-1.2-3.5c0-1.9,0.7-3.2,2.1-4.1c1.5-0.8,3.3-1.2,5.7-1.2
	c2.9,0,6,0.6,9,1.6s5.9,2.2,8.4,3.4c2.9,1.4,5.8,3,8.6,4.8l0.2-0.3v0.6h33.2v-33.5c1.9,2.6,3.4,5,5.5,7.1c4.3,4.5,9.3,8,15.1,10.3
	c5.8,2.4,11.7,3.5,18,3.5c9.1,0,17.6-3.1,24.1-9.3v9h22l0,0h24.9V163l37.3,49.9H913V111.4C912.7,111.4,886.9,111.4,886.9,111.4z
	 M578,172.2c-1,3.5-2.5,6.5-4.5,9.1s-4.4,4.7-7.4,6.2c-2.9,1.5-6.2,2.3-9.9,2.3h-11.3v-57.1h11.4c3.6,0,6.8,0.6,9.8,2
	c2.9,1.4,5.4,3.3,7.4,5.7c2,2.5,3.5,5.5,4.6,9c1.1,3.5,1.6,7.4,1.6,11.5C579.6,165,579,168.7,578,172.2z"></path>
<style>.JahbhNUR_0{stroke-dasharray:2431 2433;stroke-dashoffset:2432;animation:JahbhNUR_draw_0 16500ms ease-in-out 0ms infinite,JahbhNUR_fade 16500ms linear 0ms infinite;}.JahbhNUR_1{stroke-dasharray:1933 1935;stroke-dashoffset:1934;animation:JahbhNUR_draw_1 16500ms ease-in-out 0ms infinite,JahbhNUR_fade 16500ms linear 0ms infinite;}.JahbhNUR_2{stroke-dasharray:2402 2404;stroke-dashoffset:2403;animation:JahbhNUR_draw_2 16500ms ease-in-out 0ms infinite,JahbhNUR_fade 16500ms linear 0ms infinite;}@keyframes JahbhNUR_draw{100%{stroke-dashoffset:0;}}@keyframes JahbhNUR_fade{0%{stroke-opacity:1;}92.72727272727273%{stroke-opacity:1;}100%{stroke-opacity:0;}}@keyframes JahbhNUR_draw_0{1.8181818181818181%{stroke-dashoffset: 2432}21.21212121212121%{ stroke-dashoffset: 0;}100%{ stroke-dashoffset: 0;}}@keyframes JahbhNUR_draw_1{6.666666666666667%{stroke-dashoffset: 1934}26.060606060606062%{ stroke-dashoffset: 0;}100%{ stroke-dashoffset: 0;}}@keyframes JahbhNUR_draw_2{11.515151515151516%{stroke-dashoffset: 2403}30.909090909090907%{ stroke-dashoffset: 0;}100%{ stroke-dashoffset: 0;}}</style></svg>
