<?xml version="1.0" encoding="utf-8"?>
<!-- Generator: Adobe Illustrator 19.0.0, SVG Export Plug-In . SVG Version: 6.00 Build 0)  -->
<svg version="1.1" id="Layer_1" xmlns="http://www.w3.org/2000/svg" xmlns:xlink="http://www.w3.org/1999/xlink" x="0px" y="0px"
	 viewBox="0 0 380 270" style="enable-background:new 0 0 380 270;" xml:space="preserve">
<style type="text/css">
	.st0{fill:none;stroke:#F15A24;stroke-width:3;stroke-miterlimit:10;}
	.st1{fill:#F15A24;}
</style>
<g id="XMLID_5_">
	<g id="XMLID_120_">
		<g id="XMLID_170_">
			<g id="XMLID_179_">
				<path id="XMLID_181_" class="st0" d="M66.8,103.4c0,10.7,0,21.4,0,32.1c-6.8,0-13.5,0-20.3,0c0-29.6,0-59.2,0-89.1
					c1.9-0.3,3.9-0.7,5.9-0.8c8.2-0.4,16.4-0.9,24.6-0.9c6.6-0.1,13,0.9,19.1,3.7c9.3,4.3,14.4,11.7,15.3,21.8
					c0.7,7.6-0.8,14.8-5.5,21c-4.1,5.4-9.8,8.5-16.2,10.4c-7.2,2.1-14.5,2.4-22,1.8C67.5,103.4,67.2,103.4,66.8,103.4z M66.8,87.4
					c4.9,0.7,9.6,0.9,14.3-0.5c6.5-2,10-6.6,10.2-13.2c0.2-7-3.7-11.8-10.6-13.2c-4.1-0.9-8.2-0.6-12.3-0.1
					c-1.3,0.2-1.6,0.7-1.6,1.9c0.1,7.8,0,15.6,0,23.4C66.8,86.3,66.8,86.8,66.8,87.4z"/>
				<path id="XMLID_180_" class="st0" d="M159.5,72.3c-0.1,0.4-0.1,0.7-0.2,1c-1.1,4.3-2.2,8.6-3.3,12.8c-2.7-0.9-5.4-1.9-8.1-2.6
					c-3.1-0.9-6.2-1.2-9.4-0.5c-1,0.2-2,0.6-2.8,1.2c-2.4,1.8-2.6,5.2-0.3,7c1.5,1.1,3.2,1.9,4.9,2.7c3.8,1.7,7.7,3,11.3,4.9
					c4.9,2.5,8.5,6.2,9.9,11.8c2.5,9.8-1.8,18.9-11.1,23.2c-6.9,3.2-14.2,3.6-21.6,3c-4.7-0.3-9.3-1.3-13.7-3.1
					c-0.9-0.4-1.7-0.8-2.7-1.2c1.2-4.9,2.4-9.7,3.5-14.2c4,1.3,7.9,2.7,11.8,3.7c3.4,0.9,6.9,1.1,10.3,0.2c2.2-0.6,3.9-1.8,4.3-4.2
					c0.4-2.6-0.8-4.5-3-5.5c-3.4-1.5-6.8-2.8-10.2-4.2c-4.2-1.8-8.1-4.1-11.2-7.6c-5.6-6.6-4.7-15.7-0.6-21.6
					c3.7-5.5,9.2-8.4,15.5-9.7c8.7-1.7,17.3-0.8,25.5,2.5C158.9,72,159.2,72.2,159.5,72.3z"/>
			</g>
			<path id="XMLID_178_" class="st0" d="M168.9,170.4H40.5c-7.2,0-13-5.8-13-13V29.6c0-7.2,5.8-13,13-13h128.4c7.2,0,13,5.8,13,13
				v127.9C181.9,164.6,176.1,170.4,168.9,170.4z"/>
			<g id="XMLID_172_">
				<path id="XMLID_174_" class="st0" d="M235.4,214c0.9,0.1,1.5,0.3,2.1,0.3c3.8,0,7.6,0,11.4,0.1c1.7,0,2.4-0.8,2.8-2.5
					c1.2-5.1,2.4-10.2,3.8-15.3c0.2-0.6,0.8-1.6,1.3-1.6c5.4-0.1,10.9-0.1,16.4-0.1c0.2,0.6,0.3,1.1,0.4,1.6
					c1.4,5.4,2.8,10.8,4.1,16.2c0.3,1.2,0.7,1.7,1.9,1.7c4.2,0,8.5,0,12.7,0c0.7,0,1.4-0.2,2.2-0.3c-0.2-1.1-0.3-1.9-0.5-2.7
					c-2.8-10.7-5.6-21.4-8.4-32.1c-4.5-16.7-9.2-33.3-13.7-49.9c-0.4-1.5-1.1-2.1-2.5-2.1c-2.8,0-5.6,0.1-8.3,0
					c-1.7-0.1-2.5,0.6-3,2.4c-5.6,21.3-11.4,42.5-17.1,63.8C239,200.2,237.2,206.9,235.4,214z M313.9,183.6
					C313.8,183.6,313.8,183.6,313.9,183.6c-0.1-9.7,0-19.3-0.1-29c0-2.6-0.1-2.7-2.6-2.8c-2.7-0.1-5.3-0.1-8,0
					c-4.9,0.2-4.2-0.4-4.2,4.5c-0.1,18.7,0,37.4,0,56.2c0,1.3,0.4,1.8,1.6,1.8c3.8-0.1,7.6-0.1,11.4,0c1.5,0,1.8-0.5,1.8-2
					C313.8,202.8,313.9,193.2,313.9,183.6z M306.3,126.7c-2.5,0-5,0.5-6.7,2.6c-2.6,3.1-3,6.7-1.5,10.4c1.4,3.4,4.1,5,7.5,5.1
					c3.8,0.1,7.2-0.8,9.3-4.7c0.4-0.8,0.7-1.7,0.8-2.5C316.7,131.2,312.8,126.7,306.3,126.7z"/>
				<path id="XMLID_173_" class="st0" d="M270,180.5c-3.5,0-6.9,0-10.5,0c1.8-8.6,3.5-16.9,5.2-25.2
					C266.4,163.6,268.2,172,270,180.5z"/>
			</g>
			<path id="XMLID_171_" class="st0" d="M338.6,247.1H210.2c-7.2,0-13-5.8-13-13V106.2c0-7.2,5.8-13,13-13h128.4c7.2,0,13,5.8,13,13
				v127.9C351.6,241.3,345.8,247.1,338.6,247.1z"/>
		</g>
	</g>
</g>
<g id="XMLID_7_">
	<path class="st1" d="M370,4c4.4,0,8,3.6,8,8v247c0,4.4-3.6,8-8,8H10c-4.4,0-8-3.6-8-8V12c0-4.4,3.6-8,8-8H370 M370,2H10
		C4.5,2,0,6.5,0,12v247c0,5.5,4.5,10,10,10h360c5.5,0,10-4.5,10-10V12C380,6.5,375.5,2,370,2L370,2z"/>
</g>
</svg>
