<?xml version="1.0" encoding="utf-8"?>
<!-- Generator: Adobe Illustrator 19.0.0, SVG Export Plug-In . SVG Version: 6.00 Build 0)  -->
<svg version="1.1" id="Layer_1" xmlns="http://www.w3.org/2000/svg" xmlns:xlink="http://www.w3.org/1999/xlink" x="0px" y="0px"
	 viewBox="0 0 380 270" style="enable-background:new 0 0 380 270;" xml:space="preserve">
<style type="text/css">
	.st0{fill:none;stroke:#00FFFF;stroke-width:2;stroke-miterlimit:10;}
	.st1{fill:#FFFFFF;stroke:#00FFFF;stroke-width:2;stroke-miterlimit:10;}
</style>
<g id="XMLID_5_">
	<g id="XMLID_2_">
		<path id="XMLID_36_" class="st0" d="M59,102.9c0,11.6,0,23.2,0,34.9c-7.4,0-14.6,0-21.9,0c0-32.1,0-64.3,0-96.7
			c2.1-0.3,4.2-0.8,6.4-0.9c8.8-0.4,17.7-1,26.6-1c7.1-0.1,14.1,1,20.6,4c10.1,4.6,15.6,12.7,16.6,23.6c0.8,8.3-0.9,16-6,22.8
			c-4.4,5.9-10.6,9.3-17.5,11.3c-7.8,2.3-15.7,2.6-23.8,2C59.7,102.8,59.5,102.9,59,102.9z M59,85.6c5.3,0.8,10.4,1,15.4-0.6
			c7.1-2.2,10.8-7.2,11-14.3c0.2-7.6-4-12.8-11.4-14.3c-4.4-0.9-8.9-0.6-13.3-0.1c-1.4,0.2-1.8,0.7-1.8,2.1c0.1,8.5,0,16.9,0,25.4
			C59,84.3,59,84.9,59,85.6z"/>
		<path id="XMLID_35_" class="st1" d="M159.3,69.1c-0.1,0.4-0.1,0.7-0.2,1.1c-1.2,4.6-2.4,9.3-3.6,13.9c-3-1-5.8-2-8.8-2.9
			c-3.3-0.9-6.7-1.3-10.1-0.5c-1,0.2-2.1,0.7-3,1.3c-2.6,1.9-2.8,5.6-0.3,7.6c1.6,1.2,3.5,2.1,5.3,2.9c4.1,1.8,8.3,3.3,12.3,5.3
			c5.3,2.7,9.2,6.8,10.7,12.8c2.7,10.7-2,20.5-12,25.1c-7.4,3.4-15.3,3.9-23.3,3.3c-5.1-0.4-10.1-1.4-14.9-3.3c-1-0.4-1.9-0.9-3-1.4
			c1.3-5.3,2.6-10.5,3.8-15.4c4.4,1.4,8.5,2.9,12.8,4.1c3.7,1,7.4,1.2,11.2,0.2c2.4-0.6,4.2-1.9,4.6-4.6c0.4-2.8-0.8-4.8-3.3-5.9
			c-3.6-1.7-7.4-3-11.1-4.6c-4.6-1.9-8.8-4.4-12.1-8.3c-6.1-7.1-5-17-0.7-23.5c4.1-5.9,9.9-9.2,16.8-10.5c9.4-1.9,18.7-0.8,27.6,2.7
			C158.6,68.8,158.9,69,159.3,69.1z"/>
	</g>
	<path id="XMLID_3_" class="st0" d="M170.5,175.6h-141c-7.2,0-13-5.8-13-13v-141c0-7.2,5.8-13,13-13h141c7.2,0,13,5.8,13,13v141
		C183.5,169.8,177.7,175.6,170.5,175.6z"/>
</g>
<g id="XMLID_7_">
	<g id="XMLID_1_">
		<path id="XMLID_59_" class="st0" d="M246.3,222.9c1,0.2,1.6,0.3,2.2,0.3c4.1,0,8.2,0,12.3,0.1c1.8,0,2.6-0.9,3-2.7
			c1.3-5.6,2.6-11.1,4.1-16.6c0.2-0.7,0.9-1.8,1.4-1.8c5.9-0.1,11.8-0.1,17.7-0.1c0.2,0.6,0.3,1.2,0.5,1.7c1.5,5.9,3,11.7,4.4,17.6
			c0.3,1.3,0.8,1.8,2.1,1.8c4.6-0.1,9.1,0,13.7,0c0.7,0,1.5-0.2,2.4-0.4c-0.2-1.2-0.4-2-0.6-2.9c-3-11.6-6-23.3-9.1-34.8
			c-4.9-18.1-9.9-36.1-14.8-54.2c-0.4-1.7-1.2-2.3-2.7-2.3c-3,0-6,0.1-9,0c-1.8-0.1-2.7,0.6-3.3,2.6c-6.1,23.1-12.3,46.2-18.5,69.2
			C250.2,207.9,248.3,215.2,246.3,222.9z M331.2,189.9C331.1,189.9,331.1,189.9,331.2,189.9c-0.1-10.5,0-21-0.1-31.4
			c0-2.8-0.1-2.9-2.8-3c-2.9-0.1-5.8-0.2-8.6,0c-5.3,0.2-4.5-0.5-4.6,4.9c-0.1,20.3,0,40.6,0,61c0,1.4,0.4,2,1.8,1.9
			c4.1-0.1,8.2-0.1,12.4,0c1.6,0,2-0.5,2-2.2C331.1,210.7,331.2,200.3,331.2,189.9z M323,128.1c-2.8,0-5.4,0.5-7.3,2.8
			c-2.8,3.4-3.2,7.2-1.6,11.3c1.5,3.7,4.4,5.4,8.1,5.5c4.1,0.1,7.8-0.8,10-5.1c0.4-0.8,0.7-1.8,0.9-2.8
			C334.2,133.1,330,128.2,323,128.1z"/>
		<path id="XMLID_53_" class="st0" d="M283.7,186.6c-3.8,0-7.5,0-11.3,0c1.9-9.3,3.7-18.4,5.6-27.4
			C279.9,168.2,281.8,177.4,283.7,186.6z"/>
	</g>
	<path id="XMLID_4_" class="st0" d="M356,258.8H215c-7.2,0-13-5.8-13-13v-141c0-7.2,5.8-13,13-13h141c7.2,0,13,5.8,13,13v141
		C369,253,363.2,258.8,356,258.8z"/>
</g>
</svg>
